<svg width="478.801" height="150.401" viewBox="0 0 478.801 150.401" xmlns="http://www.w3.org/2000/svg"><g id="svgGroup" stroke-linecap="round" fill-rule="evenodd" font-size="9pt" stroke="#000" stroke-width="0.25mm" fill="none" style="stroke:#000;stroke-width:0.25mm;fill:none"><path d="M 88 148 L 88 84.2 L 19 84.2 L 19 148 L 0 148 L 0 8 L 19 8 L 19 67.8 L 88 67.8 L 88 8 L 107 8 L 107 148 L 88 148 Z M 225.2 103.4 L 152.4 103.4 Q 154.2 118 162.6 126.2 A 28.288 28.288 0 0 0 177.85 133.821 A 40.042 40.042 0 0 0 184.8 134.4 Q 193.8 134.4 201 132.5 Q 208.2 130.6 214.8 127.6 L 219 143 A 70.811 70.811 0 0 1 209.362 146.683 A 88.533 88.533 0 0 1 202.8 148.4 A 81.423 81.423 0 0 1 192.617 149.961 A 109.214 109.214 0 0 1 182.6 150.4 Q 171.4 150.4 162.4 146.7 Q 153.4 143 147.1 136.1 Q 140.8 129.2 137.4 119.1 A 63.162 63.162 0 0 1 134.698 107.186 A 85.625 85.625 0 0 1 134 96 A 69.755 69.755 0 0 1 135.607 80.806 A 61.193 61.193 0 0 1 137.4 74.4 Q 140.8 64.4 147 57.1 Q 153.2 49.8 161.8 45.7 Q 170.4 41.6 181 41.6 A 55.817 55.817 0 0 1 190.807 42.421 A 41.239 41.239 0 0 1 200.6 45.4 A 40.099 40.099 0 0 1 212.016 53.046 A 37.668 37.668 0 0 1 214.6 55.8 A 43.889 43.889 0 0 1 222.592 69.973 A 50.428 50.428 0 0 1 223 71.2 A 60.697 60.697 0 0 1 225.794 88.883 A 68.114 68.114 0 0 1 225.8 89.8 A 150.407 150.407 0 0 1 225.219 103.194 A 138.852 138.852 0 0 1 225.2 103.4 Z M 266.8 0 L 266.8 113.6 A 41.288 41.288 0 0 0 267.176 119.376 Q 268.101 125.903 271.3 129.6 A 14.727 14.727 0 0 0 280.467 134.551 A 21.448 21.448 0 0 0 283.8 134.8 Q 287.6 134.8 291.2 133.9 Q 294.8 133 297.6 131.8 L 302 146.4 A 36.301 36.301 0 0 1 298.794 147.634 Q 297.202 148.167 295.376 148.646 A 69.956 69.956 0 0 1 293.1 149.2 A 47.633 47.633 0 0 1 286.789 150.17 A 61.027 61.027 0 0 1 281.4 150.4 A 42.837 42.837 0 0 1 273.178 149.638 A 36.116 36.116 0 0 1 268.5 148.4 Q 262.6 146.4 258.2 142.2 A 26.562 26.562 0 0 1 253.243 135.654 A 33.987 33.987 0 0 1 251.3 131.4 A 35.783 35.783 0 0 1 249.548 124.844 Q 248.987 121.616 248.847 117.918 A 66.491 66.491 0 0 1 248.8 115.4 L 248.8 0 L 266.8 0 Z M 334 0 L 334 113.6 A 41.288 41.288 0 0 0 334.376 119.376 Q 335.301 125.903 338.5 129.6 A 14.727 14.727 0 0 0 347.667 134.551 A 21.448 21.448 0 0 0 351 134.8 Q 354.8 134.8 358.4 133.9 Q 362 133 364.8 131.8 L 369.2 146.4 A 36.301 36.301 0 0 1 365.994 147.634 Q 364.402 148.167 362.576 148.646 A 69.956 69.956 0 0 1 360.3 149.2 A 47.633 47.633 0 0 1 353.989 150.17 A 61.027 61.027 0 0 1 348.6 150.4 A 42.837 42.837 0 0 1 340.378 149.638 A 36.116 36.116 0 0 1 335.7 148.4 Q 329.8 146.4 325.4 142.2 A 26.562 26.562 0 0 1 320.443 135.654 A 33.987 33.987 0 0 1 318.5 131.4 A 35.783 35.783 0 0 1 316.748 124.844 Q 316.187 121.616 316.047 117.918 A 66.491 66.491 0 0 1 316 115.4 L 316 0 L 334 0 Z M 376.329 83.318 A 68.393 68.393 0 0 0 375.2 96 Q 375.2 108 379.1 118 Q 383 128 389.9 135.2 Q 396.8 142.4 406.3 146.4 A 49.297 49.297 0 0 0 412.404 148.509 A 54.983 54.983 0 0 0 427 150.4 A 60.899 60.899 0 0 0 429.049 150.366 A 52.865 52.865 0 0 0 447.5 146.5 Q 457 142.6 464 135.4 A 47.65 47.65 0 0 0 467.692 131.121 A 52.323 52.323 0 0 0 474.9 118.1 A 55.628 55.628 0 0 0 477.566 108.822 A 68.149 68.149 0 0 0 478.8 95.6 A 69.847 69.847 0 0 0 478.327 87.359 A 55.622 55.622 0 0 0 474.8 73.2 Q 470.8 63.2 463.8 56.2 Q 456.8 49.2 447.3 45.4 A 52.118 52.118 0 0 0 446.107 44.94 A 54.38 54.38 0 0 0 427 41.6 Q 416 41.6 406.5 45.4 Q 397 49.2 390.1 56.2 A 46.527 46.527 0 0 0 385.333 61.886 A 53.608 53.608 0 0 0 379.2 73.3 A 54.622 54.622 0 0 0 376.329 83.318 Z M 460.4 96 Q 460.4 88.2 457.9 81.2 A 39.127 39.127 0 0 0 453.15 71.89 A 35.43 35.43 0 0 0 450.9 69 Q 446.4 63.8 440.3 60.7 Q 434.2 57.6 427 57.6 A 38.498 38.498 0 0 0 416.548 58.943 A 28.074 28.074 0 0 0 402.4 68 A 35.756 35.756 0 0 0 395.052 82.747 Q 393.6 88.613 393.6 95.6 Q 393.6 103.4 396.1 110.5 A 40.263 40.263 0 0 0 400.727 119.776 A 36.302 36.302 0 0 0 403.1 122.9 Q 407.6 128.2 413.7 131.3 Q 419.8 134.4 427 134.4 A 37.379 37.379 0 0 0 434.836 133.61 A 30.372 30.372 0 0 0 441 131.6 Q 447.2 128.8 451.5 123.7 Q 455.8 118.6 458.1 111.6 A 45.597 45.597 0 0 0 460.07 102.287 A 58.015 58.015 0 0 0 460.4 96 Z M 152.2 88.8 L 209.2 88.8 A 48.71 48.71 0 0 0 208.391 79.629 Q 207.4 74.461 205.191 70.414 A 24.844 24.844 0 0 0 201.6 65.4 A 24.977 24.977 0 0 0 187.679 57.849 A 36.79 36.79 0 0 0 180.6 57.2 A 28.376 28.376 0 0 0 171.098 58.731 A 24.437 24.437 0 0 0 161.3 65.2 A 29.477 29.477 0 0 0 155.715 74.01 Q 154.065 77.922 153.104 82.721 A 64.573 64.573 0 0 0 152.2 88.8 Z" vector-effect="non-scaling-stroke"/></g></svg>