<?xml version="1.0" encoding="UTF-8" standalone="no"?>
<svg
   xmlns:dc="http://purl.org/dc/elements/1.1/"
   xmlns:cc="http://creativecommons.org/ns#"
   xmlns:rdf="http://www.w3.org/1999/02/22-rdf-syntax-ns#"
   xmlns:svg="http://www.w3.org/2000/svg"
   xmlns="http://www.w3.org/2000/svg"
   xmlns:sodipodi="http://sodipodi.sourceforge.net/DTD/sodipodi-0.dtd"
   xmlns:inkscape="http://www.inkscape.org/namespaces/inkscape"
   version="1.1"
   id="Layer_1"
   x="0px"
   y="0px"
   viewBox="0 0 125.14999 125.14999"
   enable-background="new 0 0 166 166"
   xml:space="preserve"
   sodipodi:docname="CustomMadeOptimized.svg"
   inkscape:version="1.0.2-2 (e86c870879, 2021-01-15)"
   width="43.999367mm"
   height="43.999367mm"><title
   id="title146">CustomMade</title><metadata
   id="metadata144"><rdf:RDF><cc:Work
       rdf:about=""><dc:format>image/svg+xml</dc:format><dc:type
         rdf:resource="http://purl.org/dc/dcmitype/StillImage" /><dc:title>CustomMade</dc:title></cc:Work></rdf:RDF></metadata><defs
   id="defs142" /><sodipodi:namedview
   pagecolor="#ffffff"
   bordercolor="#666666"
   borderopacity="1"
   objecttolerance="10"
   gridtolerance="10"
   guidetolerance="10"
   inkscape:pageopacity="0"
   inkscape:pageshadow="2"
   inkscape:window-width="1920"
   inkscape:window-height="1017"
   id="namedview140"
   showgrid="false"
   inkscape:zoom="6.7918498"
   inkscape:cx="62.575"
   inkscape:cy="62.575"
   inkscape:window-x="-8"
   inkscape:window-y="-8"
   inkscape:window-maximized="1"
   inkscape:current-layer="g_x5F_chocolate_5_"
   inkscape:document-rotation="0"
   units="mm"
   fit-margin-top="0"
   fit-margin-left="0"
   fit-margin-right="0"
   fit-margin-bottom="0"
   scale-x="0.7531" />
<g
   id="rectangle_1_">
</g>
<g
   id="square_1_">
</g>
<g
   id="square_x5F_circle_1_">
</g>
<g
   id="babyshirt_1_">
</g>
<g
   id="oval">
</g>
<g
   id="circle_1_">
</g>
<g
   id="rectangle">
</g>
<g
   id="square">
	<g
   id="g_x5F_chocolate_5_"
   transform="translate(-0.22160972,-0.22160972)">
		<g
   id="chocolate_5_">
			<polygon
   id="XMLID_1040_"
   fill="#894d3f"
   points="62.735,62.735 3.357,3.357 0.425,0.425 0.425,125.15 3.357,122.113 " />
			<polygon
   id="XMLID_1038_"
   fill="#985647"
   points="62.735,62.735 122.113,3.357 125.15,0.425 0.425,0.425 3.357,3.357 " />
			<polygon
   id="XMLID_1036_"
   fill="#64392f"
   points="62.735,62.735 3.357,122.113 0.425,125.15 125.15,125.15 122.113,122.113 " />
			<polygon
   id="XMLID_1035_"
   fill="#724237"
   points="125.15,0.425 122.113,3.357 62.735,62.735 122.113,122.113 125.15,125.15 " />
			
			<path
   fill="#66392f"
   d="m 22.721,108.089 c -2.895,0 -5.34,-2.403 -5.34,-5.247 V 22.721 c 0,-2.894 2.354,-5.247 5.247,-5.247 h 80.122 c 2.894,0 5.248,2.354 5.248,5.247 v 80.122 c 0,2.893 -2.354,5.247 -5.248,5.247 H 22.721 Z"
   id="path90" />
			<g
   id="g93">
				
			</g>
			<circle
   id="XMLID_678_"
   fill="#ec1c24"
   cx="0.42500001"
   cy="0.42500001"
   r="0.42500001" />
			<g
   id="g128">
				<path
   fill="#6b3428"
   d="m 104.319,115.899 c 0,0.261 0.015,0.476 0.045,0.641 0.034,0.165 0.084,0.295 0.154,0.384 0.07,0.092 0.168,0.151 0.288,0.188 0.123,0.033 0.275,0.051 0.46,0.048 v -1.151 c -0.001,-0.035 -0.001,-0.072 0,-0.109 v -0.191 -1.757 -0.006 -0.259 h -0.01 c -0.02,-0.262 -0.068,-0.486 -0.144,-0.674 -0.101,-0.246 -0.236,-0.44 -0.406,-0.576 -0.168,-0.14 -0.361,-0.239 -0.571,-0.295 -0.211,-0.056 -0.43,-0.083 -0.656,-0.081 -0.21,10e-4 -0.402,0.029 -0.576,0.076 -0.174,0.052 -0.326,0.117 -0.459,0.196 -0.132,0.08 -0.244,0.163 -0.33,0.253 h -0.053 c -0.05,-0.132 -0.149,-0.234 -0.289,-0.309 -0.142,-0.073 -0.342,-0.11 -0.605,-0.111 v 1.159 c 0.001,0.031 0.001,0.065 0,0.098 v 2.5 c 0.001,0.25 0.017,0.455 0.044,0.616 0.033,0.165 0.082,0.295 0.156,0.384 0.069,0.092 0.167,0.151 0.287,0.188 0.124,0.033 0.276,0.051 0.46,0.048 v -1.157 -0.103 -0.191 -2.021 -0.066 -0.531 c 0.086,-0.099 0.185,-0.19 0.296,-0.275 0.108,-0.084 0.228,-0.153 0.353,-0.202 0.129,-0.052 0.262,-0.077 0.403,-0.08 0.145,-0.002 0.287,0.022 0.423,0.074 0.139,0.05 0.26,0.132 0.371,0.242 0.109,0.11 0.195,0.258 0.26,0.437 0.064,0.182 0.097,0.403 0.098,0.665 v 1.757 z"
   id="path96" />
				<path
   fill="#6b3428"
   d="m 104.319,115.899 c 0,0.261 0.015,0.476 0.045,0.641 0.034,0.165 0.084,0.295 0.154,0.384 0.07,0.092 0.168,0.151 0.288,0.188 0.123,0.033 0.275,0.051 0.46,0.048 v -1.151 c -0.001,-0.035 -0.001,-0.072 0,-0.109 v -0.191 -1.757 -0.006 -0.259 h -0.01 c -0.02,-0.262 -0.068,-0.486 -0.144,-0.674 -0.101,-0.246 -0.236,-0.44 -0.406,-0.576 -0.168,-0.14 -0.361,-0.239 -0.571,-0.295 -0.211,-0.056 -0.43,-0.083 -0.656,-0.081 -0.21,10e-4 -0.402,0.029 -0.576,0.076 -0.174,0.052 -0.326,0.117 -0.459,0.196 -0.132,0.08 -0.244,0.163 -0.33,0.253 h -0.053 c -0.05,-0.132 -0.149,-0.234 -0.289,-0.309 -0.142,-0.073 -0.342,-0.11 -0.605,-0.111 v 1.159 c 0.001,0.031 0.001,0.065 0,0.098 v 2.5 c 0.001,0.25 0.017,0.455 0.044,0.616 0.033,0.165 0.082,0.295 0.156,0.384 0.069,0.092 0.167,0.151 0.287,0.188 0.124,0.033 0.276,0.051 0.46,0.048 v -1.157 -0.103 -0.191 -2.021 -0.066 -0.531 c 0.086,-0.099 0.185,-0.19 0.296,-0.275 0.108,-0.084 0.228,-0.153 0.353,-0.202 0.129,-0.052 0.262,-0.077 0.403,-0.08 0.145,-0.002 0.287,0.022 0.423,0.074 0.139,0.05 0.26,0.132 0.371,0.242 0.109,0.11 0.195,0.258 0.26,0.437 0.064,0.182 0.097,0.403 0.098,0.665 v 1.757 z"
   id="path98" />
				<path
   fill="#6b3428"
   d="m 94.194,112.646 h 1.041 c 0.123,-0.005 0.227,-0.012 0.313,-0.027 0.124,-0.021 0.223,-0.055 0.29,-0.103 0.067,-0.047 0.113,-0.113 0.141,-0.194 0.028,-0.081 0.039,-0.073 0.037,-0.194 v -0.005 h -0.742 c -0.012,0 -0.023,10e-4 -0.037,0.002 l -0.002,-0.002 h -1.041 v -0.396 c -0.006,-0.165 -0.017,-0.305 -0.035,-0.422 -0.031,-0.166 -0.076,-0.298 -0.141,-0.389 -0.063,-0.093 -0.151,-0.155 -0.262,-0.19 -0.109,-0.036 -0.247,-0.051 -0.414,-0.05 h -0.007 v 0.998 c 0.002,0.016 0.004,0.033 0.004,0.05 l -0.004,0.003 v 0.396 c -0.215,0.066 -0.432,0.07 -0.517,0.324 -0.024,0.083 -0.038,0.072 -0.036,0.195 v 0.006 h 0.346 c 0.012,-0.002 0.025,-0.002 0.037,-0.003 l 0.002,0.003 h 0.168 v 0.368 0.007 0.046 3.081 0.007 h 0.001 v 0.008 0.008 l 0.001,0.007 v 0.007 0.006 0.008 0.007 l 0.002,0.007 v 0.008 0.007 0.008 l 0.002,0.007 v 0.007 h 0.001 v 0.006 0.006 0.008 0.007 l 0.001,0.007 v 0.007 0.007 0.006 0.007 l 0.003,0.007 v 0.007 0.007 0.007 0.006 l 0.002,0.008 0.001,0.006 v 0.006 l 10e-4,0.006 v 0.006 l 0.001,0.007 v 0.005 l 0.002,0.007 v 0.006 0.007 0.006 l 0.001,0.006 0.001,0.005 v 0.005 0.007 l 0.002,0.005 0.001,0.007 v 0.006 l 10e-4,0.006 v 0.006 0.007 0.006 l 0.004,0.003 v 0.007 0.006 0.005 l 0.002,0.006 h 0.001 v 0.006 l 0.001,0.005 v 0.005 l 10e-4,0.007 0.002,0.005 v 0.005 l 10e-4,0.005 v 0.007 l 0.002,0.005 v 0.007 l 10e-4,0.007 0.002,0.01 v 0.007 l 0.002,0.008 0.003,0.006 v 0.007 0.009 l 0.003,0.006 0.002,0.007 0.001,0.006 0.002,0.008 0.002,0.007 0.003,0.007 0.002,0.007 v 0.007 l 0.001,0.007 0.002,0.006 0.002,0.007 0.002,0.007 10e-4,0.007 0.002,0.006 0.002,0.008 0.001,0.005 0.002,0.007 0.004,0.006 10e-4,0.007 0.003,0.006 0.001,0.005 0.003,0.006 0.003,0.006 0.001,0.007 0.003,0.005 10e-4,0.006 0.004,0.005 0.001,0.007 0.002,0.005 h 10e-4 l 0.001,0.005 0.003,0.007 0.002,0.005 0.002,0.005 0.002,0.005 0.002,0.006 0.004,0.006 0.003,0.005 0.002,0.004 0.001,0.005 0.004,0.007 0.002,0.004 0.002,0.005 0.004,0.004 0.001,0.005 0.004,0.006 0.003,0.004 0.002,0.006 0.003,0.004 0.002,0.005 0.004,0.005 0.002,0.004 0.002,0.005 0.004,0.005 0.004,0.003 0.002,0.004 0.004,0.007 h 10e-4 l 0.002,0.004 0.004,0.004 0.002,0.005 0.003,0.004 0.002,0.003 h 0.002 l 0.003,0.004 0.002,0.004 0.003,0.004 0.003,0.005 0.004,0.004 0.003,0.003 0.004,0.005 0.003,0.003 0.005,0.004 0.002,0.005 0.004,0.003 0.004,0.003 0.002,0.004 0.004,0.002 0.004,0.005 0.003,0.004 0.004,0.003 0.004,0.004 0.004,0.003 0.003,0.003 0.005,0.003 0.003,0.004 0.004,0.003 0.003,0.003 0.003,0.002 0.005,0.003 0.005,0.003 0.004,0.004 0.004,0.003 0.005,0.003 0.005,0.003 0.003,0.003 0.005,0.003 0.004,0.002 0.004,0.005 0.004,0.002 0.005,0.003 0.004,10e-4 0.004,0.004 0.005,0.001 0.006,0.002 0.003,0.003 0.005,0.002 0.004,0.002 0.005,0.002 0.005,0.002 0.005,0.003 0.004,0.002 h 10e-4 l 0.004,0.002 0.005,0.002 0.004,0.002 0.005,0.002 0.006,0.002 0.004,0.002 0.006,0.003 0.005,10e-4 0.005,0.002 0.005,10e-4 0.005,0.002 0.006,10e-4 0.005,0.002 0.005,0.002 0.004,0.001 0.006,0.003 0.006,10e-4 h 10e-4 l 0.004,0.001 h 0.002 l 0.003,0.001 0.005,0.002 h 0.007 l 0.005,0.002 h 0.002 l 0.004,0.001 0.005,0.002 0.005,0.001 0.007,0.001 0.004,0.002 0.007,0.001 0.006,10e-4 0.004,0.002 h 0.007 l 0.007,10e-4 0.005,0.001 0.006,0.001 0.005,10e-4 0.007,0.002 h 0.007 0.007 l 0.005,0.002 h 0.006 l 0.006,0.001 0.007,10e-4 0.006,0.001 h 0.006 l 0.006,0.001 0.007,10e-4 h 0.005 0.008 l 0.006,0.001 0.006,0.001 h 0.007 l 0.005,0.002 h 0.006 0.008 l 0.006,0.001 h 0.008 0.006 l 0.008,0.002 h 0.007 0.002 0.005 l 0.007,0.001 h 0.009 0.006 0.007 0.684 0.007 0.008 0.006 0.001 l 0.008,10e-4 h 0.005 0.008 10e-4 0.008 0.007 0.007 0.009 0.006 c -0.449,-0.169 -0.603,-0.391 -0.653,-0.77 -0.03,-0.226 -0.022,-0.512 -0.022,-0.876 z"
   id="path100" />
				<path
   fill="#6b3428"
   d="m 94.194,112.646 h 1.041 c 0.123,-0.005 0.227,-0.012 0.313,-0.027 0.124,-0.021 0.223,-0.055 0.29,-0.103 0.067,-0.047 0.113,-0.113 0.141,-0.194 0.028,-0.081 0.039,-0.073 0.037,-0.194 v -0.005 h -0.742 c -0.012,0 -0.023,10e-4 -0.037,0.002 l -0.002,-0.002 h -1.041 v -0.396 c -0.006,-0.165 -0.017,-0.305 -0.035,-0.422 -0.031,-0.166 -0.076,-0.298 -0.141,-0.389 -0.063,-0.093 -0.151,-0.155 -0.262,-0.19 -0.109,-0.036 -0.247,-0.051 -0.414,-0.05 h -0.007 v 0.998 c 0.002,0.016 0.004,0.033 0.004,0.05 l -0.004,0.003 v 0.396 c -0.215,0.066 -0.432,0.07 -0.517,0.324 -0.024,0.083 -0.038,0.072 -0.036,0.195 v 0.006 h 0.346 c 0.012,-0.002 0.025,-0.002 0.037,-0.003 l 0.002,0.003 h 0.168 v 0.368 0.007 0.046 3.081 0.007 h 0.001 v 0.008 0.008 l 0.001,0.007 v 0.007 0.006 0.008 0.007 l 0.002,0.007 v 0.008 0.007 0.008 l 0.002,0.007 v 0.007 h 0.001 v 0.006 0.006 0.008 0.007 l 0.001,0.007 v 0.007 0.007 0.006 0.007 l 0.003,0.007 v 0.007 0.007 0.007 0.006 l 0.002,0.008 0.001,0.006 v 0.006 l 10e-4,0.006 v 0.006 l 0.001,0.007 v 0.005 l 0.002,0.007 v 0.006 0.007 0.006 l 0.001,0.006 0.001,0.005 v 0.005 0.007 l 0.002,0.005 0.001,0.007 v 0.006 l 10e-4,0.006 v 0.006 0.007 0.006 l 0.004,0.003 v 0.007 0.006 0.005 l 0.002,0.006 h 0.001 v 0.006 l 0.001,0.005 v 0.005 l 10e-4,0.007 0.002,0.005 v 0.005 l 10e-4,0.005 v 0.007 l 0.002,0.005 v 0.007 l 10e-4,0.007 0.002,0.01 v 0.007 l 0.002,0.008 0.003,0.006 v 0.007 0.009 l 0.003,0.006 0.002,0.007 0.001,0.006 0.002,0.008 0.002,0.007 0.003,0.007 0.002,0.007 v 0.007 l 0.001,0.007 0.002,0.006 0.002,0.007 0.002,0.007 10e-4,0.007 0.002,0.006 0.002,0.008 0.001,0.005 0.002,0.007 0.004,0.006 10e-4,0.007 0.003,0.006 0.001,0.005 0.003,0.006 0.003,0.006 0.001,0.007 0.003,0.005 10e-4,0.006 0.004,0.005 0.001,0.007 0.002,0.005 h 10e-4 l 0.001,0.005 0.003,0.007 0.002,0.005 0.002,0.005 0.002,0.005 0.002,0.006 0.004,0.006 0.003,0.005 0.002,0.004 0.001,0.005 0.004,0.007 0.002,0.004 0.002,0.005 0.004,0.004 0.001,0.005 0.004,0.006 0.003,0.004 0.002,0.006 0.003,0.004 0.002,0.005 0.004,0.005 0.002,0.004 0.002,0.005 0.004,0.005 0.004,0.003 0.002,0.004 0.004,0.007 h 10e-4 l 0.002,0.004 0.004,0.004 0.002,0.005 0.003,0.004 0.002,0.003 h 0.002 l 0.003,0.004 0.002,0.004 0.003,0.004 0.003,0.005 0.004,0.004 0.003,0.003 0.004,0.005 0.003,0.003 0.005,0.004 0.002,0.005 0.004,0.003 0.004,0.003 0.002,0.004 0.004,0.002 0.004,0.005 0.003,0.004 0.004,0.003 0.004,0.004 0.004,0.003 0.003,0.003 0.005,0.003 0.003,0.004 0.004,0.003 0.003,0.003 0.003,0.002 0.005,0.003 0.005,0.003 0.004,0.004 0.004,0.003 0.005,0.003 0.005,0.003 0.003,0.003 0.005,0.003 0.004,0.002 0.004,0.005 0.004,0.002 0.005,0.003 0.004,10e-4 0.004,0.004 0.005,0.001 0.006,0.002 0.003,0.003 0.005,0.002 0.004,0.002 0.005,0.002 0.005,0.002 0.005,0.003 0.004,0.002 h 10e-4 l 0.004,0.002 0.005,0.002 0.004,0.002 0.005,0.002 0.006,0.002 0.004,0.002 0.006,0.003 0.005,10e-4 0.005,0.002 0.005,10e-4 0.005,0.002 0.006,10e-4 0.005,0.002 0.005,0.002 0.004,0.001 0.006,0.003 0.006,10e-4 h 10e-4 l 0.004,0.001 h 0.002 l 0.003,0.001 0.005,0.002 h 0.007 l 0.005,0.002 h 0.002 l 0.004,0.001 0.005,0.002 0.005,0.001 0.007,0.001 0.004,0.002 0.007,0.001 0.006,10e-4 0.004,0.002 h 0.007 l 0.007,10e-4 0.005,0.001 0.006,0.001 0.005,10e-4 0.007,0.002 h 0.007 0.007 l 0.005,0.002 h 0.006 l 0.006,0.001 0.007,10e-4 0.006,0.001 h 0.006 l 0.006,0.001 0.007,10e-4 h 0.005 0.008 l 0.006,0.001 0.006,0.001 h 0.007 l 0.005,0.002 h 0.006 0.008 l 0.006,0.001 h 0.008 0.006 l 0.008,0.002 h 0.007 0.002 0.005 l 0.007,0.001 h 0.009 0.006 0.007 0.684 0.007 0.008 0.006 0.001 l 0.008,10e-4 h 0.005 0.008 10e-4 0.008 0.007 0.007 0.009 0.006 c -0.449,-0.169 -0.603,-0.391 -0.653,-0.77 -0.03,-0.226 -0.022,-0.512 -0.022,-0.876 z"
   id="path102" />
				<path
   fill="#6b3428"
   d="m 97.014,117.144 c 0.212,0.056 0.43,0.082 0.655,0.081 0.21,-0.002 0.404,-0.028 0.575,-0.077 0.174,-0.051 0.326,-0.116 0.461,-0.195 0.133,-0.081 0.242,-0.164 0.33,-0.254 h 0.053 c 0.047,0.126 0.137,0.224 0.268,0.297 0.048,0.032 0.102,0.057 0.164,0.074 0.124,0.034 0.276,0.051 0.46,0.049 v -1.151 -0.001 -0.298 -0.385 -0.097 -1.161 -0.114 -0.008 -0.259 h -0.011 c -0.019,-0.262 -0.067,-0.485 -0.143,-0.672 -0.1,-0.248 -0.234,-0.439 -0.404,-0.578 -0.169,-0.14 -0.361,-0.238 -0.573,-0.293 -0.211,-0.057 -0.43,-0.083 -0.655,-0.082 -0.21,0.002 -0.403,0.028 -0.575,0.078 -0.174,0.05 -0.326,0.114 -0.46,0.193 -0.126,0.076 -0.229,0.156 -0.315,0.238 v 0.504 c 0.084,-0.094 0.178,-0.18 0.281,-0.259 0.108,-0.083 0.227,-0.153 0.355,-0.202 0.126,-0.05 0.259,-0.078 0.4,-0.08 0.147,-0.001 0.287,0.023 0.424,0.074 0.139,0.051 0.263,0.133 0.372,0.242 0.109,0.11 0.196,0.257 0.261,0.439 0.064,0.179 0.097,0.402 0.099,0.664 v 0.534 c -0.087,-0.089 -0.197,-0.174 -0.33,-0.254 -0.135,-0.079 -0.288,-0.144 -0.461,-0.194 -0.171,-0.049 -0.365,-0.076 -0.575,-0.077 -0.225,-0.003 -0.443,0.023 -0.655,0.08 -0.211,0.056 -0.402,0.155 -0.572,0.294 -0.789,0.643 -0.791,1.91 0,2.554 0.168,0.142 0.36,0.241 0.571,0.296 m 0.547,-2.675 c 0.136,-0.05 0.278,-0.075 0.423,-0.074 0.141,0.003 0.274,0.028 0.402,0.08 0.127,0.05 0.245,0.118 0.353,0.202 0.111,0.085 0.208,0.175 0.296,0.275 v 0.718 0.19 0.052 0.283 c -0.087,0.101 -0.185,0.192 -0.296,0.276 -0.108,0.084 -0.227,0.153 -0.353,0.202 -0.128,0.051 -0.261,0.078 -0.402,0.079 -0.145,0.001 -0.287,-0.023 -0.423,-0.074 -1.036,-0.378 -1.036,-1.829 0,-2.209"
   id="path104" />
				<path
   fill="#6b3428"
   d="m 97.014,117.144 c 0.212,0.056 0.43,0.082 0.655,0.081 0.21,-0.002 0.404,-0.028 0.575,-0.077 0.174,-0.051 0.326,-0.116 0.461,-0.195 0.133,-0.081 0.242,-0.164 0.33,-0.254 h 0.053 c 0.047,0.126 0.137,0.224 0.268,0.297 0.048,0.032 0.102,0.057 0.164,0.074 0.124,0.034 0.276,0.051 0.46,0.049 v -1.151 -0.001 -0.298 -0.385 -0.097 -1.161 -0.114 -0.008 -0.259 h -0.011 c -0.019,-0.262 -0.067,-0.485 -0.143,-0.672 -0.1,-0.248 -0.234,-0.439 -0.404,-0.578 -0.169,-0.14 -0.361,-0.238 -0.573,-0.293 -0.211,-0.057 -0.43,-0.083 -0.655,-0.082 -0.21,0.002 -0.403,0.028 -0.575,0.078 -0.174,0.05 -0.326,0.114 -0.46,0.193 -0.126,0.076 -0.229,0.156 -0.315,0.238 v 0.504 c 0.084,-0.094 0.178,-0.18 0.281,-0.259 0.108,-0.083 0.227,-0.153 0.355,-0.202 0.126,-0.05 0.259,-0.078 0.4,-0.08 0.147,-0.001 0.287,0.023 0.424,0.074 0.139,0.051 0.263,0.133 0.372,0.242 0.109,0.11 0.196,0.257 0.261,0.439 0.064,0.179 0.097,0.402 0.099,0.664 v 0.534 c -0.087,-0.089 -0.197,-0.174 -0.33,-0.254 -0.135,-0.079 -0.288,-0.144 -0.461,-0.194 -0.171,-0.049 -0.365,-0.076 -0.575,-0.077 -0.225,-0.003 -0.443,0.023 -0.655,0.08 -0.211,0.056 -0.402,0.155 -0.572,0.294 -0.789,0.643 -0.791,1.91 0,2.554 0.168,0.142 0.36,0.241 0.571,0.296 m 0.547,-2.675 c 0.136,-0.05 0.278,-0.075 0.423,-0.074 0.141,0.003 0.274,0.028 0.402,0.08 0.127,0.05 0.245,0.118 0.353,0.202 0.111,0.085 0.208,0.175 0.296,0.275 v 0.718 0.19 0.052 0.283 c -0.087,0.101 -0.185,0.192 -0.296,0.276 -0.108,0.084 -0.227,0.153 -0.353,0.202 -0.128,0.051 -0.261,0.078 -0.402,0.079 -0.145,0.001 -0.287,-0.023 -0.423,-0.074 -1.036,-0.378 -1.036,-1.829 0,-2.209"
   id="path106" />
				<path
   fill="#6b3428"
   d="m 107.112,112.316 c -0.063,-0.094 -0.15,-0.154 -0.259,-0.19 -0.112,-0.036 -0.251,-0.052 -0.418,-0.05 h -0.006 v 0.997 c 0.001,0.017 0.003,0.033 0.003,0.051 l -0.003,0.004 v 2.966 c 0.004,0.164 0.018,0.304 0.035,0.42 0.031,0.169 0.077,0.301 0.139,0.391 0.064,0.093 0.153,0.155 0.263,0.191 0.11,0.035 0.247,0.05 0.414,0.049 h 0.007 v -0.998 c -0.001,-0.015 -0.003,-0.032 -0.004,-0.049 l 0.004,-0.003 v -2.966 c -0.005,-0.165 -0.017,-0.305 -0.037,-0.424 -0.026,-0.168 -0.073,-0.299 -0.138,-0.389"
   id="path108" />
				<path
   fill="#6b3428"
   d="m 107.112,112.316 c -0.063,-0.094 -0.15,-0.154 -0.259,-0.19 -0.112,-0.036 -0.251,-0.052 -0.418,-0.05 h -0.006 v 0.997 c 0.001,0.017 0.003,0.033 0.003,0.051 l -0.003,0.004 v 2.966 c 0.004,0.164 0.018,0.304 0.035,0.42 0.031,0.169 0.077,0.301 0.139,0.391 0.064,0.093 0.153,0.155 0.263,0.191 0.11,0.035 0.247,0.05 0.414,0.049 h 0.007 v -0.998 c -0.001,-0.015 -0.003,-0.032 -0.004,-0.049 l 0.004,-0.003 v -2.966 c -0.005,-0.165 -0.017,-0.305 -0.037,-0.424 -0.026,-0.168 -0.073,-0.299 -0.138,-0.389"
   id="path110" />
				<path
   fill="#6b3428"
   d="m 106.448,111.627 c 0.091,0.061 0.188,0.092 0.297,0.095 0.148,-0.003 0.266,-0.045 0.351,-0.126 0.086,-0.084 0.129,-0.199 0.131,-0.35 -0.003,-0.12 -0.027,-0.231 -0.081,-0.333 -0.052,-0.1 -0.122,-0.183 -0.21,-0.244 -0.089,-0.062 -0.187,-0.093 -0.297,-0.095 -0.15,0.002 -0.267,0.044 -0.353,0.125 -0.086,0.084 -0.128,0.199 -0.13,0.349 0.003,0.12 0.029,0.232 0.08,0.333 0.055,0.101 0.125,0.182 0.212,0.246"
   id="path112" />
				
				<path
   fill="#6b3428"
   d="m 85.392,112.338 c -0.262,0.143 -0.488,0.332 -0.677,0.562 -0.198,0.242 -0.345,0.518 -0.451,0.812 -0.112,0.314 -0.165,0.639 -0.165,0.972 0,0.307 0.041,0.611 0.129,0.905 0.079,0.277 0.199,0.539 0.37,0.773 0.163,0.226 0.366,0.408 0.606,0.543 0.256,0.145 0.534,0.206 0.824,0.206 0.294,0 0.573,-0.073 0.831,-0.213 0.263,-0.142 0.491,-0.33 0.681,-0.56 0.202,-0.24 0.353,-0.516 0.461,-0.811 0.114,-0.313 0.169,-0.639 0.169,-0.971 0,-0.302 -0.042,-0.6 -0.121,-0.891 -0.079,-0.278 -0.198,-0.54 -0.365,-0.778 -0.161,-0.227 -0.363,-0.412 -0.605,-0.551 -0.258,-0.15 -0.544,-0.211 -0.84,-0.211 -0.3,0.003 -0.582,0.073 -0.847,0.213 m 1.396,0.671 c 0.1,0.089 0.184,0.192 0.256,0.304 0.078,0.122 0.142,0.251 0.195,0.387 0.053,0.145 0.094,0.294 0.122,0.446 0.03,0.158 0.044,0.316 0.044,0.476 0,0.274 -0.025,0.554 -0.097,0.817 -0.059,0.204 -0.141,0.408 -0.269,0.579 -0.106,0.141 -0.237,0.261 -0.397,0.339 -0.16,0.079 -0.328,0.114 -0.507,0.114 -0.171,0 -0.329,-0.05 -0.476,-0.143 -0.161,-0.105 -0.296,-0.244 -0.405,-0.404 -0.127,-0.185 -0.22,-0.394 -0.286,-0.608 -0.071,-0.239 -0.105,-0.487 -0.105,-0.739 0,-0.258 0.026,-0.521 0.091,-0.772 0.054,-0.205 0.134,-0.404 0.256,-0.578 0.103,-0.15 0.233,-0.271 0.395,-0.358 0.165,-0.089 0.345,-0.125 0.53,-0.125 0.12,0 0.237,0.023 0.346,0.07 0.114,0.049 0.216,0.116 0.307,0.195"
   id="path116" />
				<path
   fill="#6b3428"
   d="m 85.392,112.338 c -0.262,0.143 -0.488,0.332 -0.677,0.562 -0.198,0.242 -0.345,0.518 -0.451,0.812 -0.112,0.314 -0.165,0.639 -0.165,0.972 0,0.307 0.041,0.611 0.129,0.905 0.079,0.277 0.199,0.539 0.37,0.773 0.163,0.226 0.366,0.408 0.606,0.543 0.256,0.145 0.534,0.206 0.824,0.206 0.294,0 0.573,-0.073 0.831,-0.213 0.263,-0.142 0.491,-0.33 0.681,-0.56 0.202,-0.24 0.353,-0.516 0.461,-0.811 0.114,-0.313 0.169,-0.639 0.169,-0.971 0,-0.302 -0.042,-0.6 -0.121,-0.891 -0.079,-0.278 -0.198,-0.54 -0.365,-0.778 -0.161,-0.227 -0.363,-0.412 -0.605,-0.551 -0.258,-0.15 -0.544,-0.211 -0.84,-0.211 -0.3,0.003 -0.582,0.073 -0.847,0.213 m 1.396,0.671 c 0.1,0.089 0.184,0.192 0.256,0.304 0.078,0.122 0.142,0.251 0.195,0.387 0.053,0.145 0.094,0.294 0.122,0.446 0.03,0.158 0.044,0.316 0.044,0.476 0,0.274 -0.025,0.554 -0.097,0.817 -0.059,0.204 -0.141,0.408 -0.269,0.579 -0.106,0.141 -0.237,0.261 -0.397,0.339 -0.16,0.079 -0.328,0.114 -0.507,0.114 -0.171,0 -0.329,-0.05 -0.476,-0.143 -0.161,-0.105 -0.296,-0.244 -0.405,-0.404 -0.127,-0.185 -0.22,-0.394 -0.286,-0.608 -0.071,-0.239 -0.105,-0.487 -0.105,-0.739 0,-0.258 0.026,-0.521 0.091,-0.772 0.054,-0.205 0.134,-0.404 0.256,-0.578 0.103,-0.15 0.233,-0.271 0.395,-0.358 0.165,-0.089 0.345,-0.125 0.53,-0.125 0.12,0 0.237,0.023 0.346,0.07 0.114,0.049 0.216,0.116 0.307,0.195"
   id="path118" />
				<path
   fill="#6b3428"
   d="m 80.413,110.524 h -1.472 v 1.274 c 0.002,0.48 0.002,0.963 0.004,1.444 l -0.004,10e-4 v 0.582 c 0.004,-0.002 0.01,-0.005 0.015,-0.008 0.002,0.547 -0.006,1.227 -0.005,1.775 0.003,2.202 4.574,2.065 4.502,-0.281 0.005,-0.719 -0.379,-1.236 -0.967,-1.492 -0.233,-0.101 -0.467,-0.141 -0.715,-0.193 l -0.331,0.097 c 0.896,0.099 1.306,0.833 1.253,1.55 -0.048,0.643 -0.484,1.273 -1.521,1.359 -0.678,0.057 -1.337,-0.341 -1.332,-1.129 10e-4,-0.615 0.01,-1.212 -0.007,-1.827 0.226,0.021 0.437,0.077 0.658,0.077 1.167,-0.005 2.191,-0.357 2.247,-1.65 0.033,-0.756 -0.569,-1.49 -1.768,-1.559 -0.197,-0.015 -0.382,-0.022 -0.557,-0.02 m 1.638,1.648 c -0.077,1.21 -1.606,1.238 -2.223,1.07 v -0.04 -0.652 -1.582 c 0.069,-0.016 0.144,-0.033 0.226,-0.047 0.819,-0.15 2.076,0.034 1.997,1.251"
   id="path120" />
				<path
   fill="#6b3428"
   d="m 80.413,110.524 h -1.472 v 1.274 c 0.002,0.48 0.002,0.963 0.004,1.444 l -0.004,10e-4 v 0.582 c 0.004,-0.002 0.01,-0.005 0.015,-0.008 0.002,0.547 -0.006,1.227 -0.005,1.775 0.003,2.202 4.574,2.065 4.502,-0.281 0.005,-0.719 -0.379,-1.236 -0.967,-1.492 -0.233,-0.101 -0.467,-0.141 -0.715,-0.193 l -0.331,0.097 c 0.896,0.099 1.306,0.833 1.253,1.55 -0.048,0.643 -0.484,1.273 -1.521,1.359 -0.678,0.057 -1.337,-0.341 -1.332,-1.129 10e-4,-0.615 0.01,-1.212 -0.007,-1.827 0.226,0.021 0.437,0.077 0.658,0.077 1.167,-0.005 2.191,-0.357 2.247,-1.65 0.033,-0.756 -0.569,-1.49 -1.768,-1.559 -0.197,-0.015 -0.382,-0.022 -0.557,-0.02 m 1.638,1.648 c -0.077,1.21 -1.606,1.238 -2.223,1.07 v -0.04 -0.652 -1.582 c 0.069,-0.016 0.144,-0.033 0.226,-0.047 0.819,-0.15 2.076,0.034 1.997,1.251"
   id="path122" />
				<path
   fill="#6b3428"
   d="m 90.427,116.67 c -0.135,0.044 -0.273,0.064 -0.415,0.063 -0.139,0 -0.271,-0.023 -0.397,-0.066 -0.124,-0.043 -0.244,-0.102 -0.355,-0.174 -0.105,-0.065 -0.199,-0.14 -0.284,-0.219 l 0.014,0.428 c 0.085,0.072 0.194,0.139 0.32,0.204 0.133,0.066 0.284,0.122 0.457,0.165 0.171,0.041 0.362,0.065 0.569,0.066 0.222,0.001 0.437,-0.021 0.644,-0.068 0.206,-0.048 0.39,-0.131 0.553,-0.251 0.76,-0.55 0.723,-1.628 -0.074,-2.178 -0.63,-0.438 -1.693,-0.194 -1.707,-1.206 -0.005,-0.363 0.223,-0.724 0.692,-0.874 0.248,-0.081 0.524,-0.079 0.77,0.004 0.172,0.06 0.371,0.166 0.506,0.293 l 0.193,-0.222 c -0.596,-0.495 -1.234,-0.628 -1.992,-0.451 -0.194,0.045 -0.368,0.124 -0.522,0.237 -0.719,0.52 -0.684,1.541 0.069,2.061 0.482,0.335 1.096,0.211 1.48,0.691 0.163,0.203 0.232,0.45 0.206,0.685 -0.039,0.342 -0.28,0.668 -0.727,0.812"
   id="path124" />
				<path
   fill="#6b3428"
   d="m 90.427,116.67 c -0.135,0.044 -0.273,0.064 -0.415,0.063 -0.139,0 -0.271,-0.023 -0.397,-0.066 -0.124,-0.043 -0.244,-0.102 -0.355,-0.174 -0.105,-0.065 -0.199,-0.14 -0.284,-0.219 l 0.014,0.428 c 0.085,0.072 0.194,0.139 0.32,0.204 0.133,0.066 0.284,0.122 0.457,0.165 0.171,0.041 0.362,0.065 0.569,0.066 0.222,0.001 0.437,-0.021 0.644,-0.068 0.206,-0.048 0.39,-0.131 0.553,-0.251 0.76,-0.55 0.723,-1.628 -0.074,-2.178 -0.63,-0.438 -1.693,-0.194 -1.707,-1.206 -0.005,-0.363 0.223,-0.724 0.692,-0.874 0.248,-0.081 0.524,-0.079 0.77,0.004 0.172,0.06 0.371,0.166 0.506,0.293 l 0.193,-0.222 c -0.596,-0.495 -1.234,-0.628 -1.992,-0.451 -0.194,0.045 -0.368,0.124 -0.522,0.237 -0.719,0.52 -0.684,1.541 0.069,2.061 0.482,0.335 1.096,0.211 1.48,0.691 0.163,0.203 0.232,0.45 0.206,0.685 -0.039,0.342 -0.28,0.668 -0.727,0.812"
   id="path126" />
			</g>
		</g>
	</g>
</g>
<g
   id="square_x5F_circle">
</g>
<g
   id="heart_1_">
</g>
<g
   id="stroller">
</g>
<g
   id="babyshirt">
</g>
<g
   id="circle">
</g>
<g
   id="heart">
</g>
</svg>
