<?xml version="1.0" encoding="utf-8"?>
<!-- Generator: Adobe Illustrator 23.0.1, SVG Export Plug-In . SVG Version: 6.00 Build 0)  -->
<svg version="1.1" id="Layer_1" xmlns="http://www.w3.org/2000/svg" xmlns:xlink="http://www.w3.org/1999/xlink" x="0px" y="0px"
	 viewBox="0 0 125.15 125.15" enable-background="new 0 0 125.15 125.15" xml:space="preserve">
<g id="rectangle_1_">
</g>
<g id="square_1_">
</g>
<g id="square_x5F_circle_1_">
</g>
<g id="babyshirt_1_">
</g>
<g id="oval">
</g>
<g id="circle_1_">
</g>
<g id="rectangle">
</g>
<g id="square">
	<g id="g_x5F_chocolate_5_">
		<g id="chocolate_5_">
			<polygon id="XMLID_1040_" fill="#894D3F" points="0.425,0.425 0.425,125.15 3.357,122.113 62.735,62.735 3.357,3.357 			"/>
			<polygon id="XMLID_1038_" fill="#985647" points="125.15,0.425 0.425,0.425 3.357,3.357 62.735,62.735 122.113,3.357 			"/>
			<polygon id="XMLID_1036_" fill="#64392F" points="0.425,125.15 125.15,125.15 122.113,122.113 62.735,62.735 3.357,122.113 			
				"/>
			<polygon id="XMLID_1035_" fill="#724237" points="62.735,62.735 122.113,122.113 125.15,125.15 125.15,0.425 122.113,3.357 			
				"/>
			<rect id="XMLID_1032_" x="6.042" y="6.042" fill="#A4644C" width="113.386" height="113.386"/>
			<path fill="#66392F" d="M22.721,108.089c-2.895,0-5.34-2.403-5.34-5.247V22.721c0-2.894,2.354-5.247,5.247-5.247h80.122
				c2.894,0,5.248,2.354,5.248,5.247v80.122c0,2.893-2.354,5.247-5.248,5.247H22.721z"/>
			<g>
				<path id="coin_6_" fill="#FFFFFF" d="M18.089,102.842V22.721c0-2.501,2.038-4.539,4.539-4.539h80.121
					c2.501,0,4.539,2.038,4.539,4.539v80.121c0,2.501-2.038,4.539-4.539,4.539H22.721C20.22,107.381,18.089,105.343,18.089,102.842z
					"/>
			</g>
			<circle id="XMLID_678_" fill="#EC1C24" cx="0.425" cy="0.425" r="0.425"/>
			<g>
				<path fill="#6B3428" d="M104.319,115.899c0,0.261,0.015,0.476,0.045,0.641c0.034,0.165,0.084,0.295,0.154,0.384
					c0.07,0.092,0.168,0.151,0.288,0.188c0.123,0.033,0.275,0.051,0.46,0.048v-1.151c-0.001-0.035-0.001-0.072,0-0.109v-0.191
					v-1.757v-0.006v-0.259h-0.01c-0.02-0.262-0.068-0.486-0.144-0.674c-0.101-0.246-0.236-0.44-0.406-0.576
					c-0.168-0.14-0.361-0.239-0.571-0.295c-0.211-0.056-0.43-0.083-0.656-0.081c-0.21,0.001-0.402,0.029-0.576,0.076
					c-0.174,0.052-0.326,0.117-0.459,0.196c-0.132,0.08-0.244,0.163-0.33,0.253h-0.053c-0.05-0.132-0.149-0.234-0.289-0.309
					c-0.142-0.073-0.342-0.11-0.605-0.111v1.159c0.001,0.031,0.001,0.065,0,0.098v2.5c0.001,0.25,0.017,0.455,0.044,0.616
					c0.033,0.165,0.082,0.295,0.156,0.384c0.069,0.092,0.167,0.151,0.287,0.188c0.124,0.033,0.276,0.051,0.46,0.048v-1.157v-0.103
					v-0.191v-2.021v-0.066v-0.531c0.086-0.099,0.185-0.19,0.296-0.275c0.108-0.084,0.228-0.153,0.353-0.202
					c0.129-0.052,0.262-0.077,0.403-0.08c0.145-0.002,0.287,0.022,0.423,0.074c0.139,0.05,0.26,0.132,0.371,0.242
					c0.109,0.11,0.195,0.258,0.26,0.437c0.064,0.182,0.097,0.403,0.098,0.665v1.757L104.319,115.899L104.319,115.899z"/>
				<path fill="#6B3428" d="M104.319,115.899c0,0.261,0.015,0.476,0.045,0.641c0.034,0.165,0.084,0.295,0.154,0.384
					c0.07,0.092,0.168,0.151,0.288,0.188c0.123,0.033,0.275,0.051,0.46,0.048v-1.151c-0.001-0.035-0.001-0.072,0-0.109v-0.191
					v-1.757v-0.006v-0.259h-0.01c-0.02-0.262-0.068-0.486-0.144-0.674c-0.101-0.246-0.236-0.44-0.406-0.576
					c-0.168-0.14-0.361-0.239-0.571-0.295c-0.211-0.056-0.43-0.083-0.656-0.081c-0.21,0.001-0.402,0.029-0.576,0.076
					c-0.174,0.052-0.326,0.117-0.459,0.196c-0.132,0.08-0.244,0.163-0.33,0.253h-0.053c-0.05-0.132-0.149-0.234-0.289-0.309
					c-0.142-0.073-0.342-0.11-0.605-0.111v1.159c0.001,0.031,0.001,0.065,0,0.098v2.5c0.001,0.25,0.017,0.455,0.044,0.616
					c0.033,0.165,0.082,0.295,0.156,0.384c0.069,0.092,0.167,0.151,0.287,0.188c0.124,0.033,0.276,0.051,0.46,0.048v-1.157v-0.103
					v-0.191v-2.021v-0.066v-0.531c0.086-0.099,0.185-0.19,0.296-0.275c0.108-0.084,0.228-0.153,0.353-0.202
					c0.129-0.052,0.262-0.077,0.403-0.08c0.145-0.002,0.287,0.022,0.423,0.074c0.139,0.05,0.26,0.132,0.371,0.242
					c0.109,0.11,0.195,0.258,0.26,0.437c0.064,0.182,0.097,0.403,0.098,0.665v1.757L104.319,115.899L104.319,115.899z"/>
				<path fill="#6B3428" d="M94.194,112.646h1.041c0.123-0.005,0.227-0.012,0.313-0.027c0.124-0.021,0.223-0.055,0.29-0.103
					c0.067-0.047,0.113-0.113,0.141-0.194c0.028-0.081,0.039-0.073,0.037-0.194v-0.005h-0.742c-0.012,0-0.023,0.001-0.037,0.002
					l-0.002-0.002h-1.041v-0.396c-0.006-0.165-0.017-0.305-0.035-0.422c-0.031-0.166-0.076-0.298-0.141-0.389
					c-0.063-0.093-0.151-0.155-0.262-0.19c-0.109-0.036-0.247-0.051-0.414-0.05h-0.007v0.998c0.002,0.016,0.004,0.033,0.004,0.05
					l-0.004,0.003v0.396c-0.215,0.066-0.432,0.07-0.517,0.324c-0.024,0.083-0.038,0.072-0.036,0.195v0.006h0.346
					c0.012-0.002,0.025-0.002,0.037-0.003l0.002,0.003h0.168v0.368v0.007v0.046v3.081v0.007h0.001v0.008v0.008l0.001,0.007v0.007
					v0.006v0.008v0.007l0.002,0.007v0.008v0.007v0.008l0.002,0.007v0.007h0.001v0.006v0.006v0.008v0.007l0.001,0.007v0.007v0.007
					v0.006v0.007l0.003,0.007v0.007v0.007v0.007v0.006l0.002,0.008l0.001,0.006v0.006l0.001,0.006v0.006l0.001,0.007v0.005
					l0.002,0.007v0.006v0.007v0.006l0.001,0.006l0.001,0.005v0.005v0.007l0.002,0.005l0.001,0.007v0.006l0.001,0.006v0.006v0.007
					v0.006l0.004,0.003v0.007v0.006v0.005l0.002,0.006h0.001v0.006l0.001,0.005v0.005l0.001,0.007l0.002,0.005v0.005l0.001,0.005
					v0.007l0.002,0.005v0.007l0.001,0.007l0.002,0.01v0.007l0.002,0.008l0.003,0.006l0,0.007v0.009l0.003,0.006l0.002,0.007
					l0.001,0.006l0.002,0.008l0.002,0.007l0.003,0.007l0.002,0.007l0,0.007l0.001,0.007l0.002,0.006l0.002,0.007l0.002,0.007
					l0.001,0.007l0.002,0.006l0.002,0.008l0.001,0.005l0.002,0.007l0.004,0.006l0.001,0.007l0.003,0.006l0.001,0.005l0.003,0.006
					l0.003,0.006l0.001,0.007l0.003,0.005l0.001,0.006l0.004,0.005l0.001,0.007l0.002,0.005h0.001l0.001,0.005l0.003,0.007
					l0.002,0.005l0.002,0.005l0.002,0.005l0.002,0.006l0.004,0.006l0.003,0.005l0.002,0.004l0.001,0.005l0.004,0.007l0.002,0.004
					l0.002,0.005l0.004,0.004l0.001,0.005l0.004,0.006l0.003,0.004l0.002,0.006l0.003,0.004l0.002,0.005l0.004,0.005l0.002,0.004
					l0.002,0.005l0.004,0.005l0.004,0.003l0.002,0.004l0.004,0.007h0.001l0.002,0.004l0.004,0.004l0.002,0.005l0.003,0.004
					l0.002,0.003h0.002l0.003,0.004l0.002,0.004l0.003,0.004l0.003,0.005l0.004,0.004l0.003,0.003l0.004,0.005l0.003,0.003
					l0.005,0.004l0.002,0.005l0.004,0.003l0.004,0.003l0.002,0.004l0.004,0.002l0.004,0.005l0.003,0.004l0.004,0.003l0.004,0.004
					l0.004,0.003l0.003,0.003l0.005,0.003l0.003,0.004l0.004,0.003l0.003,0.003l0.003,0.002l0.005,0.003l0.005,0.003l0.004,0.004
					l0.004,0.003l0.005,0.003l0.005,0.003l0.003,0.003l0.005,0.003l0.004,0.002l0.004,0.005l0.004,0.002l0.005,0.003l0.004,0.001
					l0.004,0.004l0.005,0.001l0.006,0.002l0.003,0.003l0.005,0.002l0.004,0.002l0.005,0.002l0.005,0.002l0.005,0.003l0.004,0.002
					h0.001l0.004,0.002l0.005,0.002l0.004,0.002l0.005,0.002l0.006,0.002l0.004,0.002l0.006,0.003l0.005,0.001l0.005,0.002
					l0.005,0.001l0.005,0.002l0.006,0.001l0.005,0.002l0.005,0.002l0.004,0.001l0.006,0.003l0.006,0.001h0.001l0.004,0.001h0.002
					l0.003,0.001l0.005,0.002h0.007l0.005,0.002h0.002l0.004,0.001l0.005,0.002l0.005,0.001l0.007,0.001l0.004,0.002l0.007,0.001
					l0.006,0.001l0.004,0.002h0.007l0.007,0.001l0.005,0.001l0.006,0.001l0.005,0.001l0.007,0.002l0.007,0h0.007l0.005,0.002h0.006
					l0.006,0.001l0.007,0.001l0.006,0.001h0.006l0.006,0.001l0.007,0.001h0.005h0.008l0.006,0.001l0.006,0.001h0.007l0.005,0.002
					h0.006l0.008,0l0.006,0.001h0.008h0.006l0.008,0.002h0.007h0.002h0.005l0.007,0.001h0.009h0.006h0.007h0.684h0.007h0.008h0.006
					h0.001l0.008,0.001h0.005h0.008h0.001h0.008h0.007h0.007h0.009h0.006c-0.449-0.169-0.603-0.391-0.653-0.77
					c-0.03-0.226-0.022-0.512-0.022-0.876L94.194,112.646L94.194,112.646z"/>
				<path fill="#6B3428" d="M94.194,112.646h1.041c0.123-0.005,0.227-0.012,0.313-0.027c0.124-0.021,0.223-0.055,0.29-0.103
					c0.067-0.047,0.113-0.113,0.141-0.194c0.028-0.081,0.039-0.073,0.037-0.194v-0.005h-0.742c-0.012,0-0.023,0.001-0.037,0.002
					l-0.002-0.002h-1.041v-0.396c-0.006-0.165-0.017-0.305-0.035-0.422c-0.031-0.166-0.076-0.298-0.141-0.389
					c-0.063-0.093-0.151-0.155-0.262-0.19c-0.109-0.036-0.247-0.051-0.414-0.05h-0.007v0.998c0.002,0.016,0.004,0.033,0.004,0.05
					l-0.004,0.003v0.396c-0.215,0.066-0.432,0.07-0.517,0.324c-0.024,0.083-0.038,0.072-0.036,0.195v0.006h0.346
					c0.012-0.002,0.025-0.002,0.037-0.003l0.002,0.003h0.168v0.368v0.007v0.046v3.081v0.007h0.001v0.008v0.008l0.001,0.007v0.007
					v0.006v0.008v0.007l0.002,0.007v0.008v0.007v0.008l0.002,0.007v0.007h0.001v0.006v0.006v0.008v0.007l0.001,0.007v0.007v0.007
					v0.006v0.007l0.003,0.007v0.007v0.007v0.007v0.006l0.002,0.008l0.001,0.006v0.006l0.001,0.006v0.006l0.001,0.007v0.005
					l0.002,0.007v0.006v0.007v0.006l0.001,0.006l0.001,0.005v0.005v0.007l0.002,0.005l0.001,0.007v0.006l0.001,0.006v0.006v0.007
					v0.006l0.004,0.003v0.007v0.006v0.005l0.002,0.006h0.001v0.006l0.001,0.005v0.005l0.001,0.007l0.002,0.005v0.005l0.001,0.005
					v0.007l0.002,0.005v0.007l0.001,0.007l0.002,0.01v0.007l0.002,0.008l0.003,0.006l0,0.007v0.009l0.003,0.006l0.002,0.007
					l0.001,0.006l0.002,0.008l0.002,0.007l0.003,0.007l0.002,0.007l0,0.007l0.001,0.007l0.002,0.006l0.002,0.007l0.002,0.007
					l0.001,0.007l0.002,0.006l0.002,0.008l0.001,0.005l0.002,0.007l0.004,0.006l0.001,0.007l0.003,0.006l0.001,0.005l0.003,0.006
					l0.003,0.006l0.001,0.007l0.003,0.005l0.001,0.006l0.004,0.005l0.001,0.007l0.002,0.005h0.001l0.001,0.005l0.003,0.007
					l0.002,0.005l0.002,0.005l0.002,0.005l0.002,0.006l0.004,0.006l0.003,0.005l0.002,0.004l0.001,0.005l0.004,0.007l0.002,0.004
					l0.002,0.005l0.004,0.004l0.001,0.005l0.004,0.006l0.003,0.004l0.002,0.006l0.003,0.004l0.002,0.005l0.004,0.005l0.002,0.004
					l0.002,0.005l0.004,0.005l0.004,0.003l0.002,0.004l0.004,0.007h0.001l0.002,0.004l0.004,0.004l0.002,0.005l0.003,0.004
					l0.002,0.003h0.002l0.003,0.004l0.002,0.004l0.003,0.004l0.003,0.005l0.004,0.004l0.003,0.003l0.004,0.005l0.003,0.003
					l0.005,0.004l0.002,0.005l0.004,0.003l0.004,0.003l0.002,0.004l0.004,0.002l0.004,0.005l0.003,0.004l0.004,0.003l0.004,0.004
					l0.004,0.003l0.003,0.003l0.005,0.003l0.003,0.004l0.004,0.003l0.003,0.003l0.003,0.002l0.005,0.003l0.005,0.003l0.004,0.004
					l0.004,0.003l0.005,0.003l0.005,0.003l0.003,0.003l0.005,0.003l0.004,0.002l0.004,0.005l0.004,0.002l0.005,0.003l0.004,0.001
					l0.004,0.004l0.005,0.001l0.006,0.002l0.003,0.003l0.005,0.002l0.004,0.002l0.005,0.002l0.005,0.002l0.005,0.003l0.004,0.002
					h0.001l0.004,0.002l0.005,0.002l0.004,0.002l0.005,0.002l0.006,0.002l0.004,0.002l0.006,0.003l0.005,0.001l0.005,0.002
					l0.005,0.001l0.005,0.002l0.006,0.001l0.005,0.002l0.005,0.002l0.004,0.001l0.006,0.003l0.006,0.001h0.001l0.004,0.001h0.002
					l0.003,0.001l0.005,0.002h0.007l0.005,0.002h0.002l0.004,0.001l0.005,0.002l0.005,0.001l0.007,0.001l0.004,0.002l0.007,0.001
					l0.006,0.001l0.004,0.002h0.007l0.007,0.001l0.005,0.001l0.006,0.001l0.005,0.001l0.007,0.002l0.007,0h0.007l0.005,0.002h0.006
					l0.006,0.001l0.007,0.001l0.006,0.001h0.006l0.006,0.001l0.007,0.001h0.005h0.008l0.006,0.001l0.006,0.001h0.007l0.005,0.002
					h0.006l0.008,0l0.006,0.001h0.008h0.006l0.008,0.002h0.007h0.002h0.005l0.007,0.001h0.009h0.006h0.007h0.684h0.007h0.008h0.006
					h0.001l0.008,0.001h0.005h0.008h0.001h0.008h0.007h0.007h0.009h0.006c-0.449-0.169-0.603-0.391-0.653-0.77
					c-0.03-0.226-0.022-0.512-0.022-0.876L94.194,112.646L94.194,112.646z"/>
				<path fill="#6B3428" d="M97.014,117.144c0.212,0.056,0.43,0.082,0.655,0.081c0.21-0.002,0.404-0.028,0.575-0.077
					c0.174-0.051,0.326-0.116,0.461-0.195c0.133-0.081,0.242-0.164,0.33-0.254h0.053c0.047,0.126,0.137,0.224,0.268,0.297
					c0.048,0.032,0.102,0.057,0.164,0.074c0.124,0.034,0.276,0.051,0.46,0.049v-1.151v-0.001v-0.298v-0.385v-0.097v-1.161v-0.114
					v-0.008v-0.259h-0.011c-0.019-0.262-0.067-0.485-0.143-0.672c-0.1-0.248-0.234-0.439-0.404-0.578
					c-0.169-0.14-0.361-0.238-0.573-0.293c-0.211-0.057-0.43-0.083-0.655-0.082c-0.21,0.002-0.403,0.028-0.575,0.078
					c-0.174,0.05-0.326,0.114-0.46,0.193c-0.126,0.076-0.229,0.156-0.315,0.238v0.504c0.084-0.094,0.178-0.18,0.281-0.259
					c0.108-0.083,0.227-0.153,0.355-0.202c0.126-0.05,0.259-0.078,0.4-0.08c0.147-0.001,0.287,0.023,0.424,0.074
					c0.139,0.051,0.263,0.133,0.372,0.242c0.109,0.11,0.196,0.257,0.261,0.439c0.064,0.179,0.097,0.402,0.099,0.664v0.534
					c-0.087-0.089-0.197-0.174-0.33-0.254c-0.135-0.079-0.288-0.144-0.461-0.194c-0.171-0.049-0.365-0.076-0.575-0.077
					c-0.225-0.003-0.443,0.023-0.655,0.08c-0.211,0.056-0.402,0.155-0.572,0.294c-0.789,0.643-0.791,1.91,0,2.554
					C96.611,116.99,96.803,117.089,97.014,117.144 M97.561,114.469c0.136-0.05,0.278-0.075,0.423-0.074
					c0.141,0.003,0.274,0.028,0.402,0.08c0.127,0.05,0.245,0.118,0.353,0.202c0.111,0.085,0.208,0.175,0.296,0.275v0.718v0.19v0.052
					v0.283c-0.087,0.101-0.185,0.192-0.296,0.276c-0.108,0.084-0.227,0.153-0.353,0.202c-0.128,0.051-0.261,0.078-0.402,0.079
					c-0.145,0.001-0.287-0.023-0.423-0.074C96.525,116.3,96.525,114.849,97.561,114.469"/>
				<path fill="#6B3428" d="M97.014,117.144c0.212,0.056,0.43,0.082,0.655,0.081c0.21-0.002,0.404-0.028,0.575-0.077
					c0.174-0.051,0.326-0.116,0.461-0.195c0.133-0.081,0.242-0.164,0.33-0.254h0.053c0.047,0.126,0.137,0.224,0.268,0.297
					c0.048,0.032,0.102,0.057,0.164,0.074c0.124,0.034,0.276,0.051,0.46,0.049v-1.151v-0.001v-0.298v-0.385v-0.097v-1.161v-0.114
					v-0.008v-0.259h-0.011c-0.019-0.262-0.067-0.485-0.143-0.672c-0.1-0.248-0.234-0.439-0.404-0.578
					c-0.169-0.14-0.361-0.238-0.573-0.293c-0.211-0.057-0.43-0.083-0.655-0.082c-0.21,0.002-0.403,0.028-0.575,0.078
					c-0.174,0.05-0.326,0.114-0.46,0.193c-0.126,0.076-0.229,0.156-0.315,0.238v0.504c0.084-0.094,0.178-0.18,0.281-0.259
					c0.108-0.083,0.227-0.153,0.355-0.202c0.126-0.05,0.259-0.078,0.4-0.08c0.147-0.001,0.287,0.023,0.424,0.074
					c0.139,0.051,0.263,0.133,0.372,0.242c0.109,0.11,0.196,0.257,0.261,0.439c0.064,0.179,0.097,0.402,0.099,0.664v0.534
					c-0.087-0.089-0.197-0.174-0.33-0.254c-0.135-0.079-0.288-0.144-0.461-0.194c-0.171-0.049-0.365-0.076-0.575-0.077
					c-0.225-0.003-0.443,0.023-0.655,0.08c-0.211,0.056-0.402,0.155-0.572,0.294c-0.789,0.643-0.791,1.91,0,2.554
					C96.611,116.99,96.803,117.089,97.014,117.144 M97.561,114.469c0.136-0.05,0.278-0.075,0.423-0.074
					c0.141,0.003,0.274,0.028,0.402,0.08c0.127,0.05,0.245,0.118,0.353,0.202c0.111,0.085,0.208,0.175,0.296,0.275v0.718v0.19v0.052
					v0.283c-0.087,0.101-0.185,0.192-0.296,0.276c-0.108,0.084-0.227,0.153-0.353,0.202c-0.128,0.051-0.261,0.078-0.402,0.079
					c-0.145,0.001-0.287-0.023-0.423-0.074C96.525,116.3,96.525,114.849,97.561,114.469"/>
				<path fill="#6B3428" d="M107.112,112.316c-0.063-0.094-0.15-0.154-0.259-0.19c-0.112-0.036-0.251-0.052-0.418-0.05h-0.006v0.997
					c0.001,0.017,0.003,0.033,0.003,0.051l-0.003,0.004v2.966c0.004,0.164,0.018,0.304,0.035,0.42
					c0.031,0.169,0.077,0.301,0.139,0.391c0.064,0.093,0.153,0.155,0.263,0.191c0.11,0.035,0.247,0.05,0.414,0.049h0.007v-0.998
					c-0.001-0.015-0.003-0.032-0.004-0.049l0.004-0.003v-2.966c-0.005-0.165-0.017-0.305-0.037-0.424
					C107.224,112.537,107.177,112.406,107.112,112.316"/>
				<path fill="#6B3428" d="M107.112,112.316c-0.063-0.094-0.15-0.154-0.259-0.19c-0.112-0.036-0.251-0.052-0.418-0.05h-0.006v0.997
					c0.001,0.017,0.003,0.033,0.003,0.051l-0.003,0.004v2.966c0.004,0.164,0.018,0.304,0.035,0.42
					c0.031,0.169,0.077,0.301,0.139,0.391c0.064,0.093,0.153,0.155,0.263,0.191c0.11,0.035,0.247,0.05,0.414,0.049h0.007v-0.998
					c-0.001-0.015-0.003-0.032-0.004-0.049l0.004-0.003v-2.966c-0.005-0.165-0.017-0.305-0.037-0.424
					C107.224,112.537,107.177,112.406,107.112,112.316"/>
				<path fill="#6B3428" d="M106.448,111.627c0.091,0.061,0.188,0.092,0.297,0.095c0.148-0.003,0.266-0.045,0.351-0.126
					c0.086-0.084,0.129-0.199,0.131-0.35c-0.003-0.12-0.027-0.231-0.081-0.333c-0.052-0.1-0.122-0.183-0.21-0.244
					c-0.089-0.062-0.187-0.093-0.297-0.095c-0.15,0.002-0.267,0.044-0.353,0.125c-0.086,0.084-0.128,0.199-0.13,0.349
					c0.003,0.12,0.029,0.232,0.08,0.333C106.291,111.482,106.361,111.563,106.448,111.627"/>
				<path fill="#6B3428" d="M106.448,111.627c0.091,0.061,0.188,0.092,0.297,0.095c0.148-0.003,0.266-0.045,0.351-0.126
					c0.086-0.084,0.129-0.199,0.131-0.35c-0.003-0.12-0.027-0.231-0.081-0.333c-0.052-0.1-0.122-0.183-0.21-0.244
					c-0.089-0.062-0.187-0.093-0.297-0.095c-0.15,0.002-0.267,0.044-0.353,0.125c-0.086,0.084-0.128,0.199-0.13,0.349
					c0.003,0.12,0.029,0.232,0.08,0.333C106.291,111.482,106.361,111.563,106.448,111.627"/>
				<path fill="#6B3428" d="M85.392,112.338c-0.262,0.143-0.488,0.332-0.677,0.562c-0.198,0.242-0.345,0.518-0.451,0.812
					c-0.112,0.314-0.165,0.639-0.165,0.972c0,0.307,0.041,0.611,0.129,0.905c0.079,0.277,0.199,0.539,0.37,0.773
					c0.163,0.226,0.366,0.408,0.606,0.543c0.256,0.145,0.534,0.206,0.824,0.206c0.294,0,0.573-0.073,0.831-0.213
					c0.263-0.142,0.491-0.33,0.681-0.56c0.202-0.24,0.353-0.516,0.461-0.811c0.114-0.313,0.169-0.639,0.169-0.971
					c0-0.302-0.042-0.6-0.121-0.891c-0.079-0.278-0.198-0.54-0.365-0.778c-0.161-0.227-0.363-0.412-0.605-0.551
					c-0.258-0.15-0.544-0.211-0.84-0.211C85.939,112.128,85.657,112.198,85.392,112.338 M86.788,113.009
					c0.1,0.089,0.184,0.192,0.256,0.304c0.078,0.122,0.142,0.251,0.195,0.387c0.053,0.145,0.094,0.294,0.122,0.446
					c0.03,0.158,0.044,0.316,0.044,0.476c0,0.274-0.025,0.554-0.097,0.817c-0.059,0.204-0.141,0.408-0.269,0.579
					c-0.106,0.141-0.237,0.261-0.397,0.339c-0.16,0.079-0.328,0.114-0.507,0.114c-0.171,0-0.329-0.05-0.476-0.143
					c-0.161-0.105-0.296-0.244-0.405-0.404c-0.127-0.185-0.22-0.394-0.286-0.608c-0.071-0.239-0.105-0.487-0.105-0.739
					c0-0.258,0.026-0.521,0.091-0.772c0.054-0.205,0.134-0.404,0.256-0.578c0.103-0.15,0.233-0.271,0.395-0.358
					c0.165-0.089,0.345-0.125,0.53-0.125c0.12,0,0.237,0.023,0.346,0.07C86.595,112.863,86.697,112.93,86.788,113.009"/>
				<path fill="#6B3428" d="M85.392,112.338c-0.262,0.143-0.488,0.332-0.677,0.562c-0.198,0.242-0.345,0.518-0.451,0.812
					c-0.112,0.314-0.165,0.639-0.165,0.972c0,0.307,0.041,0.611,0.129,0.905c0.079,0.277,0.199,0.539,0.37,0.773
					c0.163,0.226,0.366,0.408,0.606,0.543c0.256,0.145,0.534,0.206,0.824,0.206c0.294,0,0.573-0.073,0.831-0.213
					c0.263-0.142,0.491-0.33,0.681-0.56c0.202-0.24,0.353-0.516,0.461-0.811c0.114-0.313,0.169-0.639,0.169-0.971
					c0-0.302-0.042-0.6-0.121-0.891c-0.079-0.278-0.198-0.54-0.365-0.778c-0.161-0.227-0.363-0.412-0.605-0.551
					c-0.258-0.15-0.544-0.211-0.84-0.211C85.939,112.128,85.657,112.198,85.392,112.338 M86.788,113.009
					c0.1,0.089,0.184,0.192,0.256,0.304c0.078,0.122,0.142,0.251,0.195,0.387c0.053,0.145,0.094,0.294,0.122,0.446
					c0.03,0.158,0.044,0.316,0.044,0.476c0,0.274-0.025,0.554-0.097,0.817c-0.059,0.204-0.141,0.408-0.269,0.579
					c-0.106,0.141-0.237,0.261-0.397,0.339c-0.16,0.079-0.328,0.114-0.507,0.114c-0.171,0-0.329-0.05-0.476-0.143
					c-0.161-0.105-0.296-0.244-0.405-0.404c-0.127-0.185-0.22-0.394-0.286-0.608c-0.071-0.239-0.105-0.487-0.105-0.739
					c0-0.258,0.026-0.521,0.091-0.772c0.054-0.205,0.134-0.404,0.256-0.578c0.103-0.15,0.233-0.271,0.395-0.358
					c0.165-0.089,0.345-0.125,0.53-0.125c0.12,0,0.237,0.023,0.346,0.07C86.595,112.863,86.697,112.93,86.788,113.009"/>
				<path fill="#6B3428" d="M80.413,110.524h-1.472v1.274c0.002,0.48,0.002,0.963,0.004,1.444l-0.004,0.001v0.582
					c0.004-0.002,0.01-0.005,0.015-0.008c0.002,0.547-0.006,1.227-0.005,1.775c0.003,2.202,4.574,2.065,4.502-0.281
					c0.005-0.719-0.379-1.236-0.967-1.492c-0.233-0.101-0.467-0.141-0.715-0.193l-0.331,0.097c0.896,0.099,1.306,0.833,1.253,1.55
					c-0.048,0.643-0.484,1.273-1.521,1.359c-0.678,0.057-1.337-0.341-1.332-1.129c0.001-0.615,0.01-1.212-0.007-1.827
					c0.226,0.021,0.437,0.077,0.658,0.077c1.167-0.005,2.191-0.357,2.247-1.65c0.033-0.756-0.569-1.49-1.768-1.559
					C80.773,110.529,80.588,110.522,80.413,110.524 M82.051,112.172c-0.077,1.21-1.606,1.238-2.223,1.07v-0.04v-0.652v-1.582
					c0.069-0.016,0.144-0.033,0.226-0.047C80.873,110.771,82.13,110.955,82.051,112.172"/>
				<path fill="#6B3428" d="M80.413,110.524h-1.472v1.274c0.002,0.48,0.002,0.963,0.004,1.444l-0.004,0.001v0.582
					c0.004-0.002,0.01-0.005,0.015-0.008c0.002,0.547-0.006,1.227-0.005,1.775c0.003,2.202,4.574,2.065,4.502-0.281
					c0.005-0.719-0.379-1.236-0.967-1.492c-0.233-0.101-0.467-0.141-0.715-0.193l-0.331,0.097c0.896,0.099,1.306,0.833,1.253,1.55
					c-0.048,0.643-0.484,1.273-1.521,1.359c-0.678,0.057-1.337-0.341-1.332-1.129c0.001-0.615,0.01-1.212-0.007-1.827
					c0.226,0.021,0.437,0.077,0.658,0.077c1.167-0.005,2.191-0.357,2.247-1.65c0.033-0.756-0.569-1.49-1.768-1.559
					C80.773,110.529,80.588,110.522,80.413,110.524 M82.051,112.172c-0.077,1.21-1.606,1.238-2.223,1.07v-0.04v-0.652v-1.582
					c0.069-0.016,0.144-0.033,0.226-0.047C80.873,110.771,82.13,110.955,82.051,112.172"/>
				<path fill="#6B3428" d="M90.427,116.67c-0.135,0.044-0.273,0.064-0.415,0.063c-0.139,0-0.271-0.023-0.397-0.066
					c-0.124-0.043-0.244-0.102-0.355-0.174c-0.105-0.065-0.199-0.14-0.284-0.219l0.014,0.428c0.085,0.072,0.194,0.139,0.32,0.204
					c0.133,0.066,0.284,0.122,0.457,0.165c0.171,0.041,0.362,0.065,0.569,0.066c0.222,0.001,0.437-0.021,0.644-0.068
					c0.206-0.048,0.39-0.131,0.553-0.251c0.76-0.55,0.723-1.628-0.074-2.178c-0.63-0.438-1.693-0.194-1.707-1.206
					c-0.005-0.363,0.223-0.724,0.692-0.874c0.248-0.081,0.524-0.079,0.77,0.004c0.172,0.06,0.371,0.166,0.506,0.293l0.193-0.222
					c-0.596-0.495-1.234-0.628-1.992-0.451c-0.194,0.045-0.368,0.124-0.522,0.237c-0.719,0.52-0.684,1.541,0.069,2.061
					c0.482,0.335,1.096,0.211,1.48,0.691c0.163,0.203,0.232,0.45,0.206,0.685C91.115,116.2,90.874,116.526,90.427,116.67"/>
				<path fill="#6B3428" d="M90.427,116.67c-0.135,0.044-0.273,0.064-0.415,0.063c-0.139,0-0.271-0.023-0.397-0.066
					c-0.124-0.043-0.244-0.102-0.355-0.174c-0.105-0.065-0.199-0.14-0.284-0.219l0.014,0.428c0.085,0.072,0.194,0.139,0.32,0.204
					c0.133,0.066,0.284,0.122,0.457,0.165c0.171,0.041,0.362,0.065,0.569,0.066c0.222,0.001,0.437-0.021,0.644-0.068
					c0.206-0.048,0.39-0.131,0.553-0.251c0.76-0.55,0.723-1.628-0.074-2.178c-0.63-0.438-1.693-0.194-1.707-1.206
					c-0.005-0.363,0.223-0.724,0.692-0.874c0.248-0.081,0.524-0.079,0.77,0.004c0.172,0.06,0.371,0.166,0.506,0.293l0.193-0.222
					c-0.596-0.495-1.234-0.628-1.992-0.451c-0.194,0.045-0.368,0.124-0.522,0.237c-0.719,0.52-0.684,1.541,0.069,2.061
					c0.482,0.335,1.096,0.211,1.48,0.691c0.163,0.203,0.232,0.45,0.206,0.685C91.115,116.2,90.874,116.526,90.427,116.67"/>
			</g>
		</g>
	</g>
</g>
<g id="square_x5F_circle">
</g>
<g id="heart_1_">
</g>
<g id="stroller">
</g>
<g id="babyshirt">
</g>
<g id="circle">
</g>
<g id="heart">
</g>
</svg>
