<?xml version="1.0" standalone="no"?>
<!DOCTYPE svg PUBLIC "-//W3C//DTD SVG 20010904//EN"
 "http://www.w3.org/TR/2001/REC-SVG-20010904/DTD/svg10.dtd">
<svg version="1.0" xmlns="http://www.w3.org/2000/svg"
 width="500.000000pt" height="352.000000pt" viewBox="0 0 500.000000 352.000000"
 preserveAspectRatio="xMidYMid meet">

<g transform="translate(0.000000,352.000000) scale(0.100000,-0.100000)"
fill="#000000" stroke="none">
<path d="M3105 3465 c-144 -48 -404 -94 -647 -116 -91 -8 -138 -17 -138 -24 0
-18 104 -38 215 -41 59 -2 99 -7 98 -13 -2 -5 -23 -70 -48 -143 -58 -168 -92
-368 -62 -368 9 0 25 43 46 123 41 153 63 217 72 212 9 -6 74 -160 100 -239
18 -54 19 -60 4 -82 -35 -55 -206 -160 -347 -214 -151 -59 -424 -110 -588
-110 -160 0 -248 29 -329 110 -56 56 -62 78 -64 242 -1 72 -6 111 -15 120 -10
10 -15 10 -22 -2 -5 -8 -10 -25 -10 -36 0 -39 -64 -107 -137 -146 l-42 -23
-28 26 c-89 82 -147 78 -194 -13 -45 -89 -61 -186 -38 -231 29 -57 77 -69 160
-40 26 10 51 14 54 11 11 -11 -63 -141 -106 -185 -112 -117 -280 -208 -461
-248 -100 -22 -103 -40 -10 -52 124 -15 264 -8 344 18 79 25 172 83 212 129
59 71 105 214 106 330 0 52 2 56 35 79 20 13 49 39 65 57 16 19 31 34 33 34 1
0 1 -40 -1 -89 -4 -107 11 -146 85 -211 83 -73 181 -102 349 -102 133 0 227
13 389 53 158 39 235 65 320 107 184 92 288 198 306 312 3 25 14 74 24 110 29
107 17 189 -48 348 -30 72 -52 132 -48 132 18 0 228 39 244 45 23 10 22 4 -13
-55 -28 -48 -38 -80 -23 -80 3 0 29 21 58 48 28 26 77 69 110 97 55 47 115
118 115 137 0 14 -53 8 -125 -17z"/>
<path d="M2050 3420 c-80 -10 -139 -27 -163 -48 -28 -25 -64 -96 -71 -143 l-7
-44 23 26 c13 15 43 32 68 38 60 16 150 29 150 23 0 -3 -26 -35 -58 -71 -104
-118 -127 -160 -70 -130 32 17 135 122 187 192 49 65 68 129 44 153 -8 7 -20
13 -26 13 -7 -1 -41 -5 -77 -9z"/>
<path d="M3620 3400 c-6 -11 -8 -24 -5 -29 3 -5 -3 -31 -14 -58 -39 -101 -82
-340 -88 -494 -4 -109 -3 -148 7 -154 21 -13 29 8 44 116 16 112 69 294 79
269 82 -215 115 -345 102 -397 -7 -30 -156 -187 -226 -238 -94 -70 -238 -122
-286 -104 -26 9 -57 64 -49 86 4 8 1 34 -5 57 -6 22 -11 86 -11 141 0 86 -3
104 -20 125 l-20 25 -27 -34 c-14 -18 -41 -61 -59 -95 -147 -272 -135 -254
-219 -324 -81 -68 -161 -118 -225 -141 -74 -28 -245 -73 -266 -70 -61 6 -55
-14 11 -35 68 -21 205 -33 284 -24 63 7 228 73 267 106 61 53 148 170 168 226
l22 61 8 -45 c35 -206 56 -256 117 -283 38 -17 51 -18 100 -8 186 37 410 239
469 423 11 35 26 101 32 148 6 47 15 114 20 150 15 108 -9 238 -68 375 -106
244 -120 267 -142 225z"/>
<path d="M512 3363 c-11 -16 -26 -42 -35 -58 -19 -39 -106 -155 -115 -155 -4
0 -18 26 -32 58 -29 66 -82 130 -125 148 -24 10 -34 10 -56 -1 -31 -17 -69
-98 -69 -149 0 -33 3 -36 40 -46 44 -12 80 -6 80 13 0 27 62 -52 86 -112 15
-36 29 -68 31 -70 7 -10 69 60 120 136 47 72 58 82 78 77 17 -4 28 1 44 22 11
15 21 32 21 39 0 7 6 18 14 24 26 22 26 52 1 77 -32 32 -59 30 -83 -3z"/>
<path d="M1340 3365 c-30 -7 -73 -14 -96 -14 -22 -1 -48 -7 -57 -13 -16 -13
-77 -157 -77 -183 0 -7 5 -17 10 -20 15 -9 210 34 245 54 17 10 46 45 68 85
59 105 42 122 -93 91z"/>
<path d="M3997 3233 c-20 -82 -40 -193 -46 -248 -6 -55 -15 -138 -20 -185 -17
-150 -17 -201 2 -211 23 -13 36 13 62 126 3 11 8 49 11 85 3 36 10 79 14 95 5
17 14 57 20 90 12 58 13 58 26 34 64 -123 124 -366 124 -502 0 -72 -3 -87 -26
-122 -93 -140 -290 -264 -509 -319 -54 -14 -99 -27 -102 -30 -11 -11 40 -24
143 -36 97 -12 122 -11 198 3 100 18 195 59 250 107 98 87 146 272 148 575 1
136 -2 173 -21 244 -20 76 -107 267 -157 346 -30 48 -67 95 -75 95 -3 0 -23
-66 -42 -147z"/>
<path d="M3325 3198 c-2 -13 -6 -41 -7 -63 -2 -29 -8 -41 -20 -43 -14 -3 -18
3 -18 26 0 32 -33 82 -46 69 -4 -4 -8 -32 -9 -63 -2 -65 -20 -90 -58 -80 -16
4 -29 17 -35 36 -23 64 -38 25 -32 -79 4 -72 87 -95 125 -34 16 26 27 32 56
33 37 0 58 17 92 72 22 35 21 53 -4 105 -23 48 -36 54 -44 21z"/>
<path d="M855 3117 c-55 -31 -80 -81 -111 -223 -56 -256 -111 -382 -216 -494
-81 -86 -234 -195 -315 -224 -53 -19 -140 -63 -148 -76 -10 -16 149 -12 251 5
159 28 268 95 349 215 57 84 90 185 110 337 8 67 20 136 27 155 15 47 56 88
88 88 26 0 28 3 40 78 19 114 19 115 -3 140 -25 27 -23 27 -72 -1z"/>
<path d="M2165 3013 c-38 -37 -77 -111 -101 -192 -28 -90 -27 -134 4 -157 18
-14 69 -18 97 -8 19 8 69 110 60 125 -4 5 -30 8 -58 7 -69 -4 -71 10 -11 128
33 65 44 98 37 105 -7 7 -16 5 -28 -8z"/>
<path d="M280 2833 c-62 -139 -76 -232 -41 -274 24 -30 128 -40 164 -16 31 20
72 124 56 143 -8 10 -16 11 -29 4 -21 -11 -99 -13 -124 -4 -22 8 -20 33 8 108
18 47 21 67 13 75 -18 18 -25 13 -47 -36z"/>
<path d="M1301 1983 c-42 -90 -60 -239 -41 -328 5 -22 16 -119 25 -215 29
-324 60 -425 138 -464 47 -23 110 -15 161 19 34 23 37 23 63 8 27 -15 31 -14
103 22 40 20 99 55 129 78 70 51 187 163 209 200 9 15 19 27 22 27 3 0 4 -31
2 -70 -3 -41 0 -70 5 -70 15 0 41 68 48 123 11 83 13 89 54 123 49 42 76 85
101 160 42 127 16 146 -83 58 -20 -19 -40 -34 -45 -34 -4 0 -8 21 -9 48 -5 85
-23 125 -68 147 -40 18 -65 19 -118 3 -58 -17 -99 -66 -157 -185 -72 -147 -79
-228 -24 -276 52 -45 50 -51 -32 -106 -84 -57 -99 -62 -90 -28 17 57 25 121
20 143 -8 32 -32 30 -40 -3 -27 -123 -75 -173 -166 -173 -93 1 -113 58 -138
405 -6 83 -18 194 -26 247 -9 54 -14 112 -12 129 4 41 -15 48 -31 12z m755
-388 c14 -14 24 -31 21 -38 -12 -37 -177 -32 -177 6 0 17 73 49 123 56 4 1 19
-10 33 -24z"/>
<path d="M3337 1898 c-143 -139 -151 -156 -155 -355 -4 -146 -3 -155 23 -220
15 -37 33 -79 40 -94 12 -22 11 -30 -14 -70 -16 -24 -71 -84 -124 -132 -53
-48 -105 -103 -116 -121 -13 -21 -25 -70 -35 -142 -8 -60 -20 -125 -27 -144
-34 -97 -133 -206 -239 -264 -65 -35 -290 -126 -313 -126 -7 0 -19 -5 -27 -10
-30 -20 11 -26 162 -24 170 3 237 13 313 48 126 57 159 121 186 356 13 117 26
138 149 243 118 102 139 138 153 269 20 185 15 251 -26 351 -21 48 -37 96 -37
106 0 21 147 184 160 176 4 -2 17 -33 30 -67 12 -35 37 -94 55 -133 47 -99 67
-178 69 -260 1 -64 -3 -78 -44 -160 -50 -101 -147 -252 -233 -364 -31 -40 -57
-75 -57 -77 0 -2 8 -4 18 -4 26 0 144 105 197 175 25 33 55 71 66 84 33 39 77
133 106 228 24 78 27 103 26 223 -1 172 -19 260 -83 406 -27 63 -50 124 -50
133 0 19 -43 71 -58 71 -6 0 -57 -46 -115 -102z"/>
<path d="M1766 1960 c-3 -8 -7 -35 -8 -59 -2 -32 -9 -48 -26 -59 -21 -14 -23
-13 -33 16 -16 46 -37 48 -44 4 -10 -57 -12 -61 -40 -68 -41 -10 -55 0 -48 39
3 20 1 37 -5 41 -15 9 -39 -31 -47 -79 -5 -34 -2 -44 17 -61 13 -12 30 -24 39
-27 18 -6 99 30 99 44 0 4 18 13 40 19 63 17 90 51 90 114 0 54 -23 106 -34
76z"/>
<path d="M2786 1884 c-113 -58 -188 -134 -219 -224 -24 -69 -30 -232 -11 -280
l16 -40 -45 -52 c-73 -87 -82 -110 -80 -216 1 -51 5 -102 8 -113 9 -26 -48
-51 -98 -42 -37 6 -76 49 -92 101 -13 43 -33 26 -39 -34 -19 -171 -19 -179 9
-234 l27 -53 -27 -51 c-31 -57 -106 -140 -147 -162 -40 -21 -95 -18 -108 5 -5
11 -10 69 -10 130 0 135 -13 169 -73 195 -38 17 -43 17 -86 0 -60 -23 -159
-122 -194 -194 -33 -69 -48 -145 -46 -235 3 -122 12 -123 64 -12 29 61 56 99
105 148 112 113 154 104 164 -39 4 -48 11 -110 17 -139 27 -134 164 -138 278
-7 56 63 113 196 122 284 4 41 8 75 8 75 1 0 25 0 54 0 49 0 61 5 157 70 126
85 165 131 173 206 3 30 9 67 12 82 3 16 0 36 -8 47 -14 20 -14 20 -38 -1 -45
-40 -149 -76 -149 -52 0 3 49 57 109 118 160 164 251 314 289 480 33 140 37
196 18 233 -15 29 -21 32 -64 32 -30 0 -64 -9 -96 -26z m68 -225 c-14 -29
-106 -162 -124 -183 -10 -10 -67 23 -94 53 -17 19 -17 21 28 64 52 51 137 97
178 97 l29 0 -17 -31z"/>
<path d="M533 1871 c-28 -4 -60 -14 -71 -24 -26 -24 -68 -114 -77 -164 -8 -51
7 -58 30 -13 8 16 25 36 38 44 22 13 137 31 137 21 0 -3 -25 -43 -56 -89 -31
-46 -54 -92 -52 -102 9 -47 181 170 194 246 4 19 11 40 16 46 5 8 3 18 -7 28
-17 17 -56 19 -152 7z"/>
<path d="M683 1586 c-181 -181 -285 -293 -308 -332 -20 -32 -52 -108 -72 -169
-32 -100 -36 -122 -39 -248 -7 -260 42 -395 169 -463 109 -59 241 -30 345 77
56 58 118 167 127 227 3 20 12 64 20 97 7 33 17 87 21 120 8 67 12 72 102 116
78 38 106 78 131 185 35 149 37 234 5 234 -13 0 -17 -11 -29 -81 -5 -35 -64
-109 -85 -109 -6 0 -10 17 -10 38 0 20 -7 45 -15 55 -13 18 -14 18 -24 -1 -6
-12 -9 -27 -6 -35 14 -36 -60 -137 -100 -137 -16 0 -39 18 -71 55 -71 82 -73
81 -94 -72 l-12 -81 40 -54 c47 -62 66 -99 81 -152 9 -35 7 -45 -16 -88 -39
-71 -127 -151 -196 -176 -90 -34 -131 -27 -199 33 -114 103 -136 237 -68 435
18 52 41 113 52 135 11 22 91 112 177 200 273 281 283 292 344 397 30 51 33
68 15 67 -7 0 -136 -123 -285 -273z"/>
<path d="M4020 1751 c-51 -16 -86 -40 -142 -98 -68 -72 -76 -101 -60 -224 7
-47 12 -100 12 -117 0 -18 10 -42 24 -59 23 -27 29 -28 136 -33 l112 -5 -58
-79 c-53 -73 -58 -77 -66 -56 -13 35 -40 52 -56 36 -11 -11 -11 -25 -2 -73 27
-136 -67 -268 -100 -141 -16 58 -51 138 -60 138 -5 0 -15 3 -24 6 -35 13 -98
-135 -126 -298 -26 -150 -57 -214 -140 -291 -37 -34 -103 -81 -146 -104 -76
-40 -306 -133 -330 -133 -19 0 -40 -30 -27 -38 6 -4 80 -4 165 -1 253 11 399
61 466 161 52 78 64 113 87 244 23 128 59 239 75 229 5 -3 18 -34 30 -70 12
-35 31 -76 42 -91 19 -23 26 -26 62 -21 63 9 122 85 140 181 5 26 23 57 52 89
40 45 79 115 121 220 8 20 18 37 22 37 3 0 4 -52 2 -115 -2 -72 1 -115 7 -115
5 0 13 10 16 23 12 42 35 294 30 328 -4 26 4 53 31 111 35 76 54 150 57 216 1
18 5 35 10 38 4 3 -1 15 -13 27 l-20 22 -17 -22 c-9 -12 -30 -44 -47 -72 -16
-28 -34 -49 -40 -48 -5 2 -15 17 -20 34 -22 66 -76 134 -122 154 -49 21 -47
21 -83 10z m96 -242 c19 -11 34 -22 34 -25 0 -15 -72 -35 -146 -40 -102 -8
-106 0 -30 53 56 39 94 42 142 12z"/>
<path d="M2328 1423 c-36 -87 -36 -86 -16 -140 10 -30 19 -80 20 -113 1 -33 5
-60 10 -60 4 0 22 30 39 66 29 60 31 73 27 139 -5 71 -29 134 -54 142 -6 2
-18 -13 -26 -34z"/>
<path d="M4108 603 c-11 -3 -20 -18 -24 -41 -4 -20 -12 -67 -19 -105 -12 -65
-12 -68 8 -79 37 -19 95 -15 119 10 24 24 60 153 52 187 -4 17 -12 20 -43 17
-22 -2 -47 0 -57 5 -11 5 -27 8 -36 6z"/>
<path d="M1182 587 c-5 -7 -29 -50 -52 -96 l-43 -83 24 -19 c13 -10 40 -21 59
-25 19 -4 40 -11 46 -15 13 -11 27 3 89 94 25 38 45 76 43 84 -4 21 -154 75
-166 60z"/>
</g>
</svg>
