<?xml version="1.0" standalone="no"?>
<!DOCTYPE svg PUBLIC "-//W3C//DTD SVG 20010904//EN"
 "http://www.w3.org/TR/2001/REC-SVG-20010904/DTD/svg10.dtd">
<svg version="1.0" xmlns="http://www.w3.org/2000/svg"
 width="491.000000pt" height="390.000000pt" viewBox="0 0 491.000000 390.000000"
 preserveAspectRatio="xMidYMid meet">
<g transform="translate(470.000000,420.000000) scale(-0.100000,-0.100000) "
fill="#000000" stroke="none">
<path d="M3985 3823 c-11 -3 -24 -9 -29 -14 -6 -5 -19 -9 -30 -9 -26 0 -133
-79 -140 -103 -5 -19 14 -89 26 -98 5 -3 14 -30 22 -59 8 -30 20 -56 26 -58 7
-3 27 -18 46 -34 29 -25 40 -30 70 -25 32 5 36 3 59 -33 24 -38 24 -40 7 -72
-9 -18 -27 -42 -39 -53 -27 -25 -73 -109 -73 -135 0 -10 -4 -21 -9 -24 -5 -3
-11 -29 -14 -58 -4 -29 -11 -75 -16 -103 -5 -27 -10 -82 -10 -122 -1 -39 -5
-74 -11 -78 -5 -3 -17 9 -26 27 -9 18 -27 42 -40 54 l-24 21 35 40 34 40 -44
69 c-25 38 -45 75 -45 82 0 7 -21 35 -46 62 -44 47 -46 52 -46 108 0 69 13 94
61 119 22 12 37 28 39 41 5 33 -27 110 -48 117 -10 3 -30 21 -45 41 -45 59
-116 77 -209 52 -34 -9 -51 -9 -68 -1 -90 45 -238 -14 -238 -93 0 -33 22 -74
54 -101 21 -18 26 -32 26 -67 0 -27 6 -48 15 -56 22 -18 181 -20 224 -3 19 7
36 11 39 8 14 -14 -23 -87 -69 -135 l-51 -54 4 -80 c2 -45 9 -90 16 -101 6
-11 26 -58 43 -105 18 -47 41 -95 50 -108 10 -13 21 -36 24 -52 4 -17 11 -32
16 -35 14 -9 11 -119 -6 -158 -16 -39 -39 -58 -130 -106 -127 -67 -269 -207
-370 -366 -57 -89 -155 -286 -155 -310 0 -13 -4 -27 -10 -30 -5 -3 -10 -21
-10 -40 0 -22 -9 -43 -25 -61 -13 -14 -27 -36 -30 -48 -8 -29 -38 -99 -48
-111 -4 -5 -16 -21 -27 -34 -11 -13 -20 -28 -20 -33 0 -5 -46 -57 -103 -116
-56 -59 -114 -123 -127 -142 -44 -62 -224 -257 -279 -301 -103 -85 -167 -128
-261 -181 -52 -29 -99 -55 -105 -57 -5 -2 -38 -16 -73 -32 -35 -16 -71 -29
-80 -29 -9 0 -53 -12 -97 -26 -128 -41 -237 -71 -285 -78 -24 -4 -49 -11 -55
-15 -12 -10 -65 -22 -125 -28 -25 -2 -67 -10 -95 -18 -27 -7 -77 -17 -110 -20
-33 -4 -87 -13 -120 -20 -33 -7 -132 -18 -220 -24 -160 -11 -253 -22 -354 -40
-59 -11 -161 -72 -161 -96 0 -22 62 -29 169 -19 53 5 201 8 330 6 186 -2 250
-6 315 -21 402 -92 569 -100 871 -39 36 7 159 13 310 13 281 2 279 1 541 121
72 32 158 47 244 41 47 -3 99 -10 115 -16 148 -51 244 -76 415 -111 25 -5 79
-7 120 -6 65 2 85 8 150 42 73 38 78 39 190 42 63 2 147 -2 185 -8 39 -6 152
-16 253 -22 164 -9 188 -9 227 7 71 27 62 47 -47 99 -51 24 -108 47 -127 50
-67 12 -154 50 -187 81 -26 25 -34 40 -34 68 0 40 -7 36 100 58 25 5 126 21
224 35 181 27 251 45 244 66 -7 21 -61 31 -198 37 l-135 6 -5 100 c-7 131 7
771 20 950 6 77 14 190 19 250 7 100 24 173 53 232 8 16 9 76 4 192 -3 93 -3
171 2 173 4 1 20 28 36 58 28 55 28 57 37 315 5 143 7 271 4 284 -3 13 0 48 6
79 l13 55 -33 27 c-18 15 -56 40 -84 55 -29 16 -64 42 -79 59 -15 17 -27 27
-28 23 0 -5 -13 1 -29 12 -16 12 -35 21 -43 21 -34 0 -49 26 -59 100 -19 157
-82 220 -194 193z m-131 -1362 c3 -5 -1 -32 -10 -60 -21 -73 -4 -97 30 -40 20
33 26 33 31 -3 2 -12 14 -63 25 -113 12 -49 30 -146 40 -215 10 -69 23 -147
29 -175 12 -52 31 -190 37 -260 2 -22 13 -137 24 -255 16 -168 19 -245 13
-350 -11 -191 -7 -272 15 -288 16 -12 15 -14 -8 -32 -14 -11 -29 -20 -34 -20
-5 0 -6 30 -3 68 6 60 4 75 -17 118 -14 27 -29 74 -35 104 -6 30 -13 66 -17
80 -17 71 -34 184 -49 329 -23 233 -52 406 -80 471 -8 19 -19 58 -24 85 -18
89 -41 180 -51 198 -6 9 -14 68 -19 130 -11 123 -11 122 53 199 32 39 41 44
50 29z"/>
</g>
<g transform="translate(0.000000,390.000000) scale(0.100000,-0.100000)"
fill="#000000" stroke="none">
<path d="M3250 3822 c-19 -15 -102 -77 -185 -137 -279 -201 -315 -239 -315
-328 0 -33 3 -37 26 -37 19 0 28 8 39 33 15 35 16 36 230 197 81 61 163 123
182 138 53 42 102 162 66 162 -5 0 -24 -13 -43 -28z"/>
<path d="M2339 3748 c-17 -24 -37 -55 -45 -70 -18 -35 -25 -35 -99 2 -73 36
-76 34 -137 -86 -42 -82 -43 -83 -23 -99 28 -21 140 -75 156 -75 16 1 99 106
99 126 0 20 4 19 91 -26 76 -39 80 -40 104 -24 14 9 25 20 25 24 0 5 16 29 35
54 24 32 35 57 35 80 0 33 -4 37 -94 85 -51 28 -99 51 -105 51 -6 0 -25 -19
-42 -42z"/>
<path d="M3506 3695 c-125 -75 -237 -196 -304 -330 -29 -59 -72 -237 -72 -301
0 -39 -13 -53 -88 -97 -114 -66 -161 -81 -247 -82 -68 0 -89 4 -139 29 -91 45
-150 112 -276 315 -23 35 -43 57 -57 59 -51 7 -157 -80 -221 -182 -63 -99
-106 -206 -148 -368 -19 -77 -31 -85 -96 -67 -68 18 -109 43 -164 101 -71 74
-84 96 -84 145 0 64 36 142 135 292 48 73 98 157 111 185 27 58 48 186 34 200
-16 16 -37 -12 -43 -58 -9 -61 -48 -138 -111 -221 -90 -115 -123 -167 -149
-233 -66 -161 -55 -382 22 -479 83 -105 163 -156 269 -173 89 -15 108 -5 122
67 57 288 136 456 247 524 35 22 37 22 47 5 35 -58 154 -218 189 -254 60 -62
186 -123 270 -129 125 -10 292 67 444 204 132 121 200 149 267 114 36 -19 43
-10 67 84 25 100 27 250 3 263 -11 6 -23 1 -42 -18 -39 -39 -231 -105 -249
-86 -12 12 23 61 95 137 87 92 164 147 216 156 33 5 41 3 57 -18 10 -13 24
-50 30 -82 15 -75 34 -72 65 12 49 130 40 265 -21 305 -43 28 -113 21 -179
-19z"/>
<path d="M4270 3648 c-63 -32 -175 -145 -202 -204 -20 -43 -23 -65 -23 -188
l0 -138 41 -37 c23 -20 54 -43 70 -51 65 -33 106 -65 121 -94 39 -76 63 -51
63 66 0 145 -25 186 -157 259 -24 13 -43 29 -43 35 0 19 95 106 137 126 52 23
101 17 144 -20 41 -34 89 -132 89 -180 0 -92 -93 -275 -183 -359 -149 -140
-354 -255 -482 -270 -72 -8 -86 -22 -37 -36 26 -7 187 -3 357 9 169 12 244 52
289 155 15 35 33 75 40 89 53 101 91 316 91 515 -1 142 -2 153 -28 205 -14 30
-32 62 -39 70 -56 67 -168 89 -248 48z"/>
<path d="M3867 2997 c-17 -20 -43 -54 -57 -76 -14 -22 -29 -41 -33 -41 -5 0
-38 21 -73 46 l-65 47 -25 -24 c-24 -22 -104 -152 -104 -169 0 -8 92 -80 127
-99 30 -16 56 2 108 74 22 30 42 55 46 55 3 0 34 -18 68 -40 61 -39 62 -40 86
-23 13 10 25 21 25 25 0 4 6 13 13 20 30 32 67 96 67 116 0 21 -32 49 -121
106 l-29 18 -33 -35z"/>
<path d="M2597 2403 c-12 -19 -18 -232 -9 -283 34 -181 114 -271 282 -314 l55
-14 -5 -58 c-11 -126 -5 -268 14 -324 44 -132 135 -248 229 -290 57 -27 151
-27 194 0 18 10 41 37 53 59 51 101 0 329 -92 406 -100 85 -217 84 -253 -2
-15 -35 -15 -42 0 -93 34 -113 94 -165 160 -140 40 15 54 38 55 88 0 23 4 42
9 42 5 0 23 -12 40 -26 26 -21 31 -33 31 -68 0 -48 -27 -96 -73 -130 -59 -43
-187 -15 -255 57 -29 30 -35 45 -43 112 -11 89 13 330 35 352 3 4 71 9 150 11
166 5 210 -5 291 -66 79 -60 98 -104 103 -239 3 -83 8 -113 17 -113 20 0 30
134 15 206 -27 137 -77 228 -157 287 -82 60 -129 71 -295 70 l-146 0 -7 35
c-20 105 -108 218 -288 369 -86 72 -101 81 -110 66z m120 -202 c26 -21 87 -78
134 -127 80 -83 110 -127 95 -142 -12 -11 -131 19 -193 49 -82 40 -113 79
-113 146 0 60 9 113 20 113 5 0 30 -17 57 -39z"/>
<path d="M3742 2381 c-68 -23 -95 -50 -116 -113 -31 -97 -11 -176 25 -95 9 20
28 39 52 50 41 20 157 36 157 21 0 -13 -47 -81 -112 -161 -55 -66 -71 -103
-47 -103 18 0 150 111 170 144 25 41 59 154 59 197 0 58 -23 79 -83 79 -29 -1
-76 -9 -105 -19z"/>
<path d="M4485 2298 c-2 -7 -9 -31 -14 -54 -14 -54 -49 -104 -88 -127 -28 -16
-38 -17 -69 -7 -28 10 -38 10 -44 0 -10 -16 -2 -184 12 -237 l10 -42 -67 -77
c-82 -94 -108 -149 -135 -278 -20 -97 -27 -269 -14 -335 7 -36 28 -40 52 -12
21 25 214 153 220 146 8 -8 -27 -54 -129 -166 -120 -133 -139 -170 -148 -299
-4 -53 -10 -101 -14 -107 -4 -6 -1 -31 7 -55 8 -24 16 -67 19 -97 4 -53 4 -53
-31 -68 -94 -39 -158 46 -242 317 -22 72 -40 142 -40 155 0 12 -9 33 -20 46
l-20 24 -21 -25 c-29 -35 -85 -146 -99 -200 -34 -127 -100 -222 -219 -318
-138 -110 -191 -134 -379 -167 -72 -13 -99 -22 -92 -29 9 -9 379 -26 549 -26
52 0 92 30 129 95 33 57 102 248 102 280 0 34 17 11 34 -46 26 -84 91 -216
133 -267 44 -54 99 -82 159 -82 61 0 102 26 158 99 63 81 111 121 146 121 16
0 32 -4 35 -10 9 -15 42 -12 48 3 18 46 18 156 1 263 -24 153 -31 160 -95 90
-53 -58 -152 -117 -168 -101 -17 17 23 85 99 170 78 85 147 185 175 250 22 52
45 185 45 258 0 74 -19 112 -65 127 -43 14 -77 7 -128 -26 -22 -14 -41 -23
-44 -20 -3 3 12 26 33 51 160 190 212 273 256 410 26 78 36 317 16 355 -15 28
-46 39 -53 18z"/>
<path d="M4088 2092 c-9 -15 -76 -95 -148 -178 -162 -183 -190 -228 -190 -306
0 -31 4 -59 9 -62 5 -3 25 19 45 49 20 31 69 92 109 137 165 188 196 230 208
282 19 88 0 134 -33 78z"/>
<path d="M2121 2053 c-6 -21 -11 -54 -11 -73 0 -38 -8 -31 146 -122 48 -28
113 -103 140 -162 36 -78 50 -194 35 -284 -12 -72 -9 -101 9 -72 21 33 50 184
50 257 0 87 -28 206 -62 263 -37 62 -111 130 -196 181 -45 27 -87 49 -92 49
-5 0 -14 -17 -19 -37z"/>
<path d="M3066 980 c-32 -39 -40 -91 -31 -229 l7 -116 -27 50 c-34 64 -62 94
-102 111 -75 32 -123 -1 -123 -85 0 -82 4 -87 83 -108 40 -10 78 -18 85 -18
17 0 30 -23 58 -100 12 -32 26 -61 31 -62 22 -8 35 94 33 252 -3 198 -5 185
24 185 30 0 81 -42 103 -83 15 -29 16 -30 29 -12 19 26 17 103 -4 144 -21 42
-77 88 -114 95 -21 3 -33 -2 -52 -24z"/>
<path d="M4434 360 c-52 -37 -87 -84 -102 -137 -17 -57 -46 -73 -237 -128 -88
-26 -175 -51 -192 -56 -19 -6 -33 -17 -33 -26 0 -13 11 -15 81 -8 107 9 273
41 309 60 15 8 44 33 64 56 l35 42 63 -18 c35 -9 71 -22 81 -27 22 -11 50 10
73 55 13 24 13 35 -6 96 -15 50 -29 77 -51 95 -17 14 -34 26 -37 26 -4 -1 -25
-14 -48 -30z m26 -70 c11 -6 25 -20 31 -31 10 -19 9 -20 -13 -14 -65 21 -71
25 -58 40 15 18 16 18 40 5z"/>
</g>
</svg>
