<?xml version="1.0" encoding="utf-8"?>
<!-- Generator: Adobe Illustrator 21.0.0, SVG Export Plug-In . SVG Version: 6.00 Build 0)  -->
<svg version="1.1" id="Layer_1" xmlns="http://www.w3.org/2000/svg" xmlns:xlink="http://www.w3.org/1999/xlink" x="0px" y="0px"
	 viewBox="0 0 134.2 105.1" enable-background="new 0 0 134.2 105.1" xml:space="preserve">
<g id="rectangle_1_">
</g>
<g id="square_1_">
</g>
<g id="square_x5F_circle_1_">
</g>
<g id="babyshirt_1_">
	<g id="g_chocolate">
		<g id="chocolate_8_">
			<path fill="#824C40" d="M67.2,105h-1.8c-7-0.1-14-1.1-20.8-3c-6.8-1.9-13.4-4.7-19.4-8.5C13.3,86.1,4.9,75.6,1.6,64
				c-2.2-7.5-2.2-15.5,0-23C5,29.6,13.3,19.2,25.2,11.8S51.8,0.5,66.9,0.5h1.9c7,0.1,14,1.1,20.8,3c6.9,1.9,13.4,4.7,19.4,8.5
				c11.9,7.4,20.3,17.9,23.6,29.5c2.2,7.5,2.2,15.5,0,23C129.2,76,120.9,86.3,109,93.7S82.6,105,67.3,105H67.2z"/>
			
				<radialGradient id="SVGID_1_" cx="20.2419" cy="-8.5112" r="39.92" gradientTransform="matrix(1 0 0 1 0 22.7012)" gradientUnits="userSpaceOnUse">
				<stop  offset="0" style="stop-color:#FFFFFF;stop-opacity:0.6"/>
				<stop  offset="1" style="stop-color:#FFFFFF;stop-opacity:0"/>
			</radialGradient>
			<path fill="url(#SVGID_1_)" d="M67.2,105h-1.8c-7-0.1-14-1.1-20.8-3c-6.8-1.9-13.4-4.7-19.4-8.5C13.3,86.1,4.9,75.6,1.6,64
				c-2.2-7.5-2.2-15.5,0-23C5,29.6,13.3,19.2,25.2,11.8S51.8,0.5,66.9,0.5h1.9c7,0.1,14,1.1,20.8,3c6.9,1.9,13.4,4.7,19.4,8.5
				c11.9,7.4,20.3,17.9,23.6,29.5c2.2,7.5,2.2,15.5,0,23C129.2,76,120.9,86.3,109,93.7S82.6,105,67.3,105H67.2z"/>
			<path fill="#A4644C" d="M65.5,102.3c-6.8-0.1-13.5-1.1-20.1-2.9c-6.6-1.8-12.9-4.5-18.7-8.1c-11.4-7.1-19.3-17-22.4-27.9
				c-2-7-2-14.5,0-21.5C7.4,31,15.3,21.2,26.6,14.2S52.3,3.2,66.9,3.2h1.8c6.8,0.1,13.5,1.1,20.1,2.9c6.6,1.8,12.9,4.6,18.7,8.1
				c11.3,7.1,19.3,17,22.4,27.9c2,7,2,14.5,0,21.5c-3.1,10.8-11.1,20.6-22.3,27.6c-11.5,7.2-25.5,10.9-40.3,10.9h-0.1L65.5,102.3z"
				/>
			
				<radialGradient id="_Compound_Path__1_" cx="28.9019" cy="-6.8313" r="64.76" gradientTransform="matrix(1 0 0 1 0 22.7012)" gradientUnits="userSpaceOnUse">
				<stop  offset="0" style="stop-color:#FFFFFF;stop-opacity:0.6"/>
				<stop  offset="1" style="stop-color:#FFFFFF;stop-opacity:0"/>
			</radialGradient>
			<path id="_Compound_Path_" fill="url(#_Compound_Path__1_)" d="M66.9,4.2h1.8c6.7,0.1,13.4,1.1,19.9,2.9c6.5,1.8,12.7,4.5,18.5,8
				c11.2,7,19,16.7,22,27.4c2,6.9,2,14.1,0,21c-3.1,10.6-10.8,20.2-21.9,27.1c-11.4,7.1-25.1,10.8-39.8,10.8h-0.1h-1.7
				c-6.7-0.1-13.4-1.1-19.8-2.9c-6.5-1.8-12.7-4.5-18.5-8c-11.1-7-19-16.7-22-27.4c-2-6.9-2-14.1,0-21C8.3,31.5,16,21.8,27.1,15
				S52.4,4.2,66.9,4.2L66.9,4.2 M66.9,3.2c-14.7,0-29,3.9-40.3,10.9S7.4,31,4.3,41.8c-2,7-2,14.5,0,21.5c3.1,10.9,11,20.9,22.4,27.9
				c5.8,3.6,12.1,6.3,18.7,8.1c6.5,1.8,13.3,2.8,20.1,2.9h1.7h0.1c14.9,0,28.8-3.8,40.3-10.9c11.2-7,19.2-16.8,22.3-27.6
				c2-7,2-14.5,0-21.5c-3.1-10.9-11.1-20.9-22.4-27.9c-5.8-3.6-12.1-6.3-18.7-8.1c-6.6-1.8-13.3-2.8-20.1-2.9L66.9,3.2L66.9,3.2
				L66.9,3.2z"/>
			<path fill="#744337" d="M103.8,19.7c-0.7-0.5-1.5-0.9-2.3-1.3L32.6,87.2c4.6,2.6,9.5,4.6,14.6,6c6,1.7,12.1,2.5,18.3,2.7h1.6h0.1
				c13.5,0,26.2-3.4,36.6-9.9c9.9-6.2,16.8-14.7,19.5-24c1.7-5.9,1.7-12.2,0-18.1C120.8,34.5,113.8,25.9,103.8,19.7z"/>
			<path fill="#66392F" d="M86.9,12.3c-6-1.6-12.1-2.5-18.3-2.7h-1.7c-13.3,0-26.4,3.5-36.6,9.9c-9.9,6.1-16.8,14.7-19.5,24
				c-1.7,5.9-1.7,12.2,0,18.1c2.7,9.4,9.6,18,19.6,24.3c0.7,0.5,1.5,0.9,2.3,1.3l68.9-68.9C97,15.7,92,13.7,86.9,12.3z"/>
			
				<radialGradient id="_Compound_Path_2_1_" cx="102.3919" cy="64.9987" r="43.12" gradientTransform="matrix(1 0 0 1 0 22.7012)" gradientUnits="userSpaceOnUse">
				<stop  offset="0" style="stop-color:#FFFFFF;stop-opacity:0.6"/>
				<stop  offset="1" style="stop-color:#FFFFFF;stop-opacity:0"/>
			</radialGradient>
			<path id="_Compound_Path_2" fill="url(#_Compound_Path_2_1_)" d="M66.9,9.6h1.7c6.2,0.1,12.4,1,18.3,2.7c5.1,1.4,10,3.4,14.6,6
				c0.8,0.4,1.5,0.9,2.3,1.3c10,6.2,17,14.9,19.6,24.3c1.7,5.9,1.7,12.2,0,18.1c-2.7,9.3-9.6,17.9-19.5,24
				c-10.4,6.5-23.1,9.9-36.6,9.9h-0.1h-1.6c-6.2-0.1-12.4-1-18.3-2.7c-5.1-1.4-10-3.4-14.6-6c-0.8-0.4-1.5-0.9-2.3-1.3
				c-10-6.2-17-14.8-19.6-24.3c-1.7-5.9-1.7-12.2,0-18.1c2.7-9.3,9.6-17.9,19.5-24C40.6,13.1,53.6,9.6,66.9,9.6 M66.9,8.7L66.9,8.7
				c-13.5,0-26.7,3.6-37.1,10C19.7,25,12.6,33.7,9.9,43.3c-1.8,6.1-1.8,12.5,0,18.6c2.7,9.6,9.9,18.5,20,24.8
				c0.7,0.4,1.4,0.9,2.3,1.4c4.7,2.6,9.7,4.7,14.8,6.1c6.1,1.7,12.3,2.6,18.6,2.7h1.6h0.1c13.7,0,26.5-3.5,37.1-10
				c10.1-6.3,17.2-15,19.9-24.5c1.8-6.1,1.8-12.5,0-18.6c-2.7-9.6-9.9-18.5-20-24.8c-0.7-0.4-1.4-0.9-2.3-1.4
				c-4.7-2.6-9.7-4.7-14.8-6.1c-6.1-1.7-12.3-2.6-18.6-2.7L66.9,8.7L66.9,8.7C66.9,8.7,66.9,8.7,66.9,8.7z"/>
			<path id="coin_9_" fill="#FF00FF" d="M67.2,94.1h-1.5c-6.1-0.1-12.2-1-18.1-2.6c-5.8-1.6-11.4-4-16.6-7.2
				c-9.6-6-16.4-14.3-18.9-23.2c-1.6-5.6-1.6-11.4,0-17c2.6-8.9,9.2-17,18.8-23c10.1-6.3,22.9-9.7,36-9.7h1.6
				c6.1,0.1,12.2,1,18.1,2.6c5.8,1.6,11.4,4,16.6,7.2c9.6,6,16.3,14.3,18.9,23.2c1.6,5.6,1.6,11.4,0,17c-2.6,8.9-9.2,17-18.8,23
				c-10.2,6.3-22.7,9.7-36,9.7H67.2z"/>
			
				<radialGradient id="_Compound_Path_3_1_" cx="32.5019" cy="-0.8212" r="47.17" gradientTransform="matrix(1 0 0 1 0 22.7012)" gradientUnits="userSpaceOnUse">
				<stop  offset="0" style="stop-color:#FFFFFF;stop-opacity:0.6"/>
				<stop  offset="1" style="stop-color:#FFFFFF;stop-opacity:0"/>
			</radialGradient>
			<path id="_Compound_Path_3" fill="url(#_Compound_Path_3_1_)" d="M66.9,12.4h1.6c6,0.1,12,1,17.8,2.6c5.8,1.6,11.2,4,16.3,7.1
				c9.4,5.9,16,13.9,18.5,22.7c1.6,5.4,1.6,11.1,0,16.5c-2.5,8.7-9,16.6-18.3,22.4c-10.1,6.3-22.3,9.6-35.5,9.6h-0.2h-1.5
				c-6-0.1-12-1-17.8-2.6c-5.8-1.6-11.2-4-16.3-7.1c-9.4-5.9-16-13.9-18.5-22.7c-1.6-5.4-1.6-11.1,0-16.5c2.5-8.7,9-16.6,18.4-22.4
				C41.3,15.8,53.9,12.4,66.9,12.4 M66.9,11.4c-13.2,0-25.9,3.4-36,9.7c-9.5,5.9-16.2,14.1-18.8,23c-1.6,5.6-1.6,11.4,0,17
				C14.7,70,21.4,78.3,31,84.3c5.2,3.2,10.7,5.6,16.6,7.2c5.9,1.6,12,2.5,18.1,2.6h1.5h0.1c13.3,0,25.8-3.4,36-9.7
				c9.5-5.9,16.2-14.1,18.8-23c1.6-5.6,1.6-11.4,0-17c-2.6-9-9.3-17.2-18.9-23.2C98,18,92.5,15.6,86.6,14c-5.9-1.6-12-2.5-18.1-2.6
				L66.9,11.4L66.9,11.4L66.9,11.4z"/>
			<circle id="_Path_" fill="#EC1C24" cx="67.1" cy="0.5" r="0.5"/>
		</g>
		<g id="edit_8_">
			<path id="_Rectangle_" fill="none" stroke="#663930" stroke-miterlimit="10" d="M54.1,44.8h26c3.1,0,5.7,2.5,5.7,5.7v4.7
				c0,3.1-2.5,5.7-5.7,5.7h-26c-3.1,0-5.7-2.5-5.7-5.7v-4.7C48.4,47.3,51,44.8,54.1,44.8z"/>
			<path fill="#663930" d="M60.8,52.8h-3.1v2.9h3.5v0.9h-4.5v-8.1H61v0.9h-3.3V52h3.1V52.8L60.8,52.8z"/>
			<path fill="#663930" d="M62.6,48.6c0.7-0.1,1.5-0.2,2.2-0.2c1.2-0.1,2.3,0.3,3.3,1c0.8,0.8,1.2,1.8,1.1,2.9
				c0.1,1.2-0.4,2.3-1.2,3.2c-1,0.8-2.3,1.3-3.6,1.2c-0.6,0-1.3,0-1.9-0.1L62.6,48.6L62.6,48.6z M63.6,55.8c0.4,0,0.7,0.1,1.1,0.1
				c1.7,0.2,3.2-1,3.4-2.7c0-0.2,0-0.5,0-0.7c0-1.9-1.1-3.1-3.3-3.1c-0.4,0-0.8,0-1.2,0.1L63.6,55.8L63.6,55.8z"/>
			<path fill="#663930" d="M71.6,48.5v8.1h-1v-8.1H71.6z"/>
			<path fill="#663930" d="M74.9,49.4h-2.5v-0.9h6v0.9H76v7.2h-1.1V49.4L74.9,49.4z"/>
		</g>
		<g id="text">
			
				<radialGradient id="SVGID_2_" cx="46.7047" cy="75.2439" r="2.8502" gradientTransform="matrix(1 0 0 -1 0 105.89)" gradientUnits="userSpaceOnUse">
				<stop  offset="0" style="stop-color:#FFFFFF;stop-opacity:0.25"/>
				<stop  offset="1" style="stop-color:#FFFFFF;stop-opacity:0.25"/>
			</radialGradient>
			<path fill="url(#SVGID_2_)" d="M48.7,28.3c0.1-0.3,0.2-0.6,0.3-0.9c-0.4,0.7-0.9,1.5-1.4,2.3c-0.5,0.8-1.1,1.7-1.8,2.6
				c-0.5,0.7-1,1.3-1.4,1.8c1.3-1.5,2.5-3,3.6-4.5C48.2,29.1,48.4,28.7,48.7,28.3z"/>
			
				<radialGradient id="SVGID_3_" cx="38.2176" cy="44.3212" r="0.28" gradientTransform="matrix(1 0 0 -1 0 105.89)" gradientUnits="userSpaceOnUse">
				<stop  offset="0" style="stop-color:#FFFFFF;stop-opacity:0.25"/>
				<stop  offset="1" style="stop-color:#FFFFFF;stop-opacity:0.25"/>
			</radialGradient>
			<path fill="url(#SVGID_3_)" d="M37.9,61.8L37.9,61.8c0.3,0,0.4-0.1,0.6-0.2c0-0.1,0-0.2,0.1-0.2C38.5,61.5,38.2,61.7,37.9,61.8z"
				/>
			
				<radialGradient id="SVGID_4_" cx="43.0471" cy="74.879" r="11.5018" gradientTransform="matrix(1 0 0 -1 0 105.89)" gradientUnits="userSpaceOnUse">
				<stop  offset="0" style="stop-color:#FFFFFF;stop-opacity:0.25"/>
				<stop  offset="1" style="stop-color:#FFFFFF;stop-opacity:0.25"/>
			</radialGradient>
			<path fill="url(#SVGID_4_)" d="M34,27.1c0.2,0.3,0.4,0.5,0.7,0.5c0,0,0,0,0.1,0c0.2,0,0.3-0.1,0.3-0.3v-0.2
				c-0.1-0.2-0.1-0.5-0.2-0.7c-0.1-0.2-0.1-0.4-0.2-0.6c-0.2,0-0.2-0.2-0.2-0.3c0-0.4,0.3-0.8,0.8-1.2c0.6-0.5,1.4-0.9,2.5-1.4
				c1.2-0.6,2.2-1,3-1.3c-0.2,0.6-0.4,1.1-0.7,1.7c-0.6,1.6-1.1,3-1.5,4.3c-0.6,2-0.9,3.5-1,4.6c0,0.6,0,1.1,0.1,1.5
				c0.1,0.4,0.2,0.7,0.4,0.9c0.2,0.2,0.4,0.5,0.8,0.7l0,0c0.3,0.2,0.7,0.5,1.2,0.7c0.5,0.5,0.8,0.7,1.1,0.7c0.4,0,0.9-0.3,1.5-0.9
				c0.5-0.5,0.9-1,1.4-1.5c0.1-0.1,0.2-0.3,0.4-0.4c0.4-0.5,0.9-1.1,1.4-1.8c0.7-1,1.3-1.8,1.8-2.6c0.5-0.8,1-1.5,1.4-2.3
				c-0.1,0.3-0.2,0.6-0.3,0.9c-0.3,0.9-0.5,1.8-0.8,2.6c-0.2,0.5-0.3,1-0.5,1.5c-0.2,0.6-0.5,1.3-0.8,2.1c-1,2.4-1.8,4.3-2.6,5.7
				c-0.4,0.8-0.9,1.2-1.5,1.2c-0.3,0-0.5-0.1-0.8-0.2c-0.2-0.1-0.7-0.2-1.3-0.5c-0.2-0.1-0.3-0.1-0.4-0.1c-0.3,0-0.5,0.1-0.5,0.4
				c0,0.2,0.1,0.3,0.4,0.5c0.2,0.2,0.4,0.3,0.7,0.5c0.7,0.5,1.3,0.9,1.8,1.1c0.6,0.3,1.1,0.5,1.5,0.5c0.5,0,0.9-0.2,1.2-0.7
				c0.3-0.4,0.7-1.2,1.2-2.3c0.4-1,0.9-2.2,1.3-3.5c0.1-0.4,0.4-1.1,0.7-2.1c0.3-1.1,0.6-2,0.9-2.9c0.2-0.7,0.8-2.4,1.6-5.1
				c0.5-1.5,0.8-2.5,1-3c1.2-1.8,1.9-2.9,1.9-3.4c0-0.1,0-0.1,0-0.2s-0.1-0.2-0.2-0.3c-0.4-0.5-0.8-0.7-1.1-0.7
				c-0.4,0-0.7,0.5-1,1.6c-1.3,2.8-2.8,5.2-4.2,7.5s-3.3,4.3-5.1,6.3c-0.4,0.4-0.8,0.6-1.2,0.6l0,0c-0.7,0-1.1-0.7-1.1-2.2
				c0-0.9,0.2-2.1,0.5-3.6c0.3-1.5,0.8-3.1,1.5-4.6c0.6-1.6,1.4-3,2.2-4.1c0.9-0.2,1.3-0.4,1.4-0.6l0,0c0-0.1-0.1-0.2-0.2-0.3
				c-0.9-0.8-1.5-1.1-1.9-1.1c-0.2,0-0.5,0.1-0.7,0.3c-0.2,0.2-0.4,0.5-0.7,0.9c-0.4,0.2-0.9,0.4-1.4,0.5c-0.3,0.1-1,0.3-2.2,0.7
				c-1.1,0.3-1.9,0.6-2.4,0.8c-0.4,0.1-0.8,0.3-1.4,0.4c-1.1,0.4-1.7,1-1.7,1.8c0,0.4,0.1,0.9,0.4,1.4C33.2,25.9,33.6,26.5,34,27.1z
				"/>
			
				<radialGradient id="SVGID_5_" cx="56.1245" cy="72.6708" r="5.802" gradientTransform="matrix(1 0 0 -1 0 105.89)" gradientUnits="userSpaceOnUse">
				<stop  offset="0" style="stop-color:#FFFFFF;stop-opacity:0.25"/>
				<stop  offset="1" style="stop-color:#FFFFFF;stop-opacity:0.25"/>
			</radialGradient>
			<path fill="url(#SVGID_5_)" d="M52.3,31.8c-0.3,0.9-0.6,1.8-0.8,2.6c-0.2,0.8-0.3,1.5-0.4,2c0,0.9,0.3,1.7,0.9,2.3
				c0.2,0.1,0.3,0.3,0.5,0.4c0.5,0.3,1.1,0.5,1.8,0.5c0,0,0.2,0,0.4,0.1c0.1,0,0.1,0,0.2,0c0.3,0.1,0.5,0.1,0.7,0.1s0.3,0,0.5,0
				c0.1,0,0.2,0,0.3-0.1c0.2-0.1,0.4-0.2,0.6-0.3c0.2-0.2,0.4-0.4,0.7-0.7c0.7-0.7,1.3-1.6,1.7-2.5c0.5-1,0.8-1.9,1-2.7
				c0.2-0.9,0.4-1.6,0.6-2.4c0.1-0.7,0.2-1.2,0.2-1.5c0-0.6-0.2-1.1-0.5-1.5c0,0,0,0,0-0.1c-0.5-0.7-0.9-1.1-1.3-1.1
				c-0.2,0-0.4,0.1-0.8,0.2c-0.3,0.1-0.5,0.2-0.7,0.3c-0.2,0.1-0.4,0.2-0.7,0.3c-0.7-0.7-1.3-1.1-1.7-1.1c-0.3,0-0.6,0.2-1,0.7
				c-0.4,0.5-0.8,1.1-1.2,1.8C53.1,30,52.7,30.8,52.3,31.8z M58.7,28.3c0.1,0,0.3-0.1,0.4-0.1c0.1,0,0.2,0,0.2,0.1
				c0.1,0.1,0.2,0.3,0.2,0.5c0,0.1,0,0.3,0,0.5c0,0.2,0,0.5-0.1,0.8c-0.1,1-0.4,2.1-0.7,3.2c-0.4,1.2-0.8,2.2-1.4,3.2
				c-0.5,0.9-1.1,1.6-1.7,2c-0.5,0.3-0.9,0.5-1.2,0.5c-0.1,0-0.2,0-0.2,0c-0.3-0.1-0.6-0.2-0.8-0.6c-0.3-0.4-0.4-1-0.4-1.7
				c0-0.4,0.1-0.9,0.2-1.6c0-0.2,0.1-0.6,0.3-1.2c0.1-0.4,0.3-1,0.6-1.7c0.2-0.6,0.5-1.2,0.8-1.8c0.3-0.6,0.6-1,0.8-1.3
				c0.1,0.2,0.2,0.3,0.2,0.3s0.2-0.1,0.5-0.2h0.1c0.1,0,0.2-0.1,0.3-0.1c0.2-0.1,0.3-0.1,0.5-0.2c0.2-0.1,0.5-0.2,0.7-0.3
				C58.2,28.5,58.5,28.4,58.7,28.3z"/>
			
				<radialGradient id="SVGID_6_" cx="68.2752" cy="72.4945" r="5.9813" gradientTransform="matrix(1 0 0 -1 0 105.89)" gradientUnits="userSpaceOnUse">
				<stop  offset="0" style="stop-color:#FFFFFF;stop-opacity:0.25"/>
				<stop  offset="1" style="stop-color:#FFFFFF;stop-opacity:0.25"/>
			</radialGradient>
			<path fill="url(#SVGID_6_)" d="M63.5,39.2C63.5,39.2,63.5,39.3,63.5,39.2c0.4,0.2,0.8,0.3,1,0.3c0.3,0,0.5-0.1,0.7-0.3
				c0.1-0.1,0.2-0.1,0.2-0.2c0.8-0.9,1.7-2,2.5-3.2c0.8-1.2,1.6-2.5,2.5-3.9c-0.2,0.5-0.3,1-0.5,1.5c-0.3,0.9-0.5,1.9-0.8,3
				c-0.1,0.4-0.2,0.9-0.3,1.3c-0.1,0.3-0.1,0.5-0.1,0.6c0,0.2,0.1,0.4,0.4,0.6c0.2,0.2,0.4,0.3,0.6,0.4c0.3,0.2,0.5,0.2,0.6,0.2
				c0.1,0,0.2-0.1,0.3-0.2c0.1-0.1,0.1-0.3,0.2-0.6c0.2-0.8,0.6-1.9,1.3-3.5c0-0.1,0-0.1,0-0.2c0-0.2-0.1-0.3-0.2-0.3
				s-0.2,0.1-0.3,0.2c-0.1,0.3-0.3,0.6-0.5,1c-0.2,0.3-0.3,0.5-0.3,0.6c0,0.1-0.1,0.2-0.1,0.3c0.2-1,0.5-2,0.8-3.1
				c0.3-0.9,0.6-1.9,1-3c0.4-0.9,0.8-1.9,1.3-2.8c0,0,0,0,0-0.1l0.1-0.1c0.1-0.1,0.1-0.1,0.1-0.1c0-0.1-0.2-0.2-0.5-0.4
				c-0.4-0.3-0.8-0.4-1-0.4c-0.2,0-0.3,0.1-0.5,0.2c-0.1,0.1-0.3,0.3-0.5,0.7c-0.2,0.4-0.4,0.8-0.6,1.2c-0.1,0.3-0.6,1.1-1.3,2.3
				c-0.7,1.1-1.5,2.4-2.4,3.7c-0.8,1.2-1.5,2.2-2.1,2.8l0,0c-0.3,0.4-0.6,0.6-0.8,0.6S64,38.2,64,37.7c0-0.8,0.1-1.6,0.3-2.4
				c0.2-0.9,0.4-1.8,0.7-2.7c0.3-0.9,0.6-1.7,0.9-2.6c0.3-0.8,0.6-1.3,0.8-1.7l0.1-0.1l0.1-0.1l0.1-0.1c0.1-0.1,0.1-0.1,0.1-0.2
				s-0.1-0.2-0.2-0.3c-0.5-0.3-0.9-0.5-1.2-0.5c-0.2,0-0.4,0.1-0.6,0.3c-0.4,0.5-0.7,1.1-1,1.8c-0.1,0.3-0.4,0.8-1,1.6
				C63,30.8,63,30.9,63,30.9c0,0.1,0,0.1,0.1,0.1c0.1,0,0.1,0,0.2-0.1c0.2-0.2,0.3-0.3,0.4-0.3c0.1-0.1,0.3-0.3,0.5-0.4
				c-0.3,0.6-0.5,1.3-0.7,2.1c-0.2,1.1-0.4,1.9-0.6,2.9c-0.2,1-0.3,1.9-0.4,2.7c0,0.1,0,0.2,0,0.4c0,0.3,0.1,0.6,0.2,0.8
				C62.9,39.1,63.2,39.2,63.5,39.2z"/>
			
				<radialGradient id="SVGID_7_" cx="79.3318" cy="72.7982" r="5.7233" gradientTransform="matrix(1 0 0 -1 0 105.89)" gradientUnits="userSpaceOnUse">
				<stop  offset="0" style="stop-color:#FFFFFF;stop-opacity:0.25"/>
				<stop  offset="1" style="stop-color:#FFFFFF;stop-opacity:0.25"/>
			</radialGradient>
			<path fill="url(#SVGID_7_)" d="M75,39c0.2,0.1,0.4,0.2,0.6,0.3c0.3,0.2,0.6,0.2,0.6,0.2c0.1,0,0.3-0.1,0.4-0.3
				c0.1-0.2,0.3-0.7,0.5-1.3c0.3-1.1,0.8-2.2,1.3-3.3c0.3-0.6,0.5-1.2,0.9-1.7c0.9-1.7,1.8-3.1,2.7-4.2c0.3-0.4,0.5-0.5,0.6-0.5
				s0.1,0.1,0.1,0.1s0,0.1,0,0.2c0,0.6-0.1,1.3-0.4,2.2l0,0c-0.2,0.2-0.3,0.4-0.3,0.5c0,0.1,0.1,0.3,0.3,0.4
				c0.1,0.1,0.2,0.1,0.2,0.2c0,0.1,0.1,0.1,0.1,0.1c0.1,0.1,0.2,0.2,0.3,0.2l0,0c0.1,0,0.2,0.1,0.2,0.1c0.2,0,0.4-0.2,0.5-0.6
				c0.2-0.7,0.3-1.3,0.4-2C84,29,84,28.4,84,27.9c0,0,0,0,0-0.1c0-0.4-0.1-0.6-0.2-0.7c-0.2-0.1-0.4-0.2-0.8-0.2
				c-0.3-0.3-0.6-0.4-0.8-0.4s-0.5,0.2-0.8,0.7c-0.4,0.5-0.7,1-1.1,1.6c-0.5,0.8-1,1.5-1.5,2.3c-0.8,1.3-1.5,2.8-2.2,4.2
				c0.3-1.1,0.7-2.5,1.3-4.1c0.6-1.8,1-2.8,1.2-3.1l0,0c0.1-0.1,0.2-0.2,0.2-0.3c0-0.1-0.1-0.2-0.3-0.3c-0.6-0.3-1-0.4-1.1-0.4
				c-0.2,0-0.3,0.1-0.4,0.2c-0.1,0.1-0.3,0.3-0.4,0.5c-0.1,0.3-0.3,0.6-0.5,0.9c-0.2,0.2-0.3,0.5-0.5,0.7l-0.9,1.2
				c-0.1,0.1-0.1,0.2-0.1,0.3c0,0.2,0.1,0.2,0.3,0.2c0.1,0,0.2-0.1,0.3-0.2c0.2-0.4,0.7-0.9,1.4-1.6c-0.2,0.6-0.5,1.3-0.7,2
				c-0.1,0.2-0.2,0.5-0.2,0.8c-0.1,0.4-0.2,0.7-0.4,1.1c-0.4,1.4-0.8,3.1-1.3,5c-0.1,0.2-0.1,0.4-0.1,0.4C74.5,38.7,74.7,38.9,75,39
				z"/>
			
				<radialGradient id="SVGID_8_" cx="68.7135" cy="53.2744" r="11.0525" gradientTransform="matrix(1 0 0 -1 0 105.89)" gradientUnits="userSpaceOnUse">
				<stop  offset="0" style="stop-color:#FFFFFF;stop-opacity:0.25"/>
				<stop  offset="1" style="stop-color:#FFFFFF;stop-opacity:0.25"/>
			</radialGradient>
			<path fill="url(#SVGID_8_)" d="M62.8,56.5c0.2-0.5,0.5-1.2,0.7-1.9c0.5-1.2,0.9-2.4,1.4-3.7c0.4-1.2,0.7-2.1,1-2.7
				c0.2,0.2,0.5,0.7,0.9,1.3c0.3,0.4,0.6,0.9,0.9,1.5c0.9,1.6,1.8,3.3,2.7,5c1,1.9,1.7,3.7,2.3,5.1c-0.1,0.5-0.1,0.8-0.1,0.9
				c0,0.2,0,0.3,0.1,0.4c0.1,0.1,0.1,0.2,0.2,0.2c0.1,0.1,0.1,0.2,0.2,0.2c0.1,0.1,0.2,0.1,0.3,0.1h0.1c0.1,0,0.2-0.1,0.3-0.1
				c0.4-0.3,0.7-0.5,0.9-0.8c0.2-0.2,0.2-0.4,0.2-0.6c0-0.1-0.1-0.5-0.3-0.9c0-1.1,0.2-2.5,0.6-4.1c0.4-1.7,0.8-3.5,1.4-5.4
				c0.6-1.9,1.1-3.6,1.6-4.8c0.1-0.2,0.4-0.5,0.8-0.9c0.4-0.5,0.7-0.8,0.9-1c0.2-0.3,0.3-0.6,0.3-0.9c0-0.1,0-0.2,0-0.3
				c0-0.1-0.1-0.2-0.2-0.3c-0.5-0.5-0.9-0.8-1.2-0.8c-0.2,0-0.5,0.2-0.8,0.6c-0.2,0.3-0.4,0.5-0.5,0.6c-0.1,0.1-0.2,0.3-0.3,0.4
				c-0.3,0.4-0.7,0.8-1,1c-0.3,0.3-0.6,0.5-0.9,0.5c-0.3,0-0.5,0.1-0.5,0.2c0,0.1,0.1,0.3,0.3,0.5c0.3,0.2,0.5,0.4,0.8,0.6
				c0.1,0.1,0.2,0.1,0.2,0.2c0,0,0,0.1,0,0.2c-0.2,0.7-0.6,2.4-1.3,4.9c-0.5,2.2-0.9,3.9-1.2,5.2c-0.1,0.4-0.1,0.7-0.2,1
				c-0.3-0.9-0.8-2-1.6-3.5c-0.8-1.6-1.7-3.2-2.6-4.7c-1-1.7-1.9-3.2-2.9-4.4c0,0,0.1-0.2,0.2-0.5c0.1-0.2,0.2-0.5,0.2-0.8
				c0.1-0.2,0.1-0.4,0.1-0.6c0-0.1,0-0.1,0-0.2c0-0.2-0.1-0.4-0.3-0.5c-0.4-0.3-0.7-0.5-0.9-0.5c-0.1,0-0.2,0.1-0.2,0.2v0.1
				c0,0.1,0,0.2,0,0.3c0,0.2-0.1,0.4-0.2,0.8c0,0.1,0,0.1-0.1,0.2c-0.2-0.3-0.5-0.6-0.7-0.9c-0.7-0.9-1.3-1.3-1.8-1.4
				c-0.5,0-0.9,0.2-1.3,0.5c-0.4,0.4-1.2,1-2.3,2.1c-0.2,0.2-0.3,0.4-0.3,0.6s0.1,0.3,0.4,0.3c0.2,0,0.4-0.1,0.6-0.2
				c0.6-0.5,1.1-0.7,1.6-0.8c0.1,0,0.2,0,0.2,0c0.2,0,0.5,0.1,0.8,0.2c0.2,0.1,0.4,0.3,0.7,0.5c0.3,0.3,0.6,0.5,0.8,0.8
				c0,0,0,0,0.1,0.1c0.3,0.3,0.5,0.7,0.7,1c-0.2,0.6-0.5,1.7-1.2,3.3c-0.7,1.8-1.4,3.6-2,5.1c-0.8,1.8-1.5,3.3-2.1,4.3
				c-1.6,1-2.4,1.7-2.4,2.2c0,0.2,0.1,0.4,0.4,0.6c0.1,0.1,0.4,0.2,0.6,0.4c0.2,0.1,0.3,0.2,0.5,0.3c0.2,0.1,0.3,0.1,0.5,0.1
				s0.4-0.1,0.5-0.2c0.1-0.2,0.2-0.4,0.4-0.7c0.1-0.3,0.2-0.5,0.2-0.5c0.2-0.2,0.4-0.3,0.7-0.5c0.3-0.1,0.6-0.2,0.9-0.2h0.3
				c0.1,0,0.2,0,0.3,0c0.4,0,0.6-0.1,0.6-0.3c0,0,0-0.1-0.1-0.2c-0.5-1.1-1-1.6-1.3-1.6c0,0,0.2-0.5,0.5-1.3
				C62.4,57.4,62.6,57,62.8,56.5z"/>
			
				<radialGradient id="SVGID_9_" cx="83.05" cy="49.2263" r="6.1915" gradientTransform="matrix(1 0 0 -1 0 105.89)" gradientUnits="userSpaceOnUse">
				<stop  offset="0" style="stop-color:#FFFFFF;stop-opacity:0.25"/>
				<stop  offset="1" style="stop-color:#FFFFFF;stop-opacity:0.25"/>
			</radialGradient>
			<path fill="url(#SVGID_9_)" d="M88.8,52.7c0.1-0.2,0.1-0.4,0.1-0.6l0,0c0-0.2-0.1-0.4-0.4-0.6c-0.6-0.4-0.9-0.6-1.1-0.6
				s-0.3,0.2-0.4,0.7c0,0.1-0.1,0.2-0.1,0.3c-0.1,0.2-0.2,0.5-0.4,0.9c0,0.1,0,0.1-0.1,0.1c-0.3,0.6-0.8,1.4-1.4,2.4
				c-0.7,1-1.5,2.1-2.4,3.1c-0.9,1.1-1.7,2-2.4,2.6c-0.1,0.1-0.2,0.2-0.4,0.3c-0.3,0.3-0.6,0.4-0.9,0.4c-0.2,0-0.3-0.2-0.3-0.6
				c0.2-1.1,0.6-2.3,1.3-3.6c0.3-0.6,0.7-1.2,1.1-1.8c0.4-0.6,0.8-1.1,1.2-1.7c0.8-1,1.5-1.8,2.1-2.2c0.3-0.2,0.5-0.3,0.8-0.3
				c0.3,0,0.6,0.1,0.9,0.2c0.1,0,0.2,0,0.2,0c0.2,0,0.3-0.1,0.3-0.3v-0.1c0-0.1-0.1-0.1-0.1-0.2c-0.6-0.5-1-0.9-1.2-1.1
				c-0.3-0.2-0.6-0.3-0.9-0.3c-0.4,0-0.8,0.2-1.3,0.7c-1.5,1.4-2.8,3.1-3.9,5c-0.5,1-1,1.9-1.3,2.8c-0.3,0.9-0.6,1.7-0.7,2.5
				c0,0.2,0,0.4,0,0.4c0,0.4,0.1,0.6,0.2,0.8c0.1,0.2,0.4,0.4,0.6,0.6c0.1,0.1,0.2,0.1,0.2,0.2c0.1,0.1,0.2,0.1,0.2,0.2
				c0.1,0.1,0.2,0.1,0.4,0.1c0.3,0,0.6-0.1,1-0.4c0,0,0.1,0,0.1-0.1c0.4-0.3,1-0.8,1.7-1.6c0.8-0.9,1.7-1.8,2.5-2.9
				c0.9-1.1,1.6-2.1,2.2-3.1c-0.2,0.4-0.3,1-0.5,1.5c-0.1,0.5-0.3,0.9-0.4,1.5c-0.1,0.3-0.1,0.6-0.2,0.9c-0.2,0.8-0.4,1.6-0.5,2.5
				c0,0.2-0.1,0.4-0.1,0.5c0,0.1,0,0.2,0.1,0.3c0,0,0.2,0.2,0.4,0.4c0.2,0.1,0.3,0.2,0.5,0.3c0.2,0.1,0.4,0.2,0.5,0.2
				c0.2,0,0.3-0.2,0.4-0.6c0.2-0.8,0.4-1.5,0.7-2.1c0.2-0.5,0.6-1.1,0.9-1.6c0.1-0.2,0.2-0.3,0.3-0.5c0.1-0.1,0.1-0.2,0.1-0.3
				c0-0.1-0.1-0.2-0.2-0.2c0,0,0,0-0.1,0c-0.2,0-0.3,0.1-0.5,0.3c-0.4,0.5-0.8,0.9-1.1,1.2c0.2-1.1,0.5-2.2,0.9-3.3
				C87.8,54.9,88.4,53.7,88.8,52.7z"/>
			
				<radialGradient id="SVGID_10_" cx="99.4315" cy="49.0821" r="8.1748" gradientTransform="matrix(1 0 0 -1 0 105.89)" gradientUnits="userSpaceOnUse">
				<stop  offset="0" style="stop-color:#FFFFFF;stop-opacity:0.25"/>
				<stop  offset="1" style="stop-color:#FFFFFF;stop-opacity:0.25"/>
			</radialGradient>
			<path fill="url(#SVGID_10_)" d="M94.9,56.4c0.4-0.6,0.8-1.3,1.3-2c0.9-1.3,1.7-2.2,2.4-2.8c0.2-0.2,0.4-0.2,0.5-0.2
				c0.1,0,0.1,0,0.2,0.1c0.1,0.1,0.1,0.2,0.1,0.4c0,0.3,0,0.7,0,1c-0.1,2.8-0.8,5.7-2,8.7c-0.2,0.3-0.2,0.5-0.2,0.6
				c0,0.1,0.1,0.2,0.2,0.3c0.3,0.2,0.5,0.3,0.8,0.5c0.1,0,0.1,0.1,0.2,0.1c0.2,0.1,0.3,0.1,0.3,0.1c0.1,0,0.2-0.1,0.3-0.4
				c0.3-1.1,0.8-2.3,1.5-3.5c0.4-0.7,0.8-1.4,1.2-2c0.3-0.5,0.5-0.9,0.8-1.3c0.7-1,1.3-1.9,2-2.7c0.6-0.8,1.1-1.3,1.5-1.5
				c0.2-0.2,0.4-0.3,0.6-0.3h0.1c0.2,0.1,0.3,0.2,0.3,0.5c0,0.2,0,0.5,0,0.8c-0.1,0.6-0.2,1.2-0.3,2c-0.3,1.3-0.6,2.6-1,3.8
				c-0.4,1.3-0.9,2.5-1.4,3.8c-0.1,0.2-0.2,0.4-0.2,0.5c0,0.1,0.1,0.2,0.2,0.3c0.2,0.1,0.4,0.2,0.8,0.3c0,0,0,0,0.1,0
				c0.2,0.1,0.3,0.1,0.5,0.1c0.1,0,0.2,0,0.2-0.1c0.1-0.1,0.1-0.2,0.2-0.4c0.4-0.7,0.9-1.7,1.7-3.1c0.6-1,1-1.7,1.3-2.1
				c0,0,0,0,0-0.1c0.1-0.1,0.1-0.3,0.1-0.4v-0.1c0-0.1-0.1-0.2-0.2-0.2c-0.2,0-0.3,0.1-0.5,0.3c-0.3,0.4-0.7,1-1.2,1.6
				c0.3-0.9,0.6-1.8,0.9-2.7c0.2-1,0.4-1.9,0.5-2.6c0.1-0.9,0.2-1.5,0.2-1.9c0-0.2,0-0.3-0.1-0.5c-0.1-0.6-0.5-0.9-1.1-1
				c-0.5-0.4-0.8-0.6-1.1-0.6c-0.2,0-0.5,0.1-0.7,0.3c-1,0.9-1.9,1.9-2.7,3c-0.4,0.5-0.7,1-1.1,1.6c-0.5,0.8-1.1,1.6-1.6,2.5
				c0.5-1.6,0.7-3.3,0.7-5.1v-0.4c0-0.1,0-0.2,0-0.4c0-0.2-0.1-0.4-0.2-0.5c-0.1-0.2-0.4-0.4-0.9-0.6c-0.5-0.3-0.8-0.4-1-0.4
				c-0.2,0-0.4,0.1-0.6,0.3c-0.9,0.8-1.8,1.8-2.6,3c-0.2,0.2-0.3,0.5-0.5,0.7c-0.8,1.1-1.4,2.2-2,3.2c0.3-1,0.6-2,0.8-3
				c0.2-1.2,0.4-2,0.4-2.5c0,0,0,0,0-0.1c0-0.4-0.1-0.6-0.2-0.7c-0.1,0-0.4-0.2-0.9-0.4c-0.3-0.3-0.5-0.5-0.6-0.5
				c-0.2,0-0.3,0.1-0.5,0.4c-0.1,0.2-0.4,0.6-0.9,1.2c-0.3,0.4-0.6,0.7-0.8,1c-0.1,0.1-0.2,0.2-0.2,0.4c0,0.2,0.1,0.3,0.2,0.3
				s0.2-0.1,0.3-0.2s0.3-0.3,0.4-0.4c0.1-0.1,0.3-0.3,0.4-0.4s0.3-0.3,0.4-0.4c0.1-0.1,0.3-0.3,0.4-0.4c0,0.1,0,0.2,0,0.4
				s0,0.3,0,0.5c0,0.4-0.1,0.8-0.1,1.2c0,0.2-0.1,0.5-0.1,0.7c-0.2,1-0.4,2-0.6,2.9c-0.3,1-0.5,1.9-0.7,2.6s-0.4,1.3-0.6,1.7
				c-0.2,0.2-0.4,0.4-0.4,0.5s0.1,0.2,0.2,0.3c0.4,0.2,0.6,0.4,0.8,0.5c0.1,0.1,0.2,0.1,0.3,0.1c0.2,0,0.3-0.1,0.4-0.2
				c0.1-0.1,0.2-0.3,0.3-0.6c0.4-1.1,0.9-2.4,1.7-3.9c0.4-0.7,0.7-1.3,1-1.9C94.8,56.6,94.8,56.5,94.9,56.4z"/>
			
				<radialGradient id="SVGID_11_" cx="114.1633" cy="49.3251" r="5.5245" gradientTransform="matrix(1 0 0 -1 0 105.89)" gradientUnits="userSpaceOnUse">
				<stop  offset="0" style="stop-color:#FFFFFF;stop-opacity:0.25"/>
				<stop  offset="1" style="stop-color:#FFFFFF;stop-opacity:0.25"/>
			</radialGradient>
			<path fill="url(#SVGID_11_)" d="M118.2,58c-0.1-0.1-0.1-0.1-0.2-0.1c-0.1,0-0.3,0.1-0.4,0.2c-0.8,0.8-1.4,1.4-2,1.9
				s-1.1,0.9-1.6,1.2c-0.5,0.3-0.9,0.5-1.4,0.7l0,0c-0.2,0.1-0.4,0.1-0.5,0.1c-0.3,0-0.5-0.3-0.5-0.8c0-0.6,0.1-1.3,0.2-2
				s0.3-1.3,0.4-1.9c0.2-0.5,0.3-0.8,0.4-1c0.2,0.1,0.4,0.1,0.6,0.1s0.4,0.1,0.8,0.1l0,0c0.3,0,0.5,0.1,0.7,0.1
				c0.8,0,1.5-0.2,2.2-0.7c0.1-0.1,0.2-0.2,0.3-0.2c0.3-0.2,0.5-0.5,0.6-0.8c0.1-0.4,0.2-0.9,0.2-1.6c0-0.4,0-0.7,0-1.1
				c0-0.3,0-0.5,0-0.8c0-0.2,0-0.4,0-0.5v-0.1c0,0,0-0.1,0-0.3c0-0.2,0-0.3,0-0.3c0-0.2-0.2-0.2-0.7-0.2c-0.4,0-0.7,0-0.8,0
				c-0.1,0-0.2,0.1-0.2,0.2s0,0.2,0,0.3c-0.7-0.3-1.2-0.4-1.3-0.4c-0.4,0-0.8,0.3-1.3,0.8c-0.7,0.9-1.5,2.3-2.4,4.3
				c-0.2-0.1-0.4-0.1-0.5-0.1c-0.2,0-0.4,0.1-0.4,0.2c0,0.2,0.2,0.4,0.6,0.6c-0.6,1.7-0.9,3.3-1.1,4.6v0.3c0,0.2,0,0.4,0.1,0.6
				c0.1,0.2,0.2,0.3,0.3,0.4c0.1,0.1,0.2,0.2,0.4,0.2c0.1,0.1,0.2,0.1,0.3,0.2c0,0,0,0,0.1,0c0.4,0.4,0.7,0.6,1,0.8
				c0.3,0.2,0.5,0.2,0.8,0.2c0.5,0,1-0.3,1.6-0.7c0.1-0.1,0.3-0.2,0.4-0.3c0.8-0.7,1.9-2,3.2-3.7c0.1-0.1,0.2-0.3,0.2-0.4
				C118.3,58.1,118.3,58,118.2,58z M116.4,53.1c0,1-0.2,1.7-0.5,2c-0.4,0.4-0.9,0.6-1.4,0.6c-0.1,0-0.1,0-0.1,0c-0.1,0-0.3,0-0.3,0
				c-0.2,0-0.4,0-0.5,0s-0.1,0-0.2,0c-0.1,0-0.1,0-0.2,0s-0.1,0-0.2,0c0.8-2,1.6-3.5,2.7-4.2c0.2-0.2,0.4-0.2,0.5-0.2
				c0.2,0,0.3,0.2,0.3,0.6c0,0.1,0,0.2,0,0.3s0,0.2,0,0.3v0.2L116.4,53.1L116.4,53.1z"/>
			
				<radialGradient id="SVGID_12_" cx="41.4393" cy="36.1397" r="11.5912" gradientTransform="matrix(1 0 0 -1 0 105.89)" gradientUnits="userSpaceOnUse">
				<stop  offset="0" style="stop-color:#FFFFFF;stop-opacity:0.25"/>
				<stop  offset="1" style="stop-color:#FFFFFF;stop-opacity:0.25"/>
			</radialGradient>
			<path fill="url(#SVGID_12_)" d="M51.3,60.8c0.4-0.3,0.7-0.5,1.1-0.5h0.3h0.1h0.1c0.3,0,0.4,0,0.5-0.1c0.1,0,0.1-0.1,0.1-0.2
				s-0.1-0.3-0.4-0.4c-0.4-0.3-0.8-0.5-1.2-0.6c-0.5-0.2-0.9-0.3-1.3-0.3c-0.6,0-1.1,0.5-1.8,1.5c-0.6,1-1.2,2.1-1.8,3.6
				c-0.6,1.4-1,2.6-1.3,3.6c-0.2,0.8-0.6,1.9-1,3.4c-1.1,0.1-2.3,0.1-3.6,0.1c-1.2,0-2.3,0-3.4-0.1c-0.5,0-0.9,0-1.4-0.1
				c0.3-0.9,0.7-1.8,1-2.6c0.4-1,0.6-1.6,0.7-1.7c0.1-0.3,0.2-0.6,0.3-0.8c0.1-0.2,0.2-0.5,0.4-0.9c0.5-1.3,0.9-2.3,1.1-3.1
				c0.3-0.8,0.4-1.3,0.4-1.6c0,0,0,0,0-0.1c0-0.2-0.1-0.4-0.2-0.5c-0.5-0.3-0.8-0.5-0.9-0.5c-0.1,0-0.1,0-0.1,0
				c-0.1,0.1-0.1,0.1-0.1,0.2c0,0,0,0.1-0.1,0.1c0,0.1-0.1,0.1-0.1,0.2c-0.2,0.3-0.5,0.6-0.8,0.8c-0.3,0.2-0.7,0.4-1.2,0.5
				c-0.4,0.1-0.9,0.2-1.8,0.4c-0.1,0-1,0.2-2.7,0.6c-0.9,0.2-1.6,0.4-2,0.6c-0.5,0.2-0.8,0.4-1,0.6c-0.2,0.2-0.3,0.4-0.3,0.7
				c0,0.5,0.1,1.1,0.4,1.8c0.2,0.7,0.5,1.3,0.7,1.7c0.1,0.2,0.2,0.3,0.4,0.3c0.1,0,0.1,0,0.2-0.1c0.1,0,0.1-0.1,0.1-0.2
				c0,0,0-0.1,0-0.2c-0.2-0.5-0.2-0.9-0.2-1.2c0-0.4,0.1-0.7,0.4-1c0.2-0.3,0.7-0.6,1.3-0.8c0.5-0.2,1-0.5,1.7-0.7
				c0.3-0.1,0.6-0.2,1-0.3c0.4-0.1,0.8-0.3,1.2-0.4c0.8-0.3,1.3-0.5,1.6-0.6l0,0c0.4-0.2,0.6-0.3,0.7-0.4c0,0.1,0,0.2-0.1,0.2
				c-0.1,0.4-0.3,0.9-0.4,1.5c-0.1,0.3-0.2,0.7-0.3,1c-0.4,1.1-0.8,2.3-1.3,3.6c-0.5,1.3-0.9,2.2-1.2,2.9c-1.2,0-1.9,0.2-2.1,0.6
				c-0.1,0.1-0.1,0.3-0.1,0.4c0,0.2,0,0.4,0.1,0.6c0.1,0.3,0.2,0.5,0.3,0.7c0.1,0.2,0.2,0.5,0.4,0.9c-0.2,0.6-0.5,1.2-0.8,1.8
				s-0.5,1-0.8,1.4c-0.1,0.1-0.1,0.2-0.2,0.2c0-0.1,0-0.2-0.1-0.4c-0.1-0.2-0.3-0.5-0.7-0.8c-0.1-0.1-0.2-0.2-0.3-0.2
				c-0.2,0-0.3,0.2-0.3,0.5c0,0.1,0,0.2,0,0.2v0.3c0,0.2,0,0.4-0.1,0.6c0,0.2-0.1,0.3-0.2,0.4c0,0.1-0.1,0.3-0.3,0.5
				c0,0-0.2,0.3-0.4,0.8c-0.1,0.3-0.2,0.6-0.2,0.8c0,0.2,0.1,0.4,0.3,0.5s0.4,0.2,0.7,0.3c0.1,0.1,0.3,0.1,0.5,0.2
				c0.1,0,0.2,0,0.2,0c0.4,0,0.7-0.2,1-0.6c0.3-0.4,0.6-1.1,1.1-2.1c0.3-0.6,0.8-1.6,1.5-3.2c0.5-1.1,0.9-2.1,1.1-2.7
				c1-0.2,2.7-0.3,4.8-0.3c1.4,0,2.7,0,3.8,0.1c-0.1,0.3-0.1,0.6-0.2,0.9c-0.6,2.6-0.9,4.4-0.9,5.5c0,0.7,0.1,1.1,0.3,1.2
				c0.3,0.1,0.5,0.3,0.7,0.4c0.1,0,0.2,0.1,0.3,0.2c0.1,0.1,0.3,0.1,0.4,0.1c0.2,0,0.4-0.3,0.5-0.9c0.1-0.4,0.2-0.9,0.4-1.4
				c0.2-0.5,0.4-1,0.6-1.5c0.1-0.1,0.1-0.3,0.2-0.5c0-0.1,0.1-0.2,0.1-0.2c0-0.1,0.1-0.2,0.1-0.3c0.1-0.1,0.1-0.3,0.2-0.4
				c0.1-0.2,0.1-0.4,0.1-0.5c0-0.1,0-0.2-0.1-0.2h-0.1c-0.2,0-0.4,0.2-0.6,0.5c-0.4,0.6-0.7,1.3-1,1.8c0.6-2.5,1.1-4.7,1.7-6.6
				c0.3-1.1,0.6-1.9,0.8-2.6s0.5-1.4,0.8-2.2c0.5-1.3,1-2.4,1.4-3.1C50.7,61.6,50.9,61.1,51.3,60.8z"/>
			
				<radialGradient id="SVGID_13_" cx="53.5746" cy="32.1525" r="5.5244" gradientTransform="matrix(1 0 0 -1 0 105.89)" gradientUnits="userSpaceOnUse">
				<stop  offset="0" style="stop-color:#FFFFFF;stop-opacity:0.25"/>
				<stop  offset="1" style="stop-color:#FFFFFF;stop-opacity:0.25"/>
			</radialGradient>
			<path fill="url(#SVGID_13_)" d="M57.5,75c-0.1,0-0.3,0.1-0.4,0.2c-0.8,0.8-1.4,1.4-2,1.9c-0.6,0.5-1.1,0.9-1.6,1.2
				c-0.5,0.3-0.9,0.5-1.4,0.7l0,0C51.9,79,51.7,79,51.6,79c-0.3,0-0.5-0.3-0.5-0.8c0-0.6,0.1-1.3,0.2-2c0.1-0.7,0.3-1.3,0.4-1.9
				c0.2-0.5,0.3-0.8,0.4-1c0.2,0.1,0.4,0.1,0.6,0.1c0.2,0,0.4,0.1,0.8,0.1l0,0c0.3,0,0.5,0.1,0.7,0.1c0.8,0,1.5-0.2,2.2-0.7
				c0.1-0.1,0.2-0.2,0.3-0.2c0.3-0.2,0.5-0.5,0.6-0.8c0.1-0.4,0.2-0.9,0.2-1.6c0-0.4,0-0.7,0-1.1c0-0.3,0-0.5,0-0.8
				c0-0.2,0-0.4,0-0.5V68c0,0,0-0.1,0-0.3s0-0.3,0-0.3c0-0.2-0.2-0.2-0.7-0.2c-0.4,0-0.7,0-0.8,0c-0.1,0-0.2,0.1-0.2,0.2
				c0,0.1,0,0.2,0,0.3c-0.7-0.3-1.2-0.4-1.3-0.4c-0.4,0-0.8,0.3-1.3,0.8c-0.7,0.9-1.5,2.3-2.4,4.3c-0.2-0.1-0.4-0.1-0.5-0.1
				c-0.2,0-0.4,0.1-0.4,0.2c0,0.2,0.2,0.4,0.6,0.6c-0.6,1.7-0.9,3.3-1.1,4.6V78c0,0.2,0,0.4,0.1,0.6c0.1,0.2,0.2,0.3,0.3,0.4
				c0.1,0.1,0.2,0.2,0.4,0.2c0.1,0.1,0.2,0.1,0.3,0.2c0,0,0,0,0.1,0c0.4,0.4,0.7,0.6,1,0.8c0.2,0.1,0.5,0.1,0.7,0.1
				c0.5,0,1-0.3,1.6-0.7c0.1-0.1,0.3-0.2,0.4-0.3c0.8-0.7,1.9-2,3.2-3.7c0.1-0.1,0.2-0.3,0.2-0.4S57.7,75.2,57.5,75
				C57.6,75.1,57.6,75,57.5,75z M55.9,70.3c0,1-0.2,1.7-0.5,2c-0.4,0.4-0.9,0.6-1.4,0.6c-0.1,0-0.1,0-0.1,0c-0.1,0-0.3,0-0.3,0
				c-0.2,0-0.4,0-0.5,0c-0.1,0-0.1,0-0.2,0c-0.1,0-0.1,0-0.2,0c-0.1,0-0.1,0-0.2,0c0.8-2,1.6-3.5,2.7-4.2c0.2-0.2,0.4-0.2,0.5-0.2
				c0.2,0,0.3,0.2,0.3,0.6c0,0.1,0,0.2,0,0.3c0,0.1,0,0.2,0,0.3v0.2L55.9,70.3L55.9,70.3z"/>
			
				<radialGradient id="SVGID_14_" cx="63.5462" cy="32.115" r="5.7236" gradientTransform="matrix(1 0 0 -1 0 105.89)" gradientUnits="userSpaceOnUse">
				<stop  offset="0" style="stop-color:#FFFFFF;stop-opacity:0.25"/>
				<stop  offset="1" style="stop-color:#FFFFFF;stop-opacity:0.25"/>
			</radialGradient>
			<path fill="url(#SVGID_14_)" d="M68.3,68.6c0-0.4-0.1-0.6-0.2-0.7c-0.2-0.1-0.4-0.2-0.8-0.2c-0.3-0.3-0.6-0.4-0.8-0.4
				s-0.5,0.2-0.8,0.7c-0.4,0.5-0.7,1-1.1,1.6c-0.5,0.8-1,1.5-1.5,2.3c-0.8,1.3-1.5,2.8-2.2,4.2c0.3-1.1,0.7-2.5,1.3-4.1
				c0.6-1.8,1-2.8,1.2-3.1l0,0c0.1-0.1,0.2-0.2,0.2-0.3c0-0.1-0.1-0.2-0.3-0.3c-0.6-0.3-1-0.4-1.1-0.4c-0.2,0-0.3,0.1-0.4,0.2
				c-0.1,0.1-0.3,0.3-0.4,0.5c-0.1,0.3-0.3,0.6-0.5,0.9c-0.2,0.2-0.3,0.5-0.5,0.7l-0.9,1.2c-0.1,0.1-0.1,0.2-0.1,0.3
				c0,0.2,0.1,0.2,0.3,0.2c0.1,0,0.2-0.1,0.3-0.2c0.2-0.4,0.7-0.9,1.4-1.6c-0.2,0.6-0.5,1.3-0.7,2c-0.1,0.2-0.2,0.5-0.2,0.8
				c-0.1,0.4-0.2,0.7-0.4,1.1c-0.4,1.4-0.8,3.1-1.3,5c-0.1,0.2-0.1,0.4-0.1,0.4c0,0.2,0.1,0.4,0.4,0.6c0.2,0.1,0.4,0.2,0.6,0.3
				c0.3,0.2,0.6,0.2,0.6,0.2c0.1,0,0.3-0.1,0.4-0.3c0.1-0.2,0.3-0.7,0.5-1.3c0.3-1.1,0.8-2.2,1.3-3.3c0.3-0.6,0.5-1.2,0.9-1.7
				c0.9-1.7,1.8-3.1,2.7-4.2c0.3-0.4,0.5-0.5,0.6-0.5s0.1,0.1,0.1,0.1s0,0.1,0,0.2c0,0.6-0.1,1.3-0.4,2.2l0,0
				c-0.3,0-0.3,0.2-0.3,0.3s0.1,0.3,0.3,0.4c0.1,0.1,0.2,0.1,0.2,0.2c0.1,0.1,0.1,0.1,0.1,0.1c0.1,0.1,0.2,0.2,0.3,0.2l0,0
				c0.1,0,0.2,0.1,0.2,0.1c0.2,0,0.4-0.2,0.5-0.6c0.2-0.7,0.3-1.3,0.4-2C68.3,69.7,68.3,69.1,68.3,68.6L68.3,68.6z"/>
			
				<radialGradient id="SVGID_15_" cx="72.438" cy="32.1525" r="5.5245" gradientTransform="matrix(1 0 0 -1 0 105.89)" gradientUnits="userSpaceOnUse">
				<stop  offset="0" style="stop-color:#FFFFFF;stop-opacity:0.25"/>
				<stop  offset="1" style="stop-color:#FFFFFF;stop-opacity:0.25"/>
			</radialGradient>
			<path fill="url(#SVGID_15_)" d="M76.3,75c-0.1,0-0.3,0.1-0.4,0.2c-0.8,0.8-1.4,1.4-2,1.9c-0.6,0.5-1.1,0.9-1.6,1.2
				c-0.5,0.3-0.9,0.5-1.4,0.7l0,0C70.8,79,70.6,79,70.5,79c-0.3,0-0.5-0.3-0.5-0.8c0-0.6,0.1-1.3,0.2-2c0.1-0.7,0.3-1.3,0.4-1.9
				c0.2-0.5,0.3-0.8,0.4-1c0.2,0.1,0.4,0.1,0.6,0.1c0.2,0,0.4,0.1,0.8,0.1l0,0c0.3,0,0.5,0.1,0.7,0.1c0.8,0,1.5-0.2,2.2-0.7
				c0.1-0.1,0.2-0.2,0.3-0.2c0.3-0.2,0.5-0.5,0.6-0.8c0.1-0.4,0.2-0.9,0.2-1.6c0-0.4,0-0.7,0-1.1c0-0.3,0-0.5,0-0.8
				c0-0.2,0-0.4,0-0.5V68c0,0,0-0.1,0-0.3s0-0.3,0-0.3c0-0.2-0.2-0.2-0.7-0.2c-0.4,0-0.7,0-0.8,0s-0.2,0.1-0.2,0.2
				c0,0.1,0,0.2,0,0.3c-0.7-0.3-1.2-0.4-1.3-0.4c-0.4,0-0.8,0.3-1.3,0.8c-0.7,0.9-1.5,2.3-2.4,4.3c-0.2-0.1-0.4-0.1-0.5-0.1
				c-0.1,0-0.1,0-0.1,0c-0.1,0-0.2,0.1-0.2,0.2c0,0.1,0,0.2,0.1,0.2c0.1,0.1,0.2,0.2,0.5,0.3c-0.6,1.7-0.9,3.3-1.1,4.6v0.3
				c0,0.2,0,0.4,0.1,0.6c0.1,0.2,0.2,0.3,0.3,0.4c0.1,0.1,0.2,0.2,0.4,0.2c0.1,0.1,0.2,0.1,0.3,0.2c0,0,0,0,0.1,0
				c0.4,0.4,0.7,0.6,1,0.8s0.5,0.2,0.8,0.2c0.5,0,1-0.3,1.6-0.7c0.1-0.1,0.3-0.2,0.4-0.3c0.8-0.7,1.9-2,3.2-3.7
				c0.1-0.1,0.2-0.3,0.2-0.4s0-0.1-0.1-0.2C76.4,75.1,76.4,75,76.3,75z M74.7,70.3c0,1-0.2,1.7-0.5,2c-0.4,0.4-0.9,0.6-1.4,0.6
				c-0.1,0-0.1,0-0.1,0c-0.1,0-0.3,0-0.3,0c-0.2,0-0.4,0-0.5,0s-0.1,0-0.2,0c-0.1,0-0.1,0-0.2,0c-0.1,0-0.1,0-0.2,0
				c0.8-2,1.6-3.5,2.7-4.2c0.2-0.2,0.4-0.2,0.5-0.2c0.2,0,0.3,0.2,0.3,0.6c0,0.1,0,0.2,0,0.3c0,0.1,0,0.2,0,0.3v0.2L74.7,70.3
				L74.7,70.3z"/>
			<path opacity="0.24" enable-background="new    " d="M48.7,28.3c-0.2,0.4-0.5,0.8-0.7,1.2c-1.1,1.6-2.3,3.2-3.6,4.5
				c-0.1,0.2-0.2,0.3-0.4,0.4c-0.5,0.6-0.9,1.1-1.4,1.5c-0.6,0.6-1.1,0.9-1.5,0.9c-0.3,0-0.7-0.2-1.1-0.7c-0.5-0.3-0.9-0.5-1.2-0.7
				c0.1,0.1,0.1,0.2,0.2,0.3c0.2,0.2,0.4,0.5,0.8,0.7c0.3,0.2,0.7,0.5,1.2,0.8c0.5,0.5,0.8,0.7,1.1,0.7c0.4,0,0.9-0.3,1.5-0.9
				c0.5-0.5,0.9-1,1.4-1.5c0.5-0.6,1.1-1.3,1.8-2.3c0.2-0.3,0.4-0.6,0.6-0.8c0.2-0.5,0.4-1.1,0.5-1.5C48.2,30.1,48.4,29.2,48.7,28.3
				z"/>
			<path opacity="0.24" enable-background="new    " d="M51.7,24c-0.2,0.4-0.5,1.4-1,3c-0.9,2.7-1.4,4.4-1.6,5.1
				c-0.3,0.9-0.6,1.8-0.9,2.9c-0.3,1.1-0.6,1.8-0.7,2.1c-0.4,1.3-0.9,2.5-1.3,3.5c-0.5,1.1-0.8,1.9-1.2,2.3
				c-0.3,0.4-0.7,0.7-1.2,0.7c-0.4,0-0.9-0.2-1.5-0.5c-0.5-0.2-1.1-0.6-1.8-1.1l0,0c0,0.2,0.1,0.3,0.4,0.5c1,0.8,1.9,1.3,2.4,1.6
				c0.6,0.3,1.1,0.5,1.5,0.5c0.5,0,0.9-0.2,1.2-0.7c0.3-0.4,0.7-1.2,1.2-2.3c0.4-1,0.9-2.2,1.3-3.5c0.1-0.4,0.4-1.1,0.7-2.1
				c0.3-1.1,0.6-2,0.9-2.9c0.2-0.7,0.8-2.4,1.6-5.1c0.5-1.5,0.8-2.5,1-3c1.2-1.8,1.9-2.9,1.9-3.4c0-0.2-0.1-0.3-0.2-0.5
				c-0.3-0.4-0.6-0.6-0.8-0.7c0,0.1,0,0.1,0,0.2C53.6,21.2,52.9,22.3,51.7,24z"/>
			<path opacity="0.24" enable-background="new    " d="M37.8,23c-1.1,0.5-1.9,1-2.5,1.4c-0.5,0.4-0.8,0.8-0.8,1.2
				c0,0.1,0,0.3,0.1,0.4c0.1,0.2,0.1,0.4,0.2,0.6c0.1,0.2,0.2,0.4,0.2,0.7v0.2c0,0.2-0.1,0.3-0.3,0.3c0,0,0,0-0.1,0
				c0.1,0.2,0.2,0.3,0.3,0.5c0.2,0.3,0.5,0.5,0.8,0.5c0.2,0,0.3-0.1,0.3-0.3v-0.2c-0.1-0.2-0.1-0.5-0.2-0.7
				c-0.1-0.2-0.1-0.4-0.2-0.6c-0.1-0.1-0.1-0.3-0.1-0.4c0-0.4,0.3-0.8,0.8-1.2c0.6-0.5,1.4-0.9,2.5-1.4c0.5-0.2,0.9-0.4,1.3-0.6
				c0.2-0.5,0.4-1.1,0.7-1.7C39.8,22,38.9,22.4,37.8,23z"/>
			<path opacity="0.24" enable-background="new    " d="M43.7,20.7c-0.9,1.2-1.6,2.6-2.2,4.1c-0.6,1.6-1.1,3.2-1.5,4.6
				c-0.3,1.5-0.5,2.7-0.5,3.6c0,1.4,0.4,2.2,1.1,2.2c-0.1-0.3-0.1-0.7-0.1-1.2c0-0.9,0.2-2.1,0.5-3.6c0.3-1.5,0.8-3.1,1.5-4.6
				c0.6-1.6,1.4-3,2.2-4.1c0.9-0.2,1.4-0.5,1.4-0.7c0-0.1-0.1-0.2-0.2-0.3c-0.3-0.3-0.6-0.5-0.8-0.6C45,20.3,44.6,20.5,43.7,20.7z"
				/>
			<path opacity="0.24" enable-background="new    " d="M56.7,29.1c-0.2,0.1-0.3,0.1-0.3,0.1c-0.1,0-0.1,0-0.1,0
				c-0.3,0.1-0.4,0.2-0.5,0.2c-0.1,0-0.2-0.1-0.2-0.3c-0.3,0.3-0.5,0.8-0.8,1.3c-0.3,0.6-0.6,1.2-0.8,1.8c-0.3,0.7-0.4,1.3-0.6,1.7
				c-0.2,0.6-0.3,1-0.3,1.2c-0.1,0.7-0.2,1.2-0.2,1.6c0,0.7,0.1,1.3,0.4,1.7c0.2,0.3,0.5,0.5,0.8,0.6c-0.1-0.4-0.2-0.7-0.2-1.2
				c0-0.4,0.1-0.9,0.2-1.6c0-0.2,0.1-0.6,0.3-1.2c0.1-0.4,0.3-1,0.6-1.7c0.2-0.6,0.5-1.2,0.8-1.8c0.3-0.6,0.6-1,0.8-1.3
				c0.1,0.2,0.2,0.3,0.2,0.3s0.2-0.1,0.5-0.2h0.1c0.1,0,0.2-0.1,0.3-0.1c0.2-0.1,0.3-0.1,0.5-0.2c0.4-0.2,0.8-0.3,1.2-0.5
				c0-0.2,0-0.4,0-0.5c0-0.3-0.1-0.4-0.2-0.5c-0.2,0.1-0.3,0.1-0.4,0.2c-0.2,0.1-0.4,0.2-0.7,0.3c-0.1-0.1-0.2-0.2-0.3-0.2
				c-0.2,0.1-0.5,0.2-0.7,0.3C57,28.9,56.9,29,56.7,29.1z"/>
			<path opacity="0.24" enable-background="new    " d="M61.1,29.7c0,0.3-0.1,0.8-0.2,1.5c-0.1,0.7-0.3,1.5-0.6,2.4
				c-0.2,0.8-0.6,1.8-1,2.7c-0.5,1-1,1.8-1.7,2.5c-0.3,0.3-0.5,0.5-0.7,0.7c-0.2,0.1-0.4,0.2-0.6,0.3c-0.1,0-0.2,0-0.3,0.1
				c-0.2,0.1-0.4,0.1-0.6,0.1c-0.3,0-0.5-0.1-0.7-0.2c-0.2,0-0.3-0.1-0.4-0.1c-0.7,0-1.3-0.2-1.8-0.5c0.1,0.2,0.3,0.4,0.5,0.6
				c0.6,0.6,1.4,0.9,2.4,0.9c0,0,0.2,0,0.5,0.1c0.3,0.1,0.5,0.1,0.7,0.1c0.3,0,0.6,0,0.8-0.1c0.2-0.1,0.4-0.2,0.6-0.3
				c0.2-0.2,0.4-0.4,0.7-0.7c0.7-0.7,1.3-1.6,1.7-2.5c0.5-1,0.8-1.9,1-2.7c0.2-0.9,0.4-1.6,0.6-2.4c0.1-0.7,0.2-1.2,0.2-1.5
				c0-0.6-0.2-1.1-0.5-1.5c-0.4-0.6-0.7-0.9-1-1.1c0,0,0,0,0,0.1C61,28.6,61.1,29.1,61.1,29.7z"/>
			<path opacity="0.24" enable-background="new    " d="M68.3,36.2c-0.8,1.2-1.5,2.2-2.1,2.8c-0.3,0.4-0.6,0.6-0.8,0.6
				c-0.1,0-0.1,0-0.2-0.1c-0.2,0.2-0.5,0.3-0.7,0.3c-0.3,0-0.6-0.1-1-0.3c0,0,0,0-0.1,0c0,0.3,0.1,0.5,0.2,0.7
				c0.2,0.2,0.5,0.3,0.8,0.4c0.4,0.2,0.7,0.3,1,0.3c0.4,0,0.7-0.2,1-0.5c0.8-0.9,1.7-2,2.5-3.2c0.1-0.1,0.2-0.3,0.2-0.4
				c0.2-1.1,0.5-2.1,0.8-3C69.5,34.4,69,35.2,68.3,36.2z"/>
			<path opacity="0.24" enable-background="new    " d="M66.7,28.6c-0.2,0.3-0.5,0.9-0.8,1.7c-0.3,0.8-0.6,1.7-0.9,2.6
				c-0.3,0.9-0.5,1.8-0.7,2.7c-0.2,0.8-0.2,1.6-0.3,2.4c0,0.5,0.1,0.7,0.3,0.7c0.2,0,0.4-0.2,0.8-0.6c0-0.5,0.1-1,0.2-1.5
				c0.2-0.9,0.4-1.8,0.7-2.7c0.3-0.9,0.6-1.7,0.9-2.6c0.3-0.8,0.6-1.3,0.8-1.7l0.1-0.1c0.1-0.1,0.1-0.1,0.2-0.2
				c0.1-0.1,0.1-0.1,0.1-0.2c0-0.1-0.1-0.2-0.2-0.3c-0.4-0.2-0.7-0.4-0.9-0.4c0,0,0,0.1-0.1,0.1S66.7,28.6,66.7,28.6z"/>
			<path opacity="0.24" enable-background="new    " d="M72.5,31c-0.4,1.1-0.7,2.1-1,3c-0.3,1.1-0.6,2.1-0.8,3.1
				c0.1-0.1,0.1-0.2,0.1-0.3s0.2-0.3,0.3-0.6c0.2-0.4,0.4-0.7,0.5-1c0.1-0.1,0.1-0.2,0.3-0.2c0.2,0,0.2,0.1,0.2,0.3c0,0,0,0.1,0,0.2
				c-0.7,1.5-1.1,2.7-1.3,3.5c-0.1,0.3-0.1,0.5-0.2,0.6c-0.1,0.1-0.2,0.2-0.3,0.2c-0.1,0-0.3-0.1-0.6-0.2l0,0c0,0.2,0.1,0.4,0.4,0.6
				c0.6,0.4,1,0.6,1.2,0.6c0.1,0,0.2-0.1,0.3-0.2c0.1-0.1,0.1-0.3,0.2-0.6c0.2-0.8,0.6-1.9,1.3-3.5c0-0.1,0-0.1,0-0.2
				c0-0.2-0.1-0.3-0.2-0.3c-0.1,0-0.2,0.1-0.3,0.2c-0.1,0.3-0.3,0.6-0.5,1c-0.2,0.3-0.3,0.5-0.3,0.6s-0.1,0.2-0.1,0.3
				c0.2-1,0.5-2,0.8-3.1c0.3-0.9,0.6-1.9,1-3c0.4-0.9,0.8-1.9,1.3-2.8c0-0.1,0.1-0.1,0.2-0.2c0.1-0.1,0.1-0.1,0.1-0.1
				c0-0.1-0.2-0.2-0.5-0.4c-0.3-0.2-0.6-0.3-0.8-0.4c0,0,0,0,0,0.1C73.3,29.2,72.8,30.2,72.5,31z"/>
			<path opacity="0.24" enable-background="new    " d="M78.1,31.2c-0.6,1.7-1,3.1-1.3,4.1c0.7-1.5,1.4-3,2.2-4.2
				c0.5-0.8,1-1.6,1.5-2.3c0-0.1-0.1-0.2-0.3-0.3c-0.4-0.2-0.6-0.3-0.8-0.4l0,0C79.1,28.5,78.6,29.5,78.1,31.2z"/>
			<path opacity="0.24" enable-background="new    " d="M76.3,31.4c-0.1,0.1-0.1,0.2-0.1,0.3c0,0.1,0,0.1,0.1,0.2
				c0.1-0.2,0.2-0.5,0.2-0.8L76.3,31.4z"/>
			<path opacity="0.24" enable-background="new    " d="M82.4,28.4c-0.9,1.2-1.7,2.5-2.5,3.8c-0.8,1.3-1.5,2.8-2.2,4.2
				c0.1-0.5,0.3-1.1,0.5-1.7c-0.5,1.1-0.9,2.2-1.3,3.3c-0.2,0.7-0.4,1.1-0.5,1.3s-0.2,0.3-0.4,0.3c-0.1,0-0.3-0.1-0.6-0.2
				c0,0.1,0,0.1,0,0.2c0,0.2,0.1,0.4,0.4,0.6c0.7,0.4,1.1,0.5,1.2,0.5s0.3-0.1,0.4-0.3c0.1-0.2,0.3-0.7,0.5-1.3
				c0.5-1.7,1.2-3.4,2.1-5c0.7-1.2,1.3-2.3,2-3.3c0.3-0.9,0.4-1.7,0.4-2.2C82.4,28.5,82.4,28.4,82.4,28.4z"/>
			<path opacity="0.24" enable-background="new    " d="M83.6,31.6c-0.1,0.4-0.3,0.6-0.5,0.6c-0.1,0-0.1,0-0.2-0.1l0,0
				c0,0.1,0.1,0.3,0.3,0.4c0.1,0.1,0.2,0.1,0.2,0.2c0,0.1,0.1,0.1,0.1,0.1c0.1,0.1,0.2,0.2,0.3,0.2c0.1,0.1,0.2,0.1,0.3,0.1
				c0.2,0,0.4-0.2,0.5-0.6c0.2-0.7,0.3-1.3,0.4-2c0.1-0.7,0.1-1.4,0.1-1.8c0-0.4-0.1-0.6-0.2-0.7c-0.2-0.1-0.4-0.2-0.8-0.2
				c0,0.5,0,1.1-0.1,1.8C84,30.4,83.8,31,83.6,31.6z"/>
			<path opacity="0.24" enable-background="new    " d="M67,44.4c-0.1,0.3-0.2,0.5-0.2,0.8c-0.1,0.4-0.2,0.5-0.2,0.5
				c1,1.4,1.9,2.9,2.9,4.4c0.9,1.6,1.8,3.1,2.6,4.7c0.7,1.5,1.3,2.6,1.6,3.5c0-0.3,0.1-0.6,0.2-1c-0.2-0.5-0.5-1-0.7-1.5
				c-0.8-1.6-1.7-3.2-2.6-4.7c-1-1.7-1.9-3.2-2.9-4.4c0,0,0.1-0.2,0.2-0.5c0.1-0.2,0.2-0.5,0.2-0.8c0.1-0.2,0.1-0.4,0.1-0.6
				c0-0.3-0.1-0.5-0.3-0.7c-0.3-0.2-0.5-0.4-0.7-0.5c0,0.1,0,0.1,0,0.2C67.1,43.9,67.1,44.1,67,44.4z"/>
			<path opacity="0.24" enable-background="new    " d="M75.9,46.7c0,0.1,0.1,0.2,0.2,0.3c0-0.1,0-0.1,0-0.2
				C76,46.9,75.9,46.8,75.9,46.7z"/>
			<path opacity="0.24" enable-background="new    " d="M62.8,59.9c0,0,0.2-0.5,0.5-1.3c0.1-0.2,0.2-0.6,0.5-1.2
				c0.2-0.5,0.5-1.2,0.7-1.9c0.5-1.2,0.9-2.4,1.4-3.7c0.4-1,0.6-1.8,0.8-2.4c-0.4-0.6-0.7-1.1-0.9-1.3c-0.2,0.6-0.5,1.5-1,2.7
				c-0.5,1.3-0.9,2.5-1.4,3.7c-0.3,0.7-0.5,1.3-0.7,1.9c-0.2,0.6-0.4,0.9-0.5,1.2C62,58.5,61.8,59,61.8,59c0.3,0,0.8,0.5,1.3,1.6
				c0.1,0.1,0.1,0.2,0.1,0.2c0,0.2-0.2,0.3-0.6,0.3c-0.1,0-0.2,0-0.3,0H62c-0.3,0-0.6,0.1-0.9,0.2c-0.3,0.1-0.6,0.3-0.7,0.5
				c0,0-0.1,0.2-0.2,0.5c-0.1,0.3-0.3,0.6-0.4,0.7c-0.1,0.2-0.3,0.2-0.5,0.2s-0.3,0-0.5-0.1c-0.2-0.1-0.4-0.2-0.5-0.3l0,0
				c0,0.2,0.1,0.4,0.4,0.6c0.2,0.2,0.6,0.4,1.2,0.6c0.2,0.1,0.3,0.1,0.5,0.1s0.4-0.1,0.5-0.2c0.1-0.2,0.2-0.4,0.4-0.7
				c0.1-0.3,0.2-0.5,0.2-0.5c0.2-0.2,0.4-0.3,0.7-0.5c0.3-0.1,0.6-0.2,0.9-0.2h0.3c0.1,0,0.2,0,0.3,0c0.4,0,0.6-0.1,0.6-0.3
				c0,0,0-0.1-0.1-0.2C63.6,60.4,63.1,59.9,62.8,59.9z"/>
			<path opacity="0.24" enable-background="new    " d="M63.3,45.1c-0.2-0.2-0.5-0.4-0.7-0.5c-0.3-0.2-0.5-0.2-0.8-0.2
				c-0.1,0-0.1,0-0.2,0c-0.3,0.3-0.7,0.7-1.2,1.1c-0.2,0.2-0.3,0.4-0.3,0.6c0,0.2,0.1,0.3,0.4,0.3c0.2,0,0.4-0.1,0.6-0.2
				c0.7-0.5,1.3-0.8,1.8-0.8c0.2,0,0.5,0.1,0.8,0.2c0.2,0.1,0.3,0.2,0.5,0.4c0,0,0,0-0.1-0.1C63.9,45.6,63.6,45.3,63.3,45.1z"/>
			<path opacity="0.24" enable-background="new    " d="M79.8,44.5c-0.1,0.2-0.4,0.5-0.9,1c-0.4,0.4-0.7,0.7-0.8,0.9
				c-0.5,1.4-1,3-1.6,4.8c-0.6,2-1,3.8-1.4,5.4c-0.4,1.7-0.6,3.1-0.6,4.1c0.2,0.5,0.3,0.8,0.3,0.9c0,0.2-0.1,0.4-0.2,0.6
				c-0.2,0.2-0.5,0.5-0.9,0.8c-0.1,0.1-0.2,0.1-0.3,0.1l0,0c0,0.2,0,0.3,0.1,0.4s0.1,0.2,0.2,0.2c0.1,0.1,0.1,0.2,0.2,0.2
				c0.1,0.1,0.2,0.1,0.3,0.1c0.1,0,0.3,0,0.4-0.1c0.4-0.3,0.7-0.5,0.9-0.8c0.2-0.2,0.2-0.4,0.2-0.6c0-0.1-0.1-0.5-0.3-0.9
				c0-1.1,0.2-2.5,0.6-4.1c0.4-1.7,0.8-3.5,1.4-5.4c0.6-1.9,1.1-3.6,1.6-4.8c0.1-0.2,0.4-0.5,0.8-0.9c0.4-0.5,0.7-0.8,0.9-1
				c0.2-0.3,0.3-0.6,0.3-0.9c0-0.2-0.1-0.4-0.2-0.6c-0.3-0.4-0.6-0.6-0.8-0.7c0,0.1,0,0.2,0,0.3C80.2,43.9,80.1,44.2,79.8,44.5z"/>
			<path opacity="0.24" enable-background="new    " d="M85.8,56.7c-0.7,0.9-1.4,1.9-2.2,2.8c-0.9,1.1-1.7,2-2.4,2.6
				c-0.5,0.5-0.9,0.7-1.2,0.7c-0.1,0-0.1,0-0.1-0.1c0,0-0.1,0-0.1,0.1c-0.4,0.3-0.7,0.4-1,0.4c-0.1,0-0.3,0-0.4-0.1
				c-0.1,0-0.2-0.1-0.2-0.2c0,0.1,0.1,0.2,0.1,0.3c0.1,0.2,0.4,0.4,0.6,0.6c0.2,0.2,0.4,0.3,0.5,0.3c0.1,0.1,0.2,0.1,0.4,0.1
				c0.3,0,0.6-0.1,1-0.4c0.4-0.3,1-0.8,1.8-1.7c0.8-0.9,1.7-1.8,2.5-2.9c0-0.1,0.1-0.1,0.1-0.2c0.1-0.3,0.1-0.6,0.2-0.9
				C85.5,57.6,85.7,57.1,85.8,56.7z"/>
			<path opacity="0.24" enable-background="new    " d="M86.5,62.5c-0.1,0.4-0.2,0.6-0.4,0.6c-0.1,0-0.3-0.1-0.5-0.2l0,0
				c0,0.1,0,0.2,0.1,0.3c0,0,0.2,0.2,0.4,0.4c0.5,0.3,0.8,0.5,1,0.5s0.3-0.2,0.4-0.6c0.2-0.8,0.4-1.5,0.7-2.1
				c0.3-0.7,0.7-1.4,1.3-2.2c0.1-0.1,0.1-0.2,0.1-0.3c0-0.2-0.1-0.2-0.2-0.2c-0.2,0-0.3,0.1-0.5,0.3c-0.4,0.5-0.8,0.9-1.1,1.2
				c0.1-0.4,0.2-0.9,0.3-1.4c-0.4,0.6-0.7,1.1-0.9,1.6C86.9,61,86.7,61.7,86.5,62.5z"/>
			<path opacity="0.24" enable-background="new    " d="M89.8,53.7c0.1-0.2,0.1-0.4,0.1-0.6c0-0.2-0.1-0.4-0.4-0.6
				c-0.2-0.2-0.4-0.3-0.6-0.4c0,0.1,0,0.3-0.1,0.6c-0.4,1-0.7,2.1-1.1,3.3c-0.4,1.2-0.6,2.2-0.9,3.3c0.3-0.3,0.6-0.7,1.1-1.2
				c0.1-0.2,0.3-0.3,0.5-0.3c0,0,0,0,0.1,0c0.1-0.3,0.2-0.6,0.2-0.9C89,55.8,89.4,54.7,89.8,53.7z"/>
			<path opacity="0.24" enable-background="new    " d="M86.3,52c-0.1,0-0.1,0-0.2,0c-0.3-0.2-0.6-0.2-0.9-0.2
				c-0.3,0-0.6,0.1-0.8,0.3c-0.6,0.4-1.3,1.1-2.1,2.2c-0.4,0.5-0.8,1.1-1.2,1.7c-0.4,0.6-0.7,1.2-1.1,1.8c-0.7,1.3-1.1,2.5-1.3,3.6
				c0,0.4,0.1,0.6,0.3,0.6c0.3,0,0.6-0.1,0.9-0.4c0.2-0.9,0.6-1.8,1.1-2.8c0.3-0.6,0.7-1.2,1.1-1.8c0.4-0.6,0.8-1.1,1.2-1.7
				c0.8-1,1.5-1.8,2.1-2.2c0.3-0.2,0.5-0.3,0.8-0.3c0.1,0,0.3,0,0.4,0.1c0.2-0.4,0.3-0.7,0.4-0.9c-0.1-0.1-0.2-0.2-0.3-0.2v0.1
				C86.6,51.9,86.5,52,86.3,52z"/>
			<path opacity="0.24" enable-background="new    " d="M108.3,54c-0.1,0.7-0.3,1.6-0.5,2.6c-0.2,0.9-0.5,1.8-0.9,2.7
				c0.5-0.6,0.9-1.2,1.2-1.6c0.1-0.2,0.3-0.3,0.5-0.3c0.1,0,0.2,0.1,0.2,0.2c0.2-1,0.4-1.8,0.5-2.5c0.1-0.9,0.2-1.5,0.2-1.9
				c0-0.8-0.4-1.3-1.1-1.5c0,0.1,0.1,0.3,0.1,0.5C108.5,52.5,108.4,53.1,108.3,54z"/>
			<path opacity="0.24" enable-background="new    " d="M105.8,63.1c-0.1,0.1-0.1,0.3-0.2,0.4c0,0-0.1,0.1-0.2,0.1
				c-0.1,0-0.3,0-0.5-0.1c-0.1,0.1-0.1,0.3-0.1,0.4c0,0.1,0.1,0.2,0.2,0.3c0.2,0.1,0.4,0.2,0.8,0.3c0.2,0.1,0.4,0.1,0.5,0.1
				s0.2,0,0.2-0.1c0.1-0.1,0.1-0.2,0.2-0.4c0.4-0.7,0.9-1.7,1.7-3.1c0.6-1,1-1.8,1.3-2.2c0.1-0.1,0.1-0.3,0.1-0.4
				c0-0.2-0.1-0.3-0.3-0.3s-0.3,0.1-0.5,0.3c-0.3,0.4-0.7,1-1.2,1.6c0.3-0.7,0.5-1.5,0.7-2.2c-0.3,0.4-0.7,1.1-1.3,2.1
				C106.6,61.4,106.1,62.4,105.8,63.1z"/>
			<path opacity="0.24" enable-background="new    " d="M94,54.3c-0.2,1-0.5,2-0.8,3c0.6-1,1.2-2.1,2-3.2c0.1-0.6,0.2-1,0.2-1.3
				c0-0.4-0.1-0.6-0.2-0.7c-0.1,0-0.4-0.2-0.8-0.3c0,0,0,0,0,0.1C94.4,52.3,94.3,53.1,94,54.3z"/>
			<path opacity="0.24" enable-background="new    " d="M100.9,52.2c0,1.9-0.2,3.6-0.7,5.1c0.6-0.9,1.1-1.7,1.6-2.5
				c0-0.6,0.1-1.1,0.1-1.7v-0.4c0-0.4-0.1-0.7-0.2-0.8c-0.1-0.2-0.4-0.4-0.8-0.5c0,0.1,0,0.2,0,0.4V52.2z"/>
			<path opacity="0.24" enable-background="new    " d="M106.5,51.5c-0.9,0.9-1.8,1.8-2.5,2.9c-0.9,1.1-1.8,2.5-2.7,3.9
				c0.1-0.4,0.2-0.8,0.3-1.1c-0.4,0.6-0.8,1.3-1.2,2c-0.7,1.2-1.2,2.4-1.5,3.5c-0.1,0.3-0.2,0.4-0.3,0.4c0,0-0.2,0-0.3-0.1
				c-0.1,0-0.1-0.1-0.2-0.1c0,0.1-0.1,0.2-0.1,0.2c0,0.1,0.1,0.2,0.2,0.3c0.3,0.2,0.7,0.4,1,0.5c0.2,0.1,0.3,0.1,0.3,0.1
				c0.1,0,0.2-0.1,0.3-0.4c0.3-1.1,0.8-2.3,1.5-3.5c0.7-1.3,1.3-2.4,2-3.3c0.7-1,1.3-1.9,2-2.7c0.6-0.7,1.1-1.2,1.4-1.5
				c0-0.3,0-0.6,0-0.8C106.7,51.7,106.6,51.5,106.5,51.5z"/>
			<path opacity="0.24" enable-background="new    " d="M99.1,51.5c-0.8,0.8-1.7,1.7-2.5,2.9c-1,1.4-1.8,2.7-2.5,3.9
				c0.2-0.6,0.3-1.1,0.4-1.6c-0.3,0.6-0.7,1.2-1,1.9c-0.8,1.5-1.3,2.8-1.7,3.9c-0.1,0.3-0.2,0.5-0.3,0.6c-0.1,0.1-0.2,0.2-0.4,0.2
				c-0.1,0-0.2-0.1-0.3-0.1c0,0.1-0.1,0.1-0.1,0.2c0,0.1,0.1,0.2,0.2,0.3c0.6,0.4,0.9,0.6,1.1,0.7c0.2,0,0.3-0.1,0.4-0.2
				c0.1-0.1,0.2-0.3,0.3-0.6c0.4-1.1,0.9-2.4,1.7-3.9c0.4-0.8,0.8-1.5,1.2-2.2c0.4-0.6,0.8-1.3,1.3-2c0.8-1.1,1.5-2,2.1-2.6
				c0-0.3,0-0.7,0-1C99.2,51.7,99.2,51.6,99.1,51.5z"/>
			<path opacity="0.24" enable-background="new    " d="M92.3,52.7c-0.3,0.4-0.6,0.7-0.8,1c-0.1,0.1-0.2,0.2-0.2,0.4
				s0.1,0.3,0.2,0.3s0.2-0.1,0.3-0.2c0.1-0.1,0.3-0.3,0.4-0.4c0,0,0,0,0.1-0.1c0.1-0.4,0.1-0.9,0.1-1.2
				C92.4,52.6,92.4,52.7,92.3,52.7z"/>
			<path opacity="0.24" enable-background="new    " d="M117.9,52.2c0,0.3,0,0.7,0,1.1c0,0.7-0.1,1.3-0.2,1.6
				c-0.1,0.3-0.3,0.5-0.6,0.8c-0.1,0.2-0.2,0.3-0.3,0.5c-0.4,0.4-0.9,0.6-1.4,0.6c-0.2,0-0.4,0-0.5,0c-0.2,0-0.4,0-0.5,0
				c-0.1,0-0.1,0-0.2,0s-0.1,0-0.2,0c-0.1,0-0.1,0-0.2,0v-0.1c-0.3,0-0.6-0.1-0.8-0.1s-0.4-0.1-0.6-0.1c-0.1,0.2-0.2,0.5-0.4,1
				c-0.2,0.6-0.3,1.2-0.4,1.9c-0.1,0.7-0.2,1.4-0.2,2c0,0.5,0.2,0.8,0.5,0.8c0.1,0,0.3,0,0.5-0.1c0-0.5,0.1-1.1,0.2-1.7
				c0.1-0.7,0.3-1.3,0.4-1.9c0.2-0.5,0.3-0.8,0.4-1c0.2,0.1,0.4,0.1,0.6,0.1c0.2,0.1,0.5,0.1,0.8,0.2c0.3,0,0.5,0.1,0.7,0.1
				c0.8,0,1.5-0.2,2.2-0.7c0.4-0.3,0.7-0.7,0.8-1c0.1-0.4,0.2-0.9,0.2-1.6c0-0.4,0-0.7,0-1.1c0-0.3,0-0.5,0-0.8c0-0.3,0-0.5,0-0.6
				c0,0,0-0.1,0-0.3s0-0.3,0-0.3c0-0.2-0.2-0.2-0.7-0.2c-0.2,0-0.3,0-0.4,0c0,0.1,0,0.3,0,0.5C117.9,51.7,117.9,51.9,117.9,52.2z"/>
			<path opacity="0.24" enable-background="new    " d="M116.4,52.6v-0.2c0-0.1,0-0.2,0-0.3s0-0.2,0-0.3c0-0.4-0.1-0.6-0.3-0.6
				c-0.1,0-0.3,0.1-0.5,0.2c-1,0.8-1.9,2.2-2.7,4.2c0.1,0,0.1,0,0.2,0c0,0,0.1,0,0.2,0c0.1,0,0.1,0,0.2,0s0.3,0,0.5,0
				c0.1,0,0.2,0,0.3,0C115,54.3,115.6,53.3,116.4,52.6z"/>
			<path opacity="0.24" enable-background="new    " d="M119.2,59c-0.1-0.1-0.1-0.1-0.2-0.1c-0.1,0-0.3,0.1-0.4,0.2
				c-0.8,0.8-1.4,1.4-2,1.9s-1.1,0.9-1.6,1.2c-0.2,0.1-0.4,0.2-0.6,0.3c-0.6,0.5-1.1,0.7-1.6,0.7c-0.3,0-0.5-0.1-0.8-0.2
				c-0.3-0.2-0.6-0.4-1-0.8H111c0,0.1,0,0.1,0,0.2c0.1,0.2,0.2,0.3,0.3,0.4c0.1,0.1,0.2,0.2,0.4,0.2c0.1,0.1,0.2,0.1,0.4,0.2
				c0.4,0.4,0.7,0.6,1,0.8c0.3,0.2,0.5,0.2,0.8,0.2c0.6,0,1.2-0.4,2-1.1c0.8-0.7,1.9-2,3.2-3.7C119.1,59.2,119.2,59,119.2,59
				C119.3,59,119.3,59,119.2,59z"/>
			<path opacity="0.24" enable-background="new    " d="M40.9,72c-2.2,0-3.8,0.1-4.8,0.3C35.7,73,35.4,73.9,35,75
				c-0.7,1.5-1.2,2.6-1.5,3.2c-0.5,1-0.8,1.7-1.1,2.1c-0.2,0.4-0.5,0.6-1,0.6c-0.1,0-0.1,0-0.2,0c-0.2-0.1-0.3-0.1-0.5-0.2
				c0,0.1,0,0.1,0,0.2c0,0.2,0.1,0.4,0.3,0.5s0.6,0.3,1.2,0.5c0.1,0,0.2,0,0.2,0c0.4,0,0.7-0.2,1-0.6s0.6-1.1,1.1-2.1
				c0.3-0.6,0.8-1.6,1.5-3.2c0.5-1.1,0.9-2.1,1.1-2.7c1-0.2,2.7-0.3,4.8-0.3c0.9,0,1.8,0,2.6,0c0.1-0.3,0.1-0.6,0.2-0.9
				C43.5,72.1,42.3,72,40.9,72z"/>
			<path opacity="0.24" enable-background="new    " d="M46.6,76.6c-0.2,0.5-0.4,1-0.6,1.5c-0.2,0.5-0.3,1-0.4,1.4
				c-0.1,0.6-0.3,0.9-0.5,0.9c-0.1,0-0.2,0-0.4-0.1c-0.1,0-0.2-0.1-0.3-0.2c0,0.3,0.1,0.5,0.3,0.6c0.4,0.2,0.7,0.4,1,0.5
				c0.1,0.1,0.3,0.1,0.4,0.1c0.2,0,0.4-0.3,0.5-0.9c0.1-0.4,0.2-0.9,0.4-1.4c0.2-0.5,0.4-1,0.6-1.5c0.1-0.1,0.1-0.3,0.2-0.5
				c0.1-0.2,0.2-0.4,0.2-0.5c0.1-0.1,0.1-0.3,0.2-0.4c0.1-0.2,0.1-0.4,0.1-0.5c0-0.2-0.1-0.2-0.2-0.2c-0.2,0-0.4,0.2-0.6,0.5
				c-0.4,0.6-0.7,1.3-1,1.8c0.1-0.7,0.3-1.3,0.4-1.9c0,0.1-0.1,0.1-0.1,0.2C46.7,76.3,46.7,76.5,46.6,76.6z"/>
			<path opacity="0.24" enable-background="new    " d="M49,68.6c0.2-0.7,0.5-1.4,0.8-2.2c0.5-1.3,1-2.4,1.4-3.1
				c0.4-0.7,0.8-1.2,1.1-1.5c0.4-0.3,0.7-0.5,1.1-0.5h0.3h0.1h0.1c0.4,0,0.6-0.1,0.6-0.3c0-0.1-0.1-0.3-0.4-0.4
				c-0.2-0.2-0.5-0.3-0.7-0.4c-0.1,0.1-0.3,0.1-0.5,0.1h-0.1h-0.1h-0.3c-0.4,0-0.8,0.2-1.1,0.5c-0.3,0.3-0.7,0.8-1.1,1.5
				c-0.4,0.7-0.9,1.8-1.4,3.1c-0.3,0.8-0.6,1.5-0.8,2.2s-0.5,1.5-0.8,2.6c-0.6,2-1.2,4.1-1.7,6.6c0.3-0.6,0.7-1.2,1-1.8
				c0.2-0.4,0.4-0.5,0.6-0.5h0.1c0.3-1.2,0.6-2.4,0.9-3.4C48.5,70,48.8,69.2,49,68.6z"/>
			<path opacity="0.24" enable-background="new    " d="M38,61.8L38,61.8L38,61.8c-0.3,0.1-0.9,0.3-1.7,0.6
				c-0.4,0.1-0.8,0.3-1.2,0.4c-0.4,0.1-0.7,0.3-1,0.3c-0.7,0.2-1.3,0.5-1.7,0.7c-0.6,0.3-1,0.6-1.3,0.8c-0.2,0.3-0.4,0.6-0.4,1
				c0,0.3,0.1,0.7,0.2,1.2c0,0.1,0,0.2,0,0.2c0,0.1-0.1,0.2-0.1,0.2c0.1,0.3,0.3,0.6,0.4,0.8c0.1,0.2,0.2,0.3,0.4,0.3
				c0.2,0,0.3-0.1,0.3-0.3c0,0,0-0.1,0-0.2c-0.2-0.5-0.2-0.9-0.2-1.2c0-0.4,0.1-0.7,0.4-1c0.2-0.3,0.7-0.6,1.3-0.8
				c0.5-0.2,1-0.5,1.7-0.7c0.3-0.1,0.6-0.2,1-0.3c0.4-0.1,0.8-0.3,1.2-0.4c0.3-0.1,0.6-0.2,0.8-0.3c0.2-0.6,0.3-1.1,0.4-1.5
				C38.3,61.7,38.2,61.7,38,61.8z"/>
			<path opacity="0.24" enable-background="new    " d="M32.4,76.8c-0.1-0.1-0.2-0.1-0.2-0.1l0,0c0.1,0.1,0.1,0.3,0.1,0.4
				C32.3,77,32.3,76.9,32.4,76.8z"/>
			<path opacity="0.24" enable-background="new    " d="M40.2,61.8c-0.3,0.8-0.6,1.8-1.1,3.1c-0.2,0.4-0.3,0.7-0.4,0.9
				c-0.1,0.2-0.2,0.4-0.3,0.8c-0.1,0.1-0.3,0.7-0.7,1.7c-0.3,0.8-0.7,1.7-1,2.6c0.4,0,0.9,0.1,1.4,0.1c0.2-0.6,0.5-1.1,0.7-1.7
				c0.4-1,0.6-1.6,0.7-1.7c0.1-0.3,0.2-0.6,0.3-0.8c0.1-0.2,0.2-0.5,0.4-0.9c0.5-1.3,0.9-2.3,1.1-3.1c0.3-0.8,0.4-1.3,0.4-1.6
				c0-0.3-0.1-0.5-0.2-0.6c-0.3-0.2-0.6-0.4-0.8-0.5c0,0,0,0,0,0.1C40.6,60.4,40.5,61,40.2,61.8z"/>
			<path opacity="0.24" enable-background="new    " d="M57.4,69.5c0,0.3,0,0.7,0,1.1c0,0.7-0.1,1.3-0.2,1.6
				c-0.1,0.3-0.3,0.5-0.6,0.8c-0.1,0.2-0.2,0.3-0.3,0.5c-0.4,0.4-0.9,0.6-1.4,0.6c-0.2,0-0.4,0-0.5,0c-0.2,0-0.4,0-0.5,0
				c-0.1,0-0.1,0-0.2,0c-0.1,0-0.1,0-0.2,0s-0.1,0-0.2,0v-0.1c-0.3,0-0.6-0.1-0.8-0.1c-0.2,0-0.4-0.1-0.6-0.1
				c-0.1,0.2-0.2,0.5-0.4,1c-0.2,0.6-0.3,1.2-0.4,1.9c-0.1,0.7-0.2,1.4-0.2,2c0,0.5,0.2,0.8,0.5,0.8c0.1,0,0.3,0,0.5-0.1
				c0-0.5,0.1-1.1,0.2-1.7c0.1-0.7,0.3-1.3,0.4-1.9c0.2-0.5,0.3-0.8,0.4-1c0.2,0.1,0.4,0.1,0.6,0.1c0.2,0.1,0.5,0.1,0.8,0.2
				c0.3,0,0.5,0.1,0.7,0.1c0.8,0,1.5-0.2,2.2-0.7c0.4-0.3,0.7-0.7,0.8-1c0.1-0.4,0.2-0.9,0.2-1.6c0-0.4,0-0.7,0-1.1
				c0-0.3,0-0.5,0-0.8s0-0.5,0-0.6c0,0,0-0.1,0-0.3s0-0.3,0-0.3c0-0.2-0.2-0.2-0.7-0.2c-0.2,0-0.3,0-0.4,0c0,0.1,0,0.3,0,0.5
				C57.4,68.9,57.4,69.2,57.4,69.5z"/>
			<path opacity="0.24" enable-background="new    " d="M58.5,76c-0.1,0-0.3,0.1-0.4,0.2c-0.8,0.8-1.4,1.4-2,1.9
				c-0.6,0.5-1.1,0.9-1.6,1.2c-0.2,0.1-0.4,0.2-0.6,0.3c-0.6,0.6-1.1,0.8-1.6,0.8c-0.3,0-0.5-0.1-0.8-0.2c-0.3-0.2-0.6-0.4-1-0.8
				h-0.1c0,0.1,0,0.1,0,0.2c0.1,0.2,0.2,0.3,0.3,0.4c0.1,0.1,0.2,0.2,0.4,0.2c0.1,0.1,0.2,0.1,0.4,0.2c0.4,0.4,0.7,0.6,1,0.8
				c0.3,0.2,0.6,0.2,0.8,0.2c0.6,0,1.2-0.4,2-1.1s1.9-2,3.2-3.7c0.1-0.1,0.2-0.3,0.2-0.4C58.6,76.1,58.6,76.1,58.5,76
				C58.6,76.1,58.6,76,58.5,76z"/>
			<path opacity="0.24" enable-background="new    " d="M55.9,69.8v-0.2c0-0.1,0-0.2,0-0.3s0-0.2,0-0.3c0-0.4-0.1-0.6-0.3-0.6
				c-0.1,0-0.3,0.1-0.5,0.2c-1,0.8-1.9,2.2-2.7,4.2c0.1,0,0.1,0,0.2,0c0,0,0.1,0,0.2,0c0.1,0,0.1,0,0.2,0s0.3,0,0.5,0
				c0.1,0,0.2,0,0.3,0C54.4,71.5,55.1,70.4,55.9,69.8z"/>
			<path opacity="0.24" enable-background="new    " d="M69,72.3c0.1-0.3,0.1-0.6,0.1-0.9c0.1-0.7,0.1-1.4,0.1-1.8S69.1,69.1,69,69
				c-0.2-0.1-0.4-0.2-0.8-0.2c0,0.5,0,1.1-0.1,1.8c-0.1,0.7-0.2,1.3-0.4,2c-0.1,0.4-0.3,0.6-0.5,0.6c-0.1,0-0.1,0-0.2-0.1l0,0
				c0,0.1,0.1,0.3,0.3,0.4c0.1,0.1,0.2,0.1,0.2,0.2c0.1,0.1,0.1,0.1,0.1,0.1c0.1,0.1,0.2,0.2,0.3,0.2C68,74,68.1,74,68.2,74
				c0.2,0,0.4-0.2,0.5-0.6c0.1-0.2,0.1-0.4,0.2-0.7c-0.1-0.1-0.1-0.2-0.1-0.2C68.8,72.3,68.9,72.3,69,72.3z"/>
			<path opacity="0.24" enable-background="new    " d="M66.6,69.1c-0.9,1.2-1.7,2.5-2.5,3.8c-0.8,1.3-1.5,2.8-2.2,4.2
				c0.1-0.5,0.3-1.1,0.5-1.7c-0.5,1.1-0.9,2.2-1.3,3.3c-0.2,0.7-0.4,1.1-0.5,1.3c-0.1,0.2-0.2,0.3-0.4,0.3c-0.1,0-0.3-0.1-0.6-0.2
				c0,0.1,0,0.1,0,0.2c0,0.2,0.1,0.4,0.4,0.6c0.7,0.4,1.1,0.5,1.2,0.5c0.1,0,0.3-0.1,0.4-0.3c0.1-0.2,0.3-0.7,0.5-1.3
				c0.5-1.7,1.2-3.4,2.1-5c0.7-1.2,1.3-2.3,2-3.3c0.3-0.9,0.4-1.7,0.4-2.2C66.6,69.2,66.6,69.1,66.6,69.1z"/>
			<path opacity="0.24" enable-background="new    " d="M60.5,72.2c-0.1,0.1-0.1,0.2-0.1,0.3s0,0.1,0.1,0.2c0.1-0.2,0.2-0.5,0.2-0.8
				L60.5,72.2z"/>
			<path opacity="0.24" enable-background="new    " d="M62.3,71.9c-0.6,1.7-1,3.1-1.3,4.1c0.7-1.5,1.4-3,2.2-4.2
				c0.5-0.8,1-1.6,1.5-2.3c0-0.1-0.1-0.2-0.3-0.3c-0.4-0.2-0.6-0.3-0.8-0.4l0,0C63.3,69.2,62.9,70.1,62.3,71.9z"/>
			<path opacity="0.24" enable-background="new    " d="M77.3,76c-0.1,0-0.3,0.1-0.4,0.2c-0.8,0.8-1.4,1.4-2,1.9
				c-0.6,0.5-1.1,0.9-1.6,1.2c-0.2,0.1-0.4,0.2-0.6,0.3c-0.6,0.5-1.1,0.7-1.6,0.7c-0.3,0-0.5-0.1-0.8-0.2c-0.3-0.2-0.6-0.4-1-0.8
				h-0.1c0,0.1,0,0.1,0,0.2c0.1,0.2,0.2,0.3,0.3,0.4c0.1,0.1,0.2,0.2,0.4,0.2c0.1,0.1,0.2,0.1,0.4,0.2c0.4,0.4,0.7,0.6,1,0.8
				c0.3,0.2,0.5,0.2,0.8,0.2c0.6,0,1.2-0.4,2-1.1c0.8-0.7,1.9-2,3.2-3.7c0.1-0.1,0.2-0.3,0.2-0.4C77.5,76,77.5,76,77.3,76
				C77.4,76.1,77.4,76,77.3,76z"/>
			<path opacity="0.24" enable-background="new    " d="M76.2,69.5c0,0.3,0,0.7,0,1.1c0,0.7-0.1,1.3-0.2,1.6
				c-0.1,0.3-0.3,0.5-0.6,0.8c-0.1,0.2-0.2,0.3-0.3,0.5c-0.4,0.4-0.9,0.6-1.4,0.6c-0.2,0-0.4,0-0.5,0c-0.2,0-0.4,0-0.5,0
				s-0.1,0-0.2,0c-0.1,0-0.1,0-0.2,0s-0.1,0-0.2,0v-0.1c-0.3,0-0.6-0.1-0.8-0.1c-0.2,0-0.4-0.1-0.6-0.1c-0.1,0.2-0.2,0.5-0.4,1
				c-0.2,0.6-0.3,1.2-0.4,1.9c-0.1,0.7-0.2,1.4-0.2,2c0,0.5,0.2,0.8,0.5,0.8c0.1,0,0.3,0,0.5-0.1c0-0.5,0.1-1.1,0.2-1.7
				c0.1-0.7,0.3-1.3,0.4-1.9c0.2-0.5,0.3-0.8,0.4-1c0.2,0.1,0.4,0.1,0.6,0.1c0.2,0.1,0.5,0.1,0.8,0.2c0.3,0,0.5,0.1,0.7,0.1
				c0.8,0,1.5-0.2,2.2-0.7c0.4-0.3,0.7-0.7,0.8-1c0.1-0.4,0.2-0.9,0.2-1.6c0-0.4,0-0.7,0-1.1c0-0.3,0-0.5,0-0.8s0-0.5,0-0.6
				c0,0,0-0.1,0-0.3s0-0.3,0-0.3c0-0.2-0.2-0.2-0.7-0.2c-0.2,0-0.3,0-0.4,0c0,0.1,0,0.3,0,0.5C76.2,68.9,76.2,69.2,76.2,69.5z"/>
			<path opacity="0.24" enable-background="new    " d="M74.7,69.8v-0.2c0-0.1,0-0.2,0-0.3s0-0.2,0-0.3c0-0.4-0.1-0.6-0.3-0.6
				c-0.1,0-0.3,0.1-0.5,0.2c-1,0.8-1.9,2.2-2.7,4.2c0.1,0,0.1,0,0.2,0c0,0,0.1,0,0.2,0s0.1,0,0.2,0c0.1,0,0.3,0,0.5,0
				c0.1,0,0.2,0,0.3,0C73.3,71.5,74,70.4,74.7,69.8z"/>
		</g>
	</g>
</g>
<g id="oval">
</g>
<g id="circle_1_">
</g>
<g id="rectangle">
</g>
<g id="square">
</g>
<g id="square_x5F_circle">
</g>
<g id="heart_1_">
</g>
<g id="stroller">
</g>
<g id="babyshirt">
</g>
<g id="circle">
</g>
<g id="heart">
</g>
</svg>
